<!-- Generator: Adobe Illustrator 25.2.3, SVG Export Plug-In  -->
<svg version="1.1" xmlns="http://www.w3.org/2000/svg" xmlns:xlink="http://www.w3.org/1999/xlink" x="0px" y="0px" width="231.5px"
	 height="277.5px" viewBox="0 0 231.5 277.5" style="overflow:visible;enable-background:new 0 0 231.5 277.5;"
	 xml:space="preserve">
<style type="text/css">
	.st0{fill-opacity:5.000000e-02;stroke:#707070;}
	.st1{fill:#ED6A5E;stroke:#D15245;}
	.st2{fill:#F4BF4E;stroke:#D7A140;}
	.st3{fill:#61C554;stroke:#54A940;}
	.st4{fill:#B0B0B0;}
	.st5{fill:#F7CA18;}
	.st6{fill:#EB5952;}
	.st7{fill:#7D7D7D;}
</style>
<defs>
</defs>
<path class="st0" d="M228.8,0.5H2.7c-1.2,0-2.2,1-2.2,2.2v272.1c0,1.2,1,2.2,2.2,2.2h226.1c1.2,0,2.2-1,2.2-2.2V2.7
	C231,1.5,230,0.5,228.8,0.5z"/>
<path class="st0" d="M218.2,27.6H13.3c-1.2,0-2.2,1-2.2,2.2v234.4c0,1.2,1,2.2,2.2,2.2h204.8c1.2,0,2.2-1,2.2-2.2V29.8
	C220.3,28.6,219.4,27.6,218.2,27.6z"/>
<path class="st1" d="M14.3,15c1.7,0,3.1-1.4,3.1-3.1S16,8.8,14.3,8.8s-3.1,1.4-3.1,3.1C11.2,13.6,12.6,15,14.3,15z"/>
<path class="st2" d="M24,15c1.7,0,3.1-1.4,3.1-3.1S25.7,8.8,24,8.8s-3.1,1.4-3.1,3.1C20.8,13.6,22.2,15,24,15z"/>
<path class="st3" d="M33.7,15c1.7,0,3.1-1.4,3.1-3.1s-1.4-3.1-3.1-3.1c-1.7,0-3.1,1.4-3.1,3.1C30.5,13.6,31.9,15,33.7,15z"/>
<path class="st4" d="M97.9,51.1v-1.7l-1.6-3H97l1.1,2.1h0.1l1.1-2.1h0.8l-1.6,3v1.7H97.9z M101.8,51.2c-0.3,0-0.6-0.1-0.9-0.2
	c-0.3-0.1-0.5-0.3-0.6-0.6s-0.2-0.6-0.2-0.9v-0.1c0-0.4,0.1-0.7,0.2-0.9c0.1-0.3,0.4-0.5,0.6-0.6c0.3-0.1,0.6-0.2,0.9-0.2
	s0.6,0.1,0.9,0.2c0.3,0.1,0.5,0.3,0.6,0.6s0.2,0.6,0.2,0.9v0.1c0,0.4-0.1,0.7-0.2,0.9c-0.1,0.3-0.4,0.5-0.6,0.6
	C102.4,51.1,102.1,51.2,101.8,51.2z M101.8,50.6c0.3,0,0.6-0.1,0.7-0.3c0.2-0.2,0.3-0.5,0.3-0.8v-0.1c0-0.3-0.1-0.6-0.3-0.8
	c-0.2-0.2-0.4-0.3-0.8-0.3c-0.3,0-0.6,0.1-0.7,0.3c-0.2,0.2-0.3,0.5-0.3,0.8v0.1c0,0.3,0.1,0.6,0.3,0.8
	C101.3,50.5,101.5,50.6,101.8,50.6z M105.7,51.2c-0.3,0-0.5-0.1-0.7-0.2s-0.4-0.3-0.5-0.5s-0.2-0.5-0.2-0.7v-2h0.7v2
	c0,0.3,0.1,0.5,0.2,0.6s0.3,0.2,0.6,0.2c0.3,0,0.5-0.1,0.7-0.3s0.3-0.5,0.3-0.8v-1.7h0.7v3.3h-0.7v-0.5h-0.1
	c-0.1,0.1-0.2,0.3-0.3,0.4C106.2,51.1,106,51.2,105.7,51.2z M108.6,51.1v-3.3h0.7v0.4h0.1c0.1-0.1,0.1-0.2,0.3-0.3
	c0.1-0.1,0.3-0.1,0.4-0.1h0.4v0.6H110c-0.2,0-0.4,0.1-0.6,0.2c-0.1,0.1-0.2,0.3-0.2,0.6v2h-0.6V51.1z M112.9,51.1v-4.7h1.9
	c0.3,0,0.5,0.1,0.8,0.2c0.2,0.1,0.4,0.3,0.5,0.5s0.2,0.5,0.2,0.8V48c0,0.3-0.1,0.5-0.2,0.8c-0.1,0.2-0.3,0.4-0.5,0.5
	s-0.5,0.2-0.8,0.2h-1.2v1.8h-0.7V51.1z M113.6,48.6h1.1c0.3,0,0.5-0.1,0.6-0.2c0.2-0.1,0.2-0.3,0.2-0.6v-0.1c0-0.2-0.1-0.4-0.2-0.6
	c-0.2-0.1-0.4-0.2-0.6-0.2h-1.1V48.6z M117,51.1v-3.3h0.7v0.4h0.1c0.1-0.1,0.1-0.2,0.3-0.3c0.1-0.1,0.3-0.1,0.4-0.1h0.4v0.6h-0.4
	c-0.2,0-0.4,0.1-0.6,0.2c-0.1,0.1-0.2,0.3-0.2,0.6v2H117V51.1z M121.1,51.2c-0.3,0-0.6-0.1-0.9-0.2c-0.3-0.1-0.5-0.3-0.6-0.6
	s-0.2-0.6-0.2-0.9v-0.1c0-0.4,0.1-0.7,0.2-0.9c0.1-0.3,0.4-0.5,0.6-0.6c0.3-0.1,0.6-0.2,0.9-0.2s0.6,0.1,0.9,0.2s0.5,0.3,0.6,0.6
	s0.2,0.6,0.2,0.9v0.1c0,0.4-0.1,0.7-0.2,0.9c-0.1,0.3-0.4,0.5-0.6,0.6C121.7,51.1,121.4,51.2,121.1,51.2z M121.1,50.6
	c0.3,0,0.6-0.1,0.7-0.3c0.2-0.2,0.3-0.5,0.3-0.8v-0.1c0-0.3-0.1-0.6-0.3-0.8c-0.2-0.2-0.4-0.3-0.8-0.3c-0.3,0-0.6,0.1-0.7,0.3
	c-0.2,0.2-0.3,0.5-0.3,0.8v0.1c0,0.3,0.1,0.6,0.3,0.8S120.8,50.6,121.1,50.6z M123,52.5v-0.6h0.5c0.1,0,0.2-0.1,0.2-0.2v-3.9h0.7v4
	c0,0.2-0.1,0.4-0.2,0.5s-0.3,0.2-0.5,0.2H123z M124,47.3c-0.1,0-0.3,0-0.3-0.1c-0.1-0.1-0.1-0.2-0.1-0.3s0-0.3,0.1-0.3
	c0.1-0.1,0.2-0.1,0.3-0.1c0.1,0,0.3,0,0.3,0.1c0.1,0.1,0.1,0.2,0.1,0.3s0,0.3-0.1,0.3C124.3,47.3,124.2,47.3,124,47.3z M127,51.2
	c-0.3,0-0.6-0.1-0.9-0.2c-0.3-0.1-0.5-0.3-0.6-0.6s-0.2-0.6-0.2-0.9v-0.1c0-0.3,0.1-0.7,0.2-0.9c0.1-0.3,0.3-0.5,0.6-0.6
	c0.3-0.1,0.5-0.2,0.9-0.2c0.3,0,0.6,0.1,0.8,0.2c0.2,0.1,0.4,0.3,0.6,0.6c0.1,0.3,0.2,0.5,0.2,0.9v0.3H126c0,0.3,0.1,0.5,0.3,0.7
	c0.2,0.2,0.4,0.3,0.7,0.3c0.3,0,0.5-0.1,0.6-0.2c0.1-0.1,0.2-0.3,0.3-0.4l0.6,0.3c-0.1,0.1-0.2,0.3-0.3,0.4
	c-0.1,0.1-0.3,0.3-0.5,0.4C127.5,51.1,127.3,51.2,127,51.2z M126,49.1h1.9c0-0.3-0.1-0.4-0.3-0.6c-0.2-0.1-0.4-0.2-0.6-0.2
	c-0.3,0-0.5,0.1-0.6,0.2C126.1,48.6,126,48.8,126,49.1z M130.9,51.2c-0.3,0-0.6-0.1-0.9-0.2c-0.3-0.1-0.5-0.3-0.6-0.6
	s-0.2-0.6-0.2-0.9v-0.1c0-0.4,0.1-0.7,0.2-0.9c0.2-0.3,0.4-0.5,0.6-0.6c0.3-0.1,0.6-0.2,0.9-0.2c0.3,0,0.6,0.1,0.8,0.2
	c0.2,0.1,0.4,0.3,0.5,0.5s0.2,0.4,0.3,0.6l-0.7,0.1c0-0.1-0.1-0.3-0.1-0.4c-0.1-0.1-0.2-0.2-0.3-0.3s-0.3-0.1-0.5-0.1
	s-0.4,0-0.5,0.1c-0.2,0.1-0.3,0.2-0.4,0.4c-0.1,0.2-0.1,0.4-0.1,0.6v0.1c0,0.2,0,0.4,0.1,0.6c0.1,0.2,0.2,0.3,0.4,0.4
	c0.2,0.1,0.3,0.1,0.5,0.1c0.3,0,0.5-0.1,0.7-0.2c0.2-0.2,0.2-0.3,0.3-0.6l0.7,0.2c-0.1,0.2-0.2,0.4-0.3,0.6
	c-0.1,0.2-0.3,0.4-0.5,0.5C131.5,51.1,131.3,51.2,130.9,51.2z M134.5,51.1c-0.2,0-0.4-0.1-0.5-0.2c-0.1-0.1-0.2-0.3-0.2-0.5v-2.1
	H133v-0.6h0.9v-1.1h0.7v1.1h1v0.6h-1v2c0,0.1,0.1,0.2,0.2,0.2h0.7v0.6H134.5z M137.8,51.2c-0.4,0-0.8-0.1-1.1-0.3s-0.5-0.5-0.5-0.9
	l0.7-0.2c0,0.2,0.1,0.3,0.2,0.4c0.1,0.1,0.2,0.2,0.3,0.2s0.3,0.1,0.4,0.1c0.2,0,0.4,0,0.5-0.1s0.2-0.2,0.2-0.3s-0.1-0.2-0.2-0.3
	c-0.1-0.1-0.3-0.1-0.5-0.2h-0.2c-0.2,0-0.4-0.1-0.6-0.2c-0.2-0.1-0.3-0.2-0.4-0.3c-0.1-0.1-0.2-0.3-0.2-0.5c0-0.3,0.1-0.6,0.4-0.7
	c0.2-0.2,0.5-0.3,0.9-0.3s0.7,0.1,0.9,0.3s0.4,0.4,0.5,0.7l-0.7,0.2c0-0.2-0.1-0.3-0.3-0.4c-0.1-0.1-0.3-0.1-0.5-0.1s-0.3,0-0.4,0.1
	c-0.1,0.1-0.2,0.2-0.2,0.3s0.1,0.2,0.2,0.3c0.1,0.1,0.3,0.1,0.4,0.1h0.2c0.2,0,0.5,0.1,0.7,0.2c0.2,0.1,0.4,0.2,0.5,0.3
	s0.2,0.3,0.2,0.5c0,0.3-0.1,0.6-0.4,0.8C138.5,51.1,138.2,51.2,137.8,51.2z"/>
<path d="M84.1,60.9c-0.3,0-0.7-0.1-0.9-0.2c-0.3-0.1-0.5-0.3-0.6-0.5c-0.2-0.2-0.2-0.5-0.2-0.9v-0.1h0.7v0.1c0,0.3,0.1,0.5,0.3,0.7
	c0.2,0.2,0.5,0.3,0.8,0.3s0.6-0.1,0.8-0.2c0.2-0.2,0.3-0.4,0.3-0.6v-0.1c0-0.2,0-0.3-0.1-0.4c-0.1-0.1-0.2-0.2-0.3-0.2
	c-0.1-0.1-0.3-0.1-0.5-0.1h-0.9v-0.8l1.7-1v-0.1h-2.5V56H86v1l-1.6,0.9V58h0.3c0.2,0,0.5,0,0.7,0.1s0.4,0.2,0.5,0.4s0.2,0.4,0.2,0.7
	v0.1c0,0.3-0.1,0.6-0.2,0.8s-0.3,0.4-0.6,0.5C84.8,60.8,84.5,60.9,84.1,60.9z M90,60.9c-0.3,0-0.6-0.1-0.9-0.2
	c-0.3-0.1-0.5-0.3-0.6-0.6s-0.2-0.6-0.2-0.9v-0.1c0-0.4,0.1-0.7,0.2-0.9c0.2-0.3,0.4-0.5,0.6-0.6c0.3-0.1,0.6-0.2,0.9-0.2
	s0.6,0.1,0.8,0.2c0.2,0.1,0.4,0.3,0.5,0.5s0.2,0.4,0.3,0.6L91,58.8c0-0.2-0.1-0.3-0.1-0.4c-0.1-0.1-0.2-0.2-0.3-0.3
	C90.4,58,90.2,58,90,58s-0.4,0-0.5,0.1c-0.2,0.1-0.3,0.2-0.4,0.4C89,58.6,89,58.8,89,59.1v0.1c0,0.2,0,0.4,0.1,0.6
	c0.1,0.2,0.2,0.3,0.4,0.4c0.2,0.1,0.3,0.1,0.5,0.1c0.3,0,0.5-0.1,0.7-0.2c0.2-0.2,0.3-0.3,0.3-0.6l0.7,0.2c-0.1,0.2-0.2,0.4-0.3,0.6
	c-0.1,0.2-0.3,0.4-0.5,0.5C90.6,60.8,90.3,60.9,90,60.9z M93.7,60.8c-0.3,0-0.5-0.1-0.7-0.2c-0.2-0.1-0.4-0.3-0.5-0.5
	s-0.2-0.5-0.2-0.7v-2H93v2c0,0.3,0.1,0.5,0.2,0.6s0.3,0.2,0.6,0.2c0.3,0,0.5-0.1,0.7-0.3s0.3-0.5,0.3-0.8v-1.7h0.7v3.3h-0.7v-0.5
	h-0.1c-0.1,0.1-0.2,0.3-0.3,0.4C94.3,60.8,94.1,60.8,93.7,60.8z M96.6,60.8v-3.3h0.7v0.4h0.1c0.1-0.1,0.1-0.2,0.3-0.3
	c0.1-0.1,0.3-0.1,0.4-0.1h0.4v0.6h-0.4c-0.2,0-0.4,0.1-0.6,0.2c-0.1,0.1-0.2,0.3-0.2,0.6v2h-0.7V60.8z M99.2,60.8v-3.3h0.7v0.4h0.1
	c0.1-0.1,0.1-0.2,0.3-0.3c0.1-0.1,0.3-0.1,0.4-0.1h0.4v0.6h-0.4c-0.2,0-0.4,0.1-0.6,0.2c-0.1,0.1-0.2,0.3-0.2,0.6v2h-0.7V60.8z
	 M103.3,60.9c-0.3,0-0.6-0.1-0.9-0.2c-0.3-0.1-0.5-0.3-0.6-0.6s-0.2-0.6-0.2-0.9v-0.1c0-0.3,0.1-0.7,0.2-0.9
	c0.1-0.3,0.3-0.5,0.6-0.6c0.3-0.1,0.5-0.2,0.9-0.2c0.3,0,0.6,0.1,0.8,0.2c0.2,0.1,0.4,0.3,0.6,0.6c0.1,0.3,0.2,0.5,0.2,0.9v0.3h-2.6
	c0,0.3,0.1,0.5,0.3,0.7c0.2,0.2,0.4,0.3,0.7,0.3c0.3,0,0.5-0.1,0.6-0.2c0.1-0.1,0.2-0.3,0.3-0.4l0.6,0.3c-0.1,0.1-0.2,0.3-0.3,0.4
	c-0.1,0.1-0.3,0.3-0.5,0.4C103.8,60.8,103.6,60.9,103.3,60.9z M102.3,58.8h1.9c0-0.3-0.1-0.5-0.3-0.6c-0.2-0.1-0.4-0.2-0.6-0.2
	c-0.3,0-0.5,0.1-0.6,0.2C102.4,58.3,102.3,58.5,102.3,58.8z M105.7,60.8v-3.3h0.7V58h0.1c0.1-0.1,0.2-0.3,0.3-0.4
	c0.2-0.1,0.4-0.2,0.7-0.2c0.3,0,0.5,0.1,0.7,0.2c0.2,0.1,0.4,0.3,0.5,0.5s0.2,0.4,0.2,0.7v2h-0.7v-2c0-0.3-0.1-0.5-0.2-0.6
	s-0.3-0.2-0.6-0.2c-0.3,0-0.5,0.1-0.7,0.3s-0.3,0.5-0.3,0.8v1.7H105.7z M111,60.8c-0.2,0-0.4-0.1-0.5-0.2c-0.1-0.1-0.2-0.3-0.2-0.5
	V58h-0.9v-0.6h0.9v-1.1h0.7v1.1h1V58h-1v2c0,0.1,0.1,0.2,0.2,0.2h0.7v0.6H111z M112.9,60.8V56h0.7v4.7L112.9,60.8L112.9,60.8z
	 M115,62.1v-0.6h1.9c0.1,0,0.2-0.1,0.2-0.2v-1H117c0,0.1-0.1,0.2-0.2,0.3s-0.2,0.2-0.3,0.2c-0.1,0.1-0.3,0.1-0.5,0.1
	c-0.3,0-0.5-0.1-0.7-0.2c-0.2-0.1-0.4-0.3-0.5-0.5s-0.2-0.5-0.2-0.7v-2h0.7v2c0,0.3,0.1,0.5,0.2,0.6s0.3,0.2,0.6,0.2
	c0.3,0,0.5-0.1,0.7-0.3s0.3-0.5,0.3-0.8v-1.7h0.7v4c0,0.2-0.1,0.4-0.2,0.5s-0.3,0.2-0.5,0.2L115,62.1L115,62.1z M121.5,60.9
	c-0.2,0-0.5,0-0.6-0.1c-0.2-0.1-0.3-0.2-0.4-0.4s-0.2-0.4-0.2-0.6c0-0.2,0.1-0.4,0.2-0.6c0.1-0.2,0.3-0.3,0.5-0.3
	c0.2-0.1,0.4-0.1,0.7-0.1h1v-0.2c0-0.2-0.1-0.3-0.2-0.5c-0.1-0.1-0.3-0.2-0.5-0.2s-0.4,0.1-0.5,0.2c-0.1,0.1-0.2,0.3-0.3,0.4
	l-0.7-0.2c0.1-0.2,0.1-0.3,0.3-0.5c0.1-0.1,0.3-0.3,0.5-0.4c0.2-0.1,0.4-0.1,0.7-0.1c0.4,0,0.8,0.1,1,0.3s0.4,0.5,0.4,0.9V60
	c0,0.1,0.1,0.2,0.2,0.2h0.3v0.6h-0.5c-0.2,0-0.3,0-0.4-0.1s-0.1-0.2-0.1-0.3l0,0h-0.1c0,0.1-0.1,0.1-0.2,0.2
	c-0.1,0.1-0.2,0.2-0.3,0.2C122,60.8,121.8,60.9,121.5,60.9z M121.6,60.3c0.3,0,0.5-0.1,0.7-0.2c0.2-0.2,0.3-0.4,0.3-0.7v-0.1h-1
	c-0.2,0-0.3,0-0.4,0.1s-0.2,0.2-0.2,0.3c0,0.2,0.1,0.3,0.2,0.4C121.3,60.3,121.4,60.3,121.6,60.3z M125.8,60.9
	c-0.4,0-0.8-0.1-1.1-0.3c-0.3-0.2-0.5-0.5-0.5-0.9l0.7-0.2c0,0.2,0.1,0.3,0.2,0.4c0.1,0.1,0.2,0.2,0.3,0.2c0.1,0,0.3,0.1,0.4,0.1
	c0.2,0,0.4,0,0.5-0.1s0.2-0.2,0.2-0.3s-0.1-0.2-0.2-0.3s-0.3-0.1-0.5-0.2h-0.2c-0.2,0-0.4-0.1-0.6-0.2c-0.2-0.1-0.3-0.2-0.4-0.3
	s-0.2-0.3-0.2-0.5c0-0.3,0.1-0.6,0.4-0.7c0.2-0.2,0.5-0.3,0.9-0.3s0.7,0.1,0.9,0.3c0.2,0.2,0.4,0.4,0.5,0.7l-0.7,0.2
	c0-0.2-0.1-0.3-0.3-0.4c-0.1-0.1-0.3-0.1-0.5-0.1s-0.3,0-0.4,0.1s-0.2,0.2-0.2,0.3s0.1,0.2,0.2,0.3s0.3,0.1,0.4,0.1h0.2
	c0.2,0,0.5,0.1,0.7,0.2c0.2,0.1,0.4,0.2,0.5,0.3s0.2,0.3,0.2,0.5c0,0.3-0.1,0.6-0.4,0.8S126.2,60.9,125.8,60.9z M129.3,60.9
	c-0.4,0-0.8-0.1-1.1-0.3s-0.5-0.5-0.5-0.9l0.6-0.2c0,0.2,0.1,0.3,0.2,0.4c0.1,0.1,0.2,0.2,0.3,0.2s0.3,0.1,0.4,0.1
	c0.2,0,0.4,0,0.5-0.1s0.2-0.2,0.2-0.3s-0.1-0.2-0.2-0.3c-0.1-0.1-0.3-0.1-0.5-0.2H129c-0.2,0-0.4-0.1-0.6-0.2
	c-0.2-0.1-0.3-0.2-0.4-0.3s-0.2-0.3-0.2-0.5c0-0.3,0.1-0.6,0.4-0.7c0.2-0.2,0.5-0.3,0.9-0.3s0.7,0.1,0.9,0.3s0.4,0.4,0.5,0.7
	l-0.6,0.2c0-0.2-0.1-0.3-0.3-0.4c-0.1-0.1-0.3-0.1-0.5-0.1s-0.3,0-0.4,0.1c-0.1,0.1-0.2,0.2-0.2,0.3s0.1,0.2,0.2,0.3
	c0.1,0.1,0.3,0.1,0.4,0.1h0.2c0.2,0,0.5,0.1,0.7,0.2c0.2,0.1,0.4,0.2,0.5,0.3s0.2,0.3,0.2,0.5c0,0.3-0.1,0.6-0.4,0.8
	C130.1,60.8,129.7,60.9,129.3,60.9z M131.5,60.8v-3.3h0.7v3.3H131.5z M131.9,57c-0.1,0-0.3,0-0.3-0.1c-0.1-0.1-0.1-0.2-0.1-0.3
	s0-0.3,0.1-0.3c0.1-0.1,0.2-0.1,0.3-0.1s0.3,0,0.3,0.1c0.1,0.1,0.1,0.2,0.1,0.3s0,0.3-0.1,0.3C132.1,56.9,132,57,131.9,57z
	 M133.1,59.1L133.1,59.1c0-0.5,0.1-0.8,0.2-1c0.1-0.2,0.3-0.4,0.6-0.6c0.2-0.1,0.5-0.2,0.8-0.2s0.6,0.1,0.7,0.2
	c0.2,0.1,0.3,0.3,0.4,0.4h0.1v-0.5h0.7v4c0,0.2-0.1,0.4-0.2,0.5c-0.1,0.1-0.3,0.2-0.5,0.2h-2.2v-0.6h2c0.1,0,0.2-0.1,0.2-0.2v-1.1
	h-0.1c0,0.1-0.1,0.2-0.2,0.3s-0.2,0.2-0.4,0.2c-0.1,0.1-0.3,0.1-0.5,0.1c-0.3,0-0.5-0.1-0.8-0.2c-0.2-0.1-0.4-0.3-0.6-0.6
	C133.2,59.8,133.1,59.5,133.1,59.1z M134.8,60.2c0.3,0,0.6-0.1,0.7-0.3c0.2-0.2,0.3-0.5,0.3-0.8V59c0-0.3-0.1-0.6-0.3-0.8
	s-0.4-0.3-0.8-0.3c-0.3,0-0.5,0.1-0.7,0.3s-0.3,0.5-0.3,0.8v0.1c0,0.3,0.1,0.6,0.3,0.8C134.3,60.1,134.5,60.2,134.8,60.2z
	 M137.6,60.8v-3.3h0.7V58h0.1c0.1-0.1,0.2-0.3,0.3-0.4c0.2-0.1,0.4-0.2,0.7-0.2s0.5,0.1,0.7,0.2c0.2,0.1,0.4,0.3,0.5,0.5
	s0.2,0.4,0.2,0.7v2h-0.7v-2c0-0.3-0.1-0.5-0.2-0.6c-0.1-0.1-0.3-0.2-0.6-0.2s-0.5,0.1-0.7,0.3s-0.3,0.5-0.3,0.8v1.7H137.6z
	 M143.3,60.9c-0.3,0-0.6-0.1-0.9-0.2c-0.3-0.1-0.5-0.3-0.6-0.6s-0.2-0.6-0.2-0.9v-0.1c0-0.3,0.1-0.7,0.2-0.9
	c0.1-0.3,0.3-0.5,0.6-0.6s0.5-0.2,0.9-0.2c0.3,0,0.6,0.1,0.8,0.2c0.2,0.1,0.4,0.3,0.6,0.6c0.1,0.3,0.2,0.5,0.2,0.9v0.3h-2.6
	c0,0.3,0.1,0.5,0.3,0.7s0.4,0.3,0.7,0.3s0.5-0.1,0.6-0.2c0.1-0.1,0.2-0.3,0.3-0.4l0.6,0.3c-0.1,0.1-0.2,0.3-0.3,0.4
	c-0.1,0.1-0.3,0.3-0.5,0.4C143.8,60.8,143.6,60.9,143.3,60.9z M142.3,58.8h1.9c0-0.3-0.1-0.5-0.3-0.6s-0.4-0.2-0.6-0.2
	c-0.3,0-0.5,0.1-0.6,0.2C142.5,58.3,142.4,58.5,142.3,58.8z M147.1,60.9c-0.3,0-0.5-0.1-0.8-0.2c-0.2-0.1-0.4-0.3-0.6-0.6
	c-0.1-0.3-0.2-0.6-0.2-0.9v-0.1c0-0.4,0.1-0.7,0.2-0.9c0.1-0.3,0.3-0.5,0.6-0.6c0.2-0.1,0.5-0.2,0.8-0.2c0.2,0,0.4,0,0.5,0.1
	s0.3,0.1,0.4,0.2c0.1,0.1,0.2,0.2,0.2,0.3h0.1v-2h0.7v4.7h-0.7v-0.5h-0.1c-0.1,0.1-0.2,0.3-0.4,0.4
	C147.7,60.8,147.4,60.9,147.1,60.9z M147.3,60.3c0.3,0,0.6-0.1,0.7-0.3c0.2-0.2,0.3-0.5,0.3-0.8v-0.1c0-0.4-0.1-0.6-0.3-0.8
	s-0.4-0.3-0.8-0.3c-0.3,0-0.5,0.1-0.7,0.3s-0.3,0.5-0.3,0.8v0.1c0,0.4,0.1,0.6,0.3,0.8C146.8,60.2,147,60.3,147.3,60.3z"/>
<path class="st5" d="M32.5,64.7c6,0,10.9-4.9,10.9-10.9s-4.9-10.9-10.9-10.9s-10.9,4.9-10.9,10.9S26.4,64.7,32.5,64.7z"/>
<path d="M205.6,57.9c0,0.8-0.7,1.5-1.4,1.5c-0.8,0-1.5-0.7-1.5-1.5H205.6z M205.6,49.6c-0.3-0.2-0.5-0.5-0.5-0.9l0,0
	c0-0.6-0.5-1-1-1c-0.6,0-1,0.5-1,1l0,0c0,0.4-0.2,0.7-0.5,0.9c-2.3,1.3-1,5.7-3.3,6.4v0.8h9.7V56C206.6,55.3,207.9,50.9,205.6,49.6z
	 M204.1,48.2c0.3,0,0.5,0.2,0.5,0.5s-0.2,0.5-0.5,0.5s-0.5-0.2-0.5-0.5S203.8,48.2,204.1,48.2z M201,55.9c0.6-0.8,0.8-1.9,1-2.8
	c0.2-1.2,0.4-2.2,1.1-2.7c0.7-0.4,1.4-0.4,2.1,0c0.7,0.4,0.9,1.5,1.1,2.7c0.2,0.9,0.4,2,1,2.8H201z"/>
<path class="st6" d="M206.5,53c1.1,0,1.9-0.9,1.9-1.9s-0.9-1.9-1.9-1.9c-1.1,0-1.9,0.9-1.9,1.9S205.5,53,206.5,53z"/>
<path class="st0" d="M207.5,74.6H24c-1.2,0-2.2,1-2.2,2.2v40.7c0,1.2,1,2.2,2.2,2.2h183.5c1.2,0,2.2-1,2.2-2.2V76.8
	C209.7,75.6,208.7,74.6,207.5,74.6z"/>
<path class="st7" d="M32.7,88.9v-4.7h0.7v4.1h2.3V89L32.7,88.9L32.7,88.9z M38,89c-0.3,0-0.6-0.1-0.9-0.2c-0.3-0.1-0.5-0.3-0.6-0.6
	c-0.1-0.3-0.2-0.6-0.2-0.9v-0.1c0-0.4,0.1-0.7,0.2-0.9c0.1-0.3,0.4-0.5,0.6-0.6c0.3-0.1,0.6-0.2,0.9-0.2c0.3,0,0.6,0.1,0.9,0.2
	c0.3,0.1,0.5,0.3,0.6,0.6c0.1,0.3,0.2,0.6,0.2,0.9v0.1c0,0.4-0.1,0.7-0.2,0.9c-0.2,0.3-0.4,0.5-0.6,0.6C38.6,88.9,38.3,89,38,89z
	 M38,88.3c0.3,0,0.6-0.1,0.7-0.3c0.2-0.2,0.3-0.5,0.3-0.8v-0.1c0-0.3-0.1-0.6-0.3-0.8c-0.2-0.2-0.4-0.3-0.8-0.3
	c-0.3,0-0.6,0.1-0.7,0.3c-0.2,0.2-0.3,0.5-0.3,0.8v0.1c0,0.3,0.1,0.6,0.3,0.8C37.4,88.2,37.7,88.3,38,88.3z M40.9,88.9l-0.6-3.3H41
	l0.4,2.9h0.1l0.6-2.9h1.1l0.6,2.9H44l0.4-2.9h0.7l-0.6,3.3h-1.2L42.8,86h-0.1l-0.6,2.9H40.9z M47.6,88.9v-4.7h1.9
	c0.3,0,0.5,0.1,0.8,0.2c0.2,0.1,0.4,0.3,0.5,0.5s0.2,0.5,0.2,0.8v0.1c0,0.3-0.1,0.5-0.2,0.8c-0.1,0.2-0.3,0.4-0.5,0.5
	S49.8,87,49.5,87h-1.2v1.8L47.6,88.9L47.6,88.9z M48.3,86.4h1.1c0.3,0,0.5-0.1,0.6-0.2c0.2-0.1,0.2-0.3,0.2-0.6v-0.1
	c0-0.2-0.1-0.4-0.2-0.6c-0.2-0.1-0.4-0.2-0.6-0.2h-1.1V86.4z M51.7,88.9v-3.3h0.7V86h0.1c0.1-0.1,0.1-0.2,0.3-0.3
	c0.1-0.1,0.3-0.1,0.4-0.1h0.4v0.6h-0.4c-0.2,0-0.4,0.1-0.6,0.2c-0.1,0.1-0.2,0.3-0.2,0.6v2L51.7,88.9L51.7,88.9z M54.3,88.9v-3.3H55
	v3.3H54.3z M54.7,85.1c-0.1,0-0.3,0-0.3-0.1c-0.1-0.1-0.1-0.2-0.1-0.3c0-0.1,0-0.3,0.1-0.3c0.1-0.1,0.2-0.1,0.3-0.1s0.3,0,0.3,0.1
	c0.1,0.1,0.1,0.2,0.1,0.3c0,0.1,0,0.3-0.1,0.3S54.8,85.1,54.7,85.1z M57.6,89c-0.3,0-0.6-0.1-0.9-0.2c-0.3-0.1-0.5-0.3-0.6-0.6
	c-0.1-0.3-0.2-0.6-0.2-0.9v-0.1c0-0.4,0.1-0.7,0.2-0.9c0.1-0.3,0.4-0.5,0.6-0.6c0.3-0.1,0.6-0.2,0.9-0.2c0.3,0,0.6,0.1,0.9,0.2
	c0.3,0.1,0.5,0.3,0.6,0.6c0.1,0.3,0.2,0.6,0.2,0.9v0.1c0,0.4-0.1,0.7-0.2,0.9c-0.1,0.3-0.4,0.5-0.6,0.6C58.3,88.9,58,89,57.6,89z
	 M57.6,88.3c0.3,0,0.6-0.1,0.7-0.3c0.2-0.2,0.3-0.5,0.3-0.8v-0.1c0-0.3-0.1-0.6-0.3-0.8c-0.2-0.2-0.4-0.3-0.8-0.3
	c-0.3,0-0.6,0.1-0.7,0.3c-0.2,0.2-0.3,0.5-0.3,0.8v0.1c0,0.3,0.1,0.6,0.3,0.8C57.1,88.2,57.3,88.3,57.6,88.3z M60.2,88.9v-3.3h0.7
	V86H61c0.1-0.1,0.1-0.2,0.3-0.3c0.1-0.1,0.3-0.1,0.4-0.1h0.4v0.6h-0.4c-0.2,0-0.4,0.1-0.6,0.2c-0.1,0.1-0.2,0.3-0.2,0.6v2L60.2,88.9
	L60.2,88.9z M62.9,88.9v-3.3h0.7v3.3H62.9z M63.2,85.1c-0.1,0-0.3,0-0.3-0.1c-0.1-0.1-0.1-0.2-0.1-0.3c0-0.1,0-0.3,0.1-0.3
	c0.1-0.1,0.2-0.1,0.3-0.1s0.3,0,0.3,0.1c0.1,0.1,0.1,0.2,0.1,0.3c0,0.1,0,0.3-0.1,0.3C63.5,85,63.4,85.1,63.2,85.1z M65.9,88.9
	c-0.2,0-0.4-0.1-0.5-0.2s-0.2-0.3-0.2-0.5v-2.1h-0.9v-0.6h0.9v-1.1h0.7v1.1h1v0.6h-1v2c0,0.1,0.1,0.2,0.2,0.2h0.7v0.6H65.9z
	 M68.1,90.2v-0.6H70c0.1,0,0.2-0.1,0.2-0.2v-1H70c0,0.1-0.1,0.2-0.2,0.3c-0.1,0.1-0.2,0.1-0.3,0.2C69.4,89,69.2,89,69,89
	c-0.3,0-0.5-0.1-0.7-0.2s-0.4-0.3-0.5-0.5s-0.2-0.5-0.2-0.7v-2h0.7v2c0,0.3,0.1,0.5,0.2,0.6s0.3,0.2,0.6,0.2c0.3,0,0.5-0.1,0.7-0.3
	c0.2-0.2,0.3-0.5,0.3-0.8v-1.7h0.7v4c0,0.2-0.1,0.4-0.2,0.5s-0.3,0.2-0.5,0.2L68.1,90.2L68.1,90.2z"/>
<path d="M34.5,101.6c-0.6,0-1-0.2-1.4-0.5c-0.3-0.3-0.5-0.8-0.5-1.4v-1.1c0-0.6,0.2-1.1,0.5-1.4s0.8-0.5,1.4-0.5
	c0.6,0,1,0.2,1.3,0.5s0.5,0.7,0.5,1.3l0,0h-0.7v-0.1c0-0.3-0.1-0.6-0.3-0.8c-0.2-0.2-0.4-0.3-0.8-0.3c-0.4,0-0.6,0.1-0.8,0.3
	c-0.2,0.2-0.3,0.5-0.3,0.9v1.1c0,0.4,0.1,0.7,0.3,0.9c0.2,0.2,0.5,0.3,0.8,0.3c0.4,0,0.6-0.1,0.8-0.3c0.2-0.2,0.3-0.5,0.3-0.8v-0.1
	h0.7v0.1c0,0.5-0.2,1-0.5,1.3C35.5,101.4,35,101.6,34.5,101.6z M37.1,101.5v-3.3h0.7v0.4h0.1c0.1-0.1,0.1-0.2,0.3-0.3
	c0.1-0.1,0.3-0.1,0.4-0.1H39v0.6h-0.4c-0.2,0-0.4,0.1-0.6,0.2c-0.1,0.1-0.2,0.3-0.2,0.6v2L37.1,101.5L37.1,101.5z M41.1,101.6
	c-0.3,0-0.6-0.1-0.9-0.2c-0.3-0.1-0.5-0.3-0.6-0.6c-0.1-0.3-0.2-0.6-0.2-0.9v-0.1c0-0.3,0.1-0.7,0.2-0.9c0.1-0.3,0.3-0.5,0.6-0.6
	s0.5-0.2,0.9-0.2c0.3,0,0.6,0.1,0.8,0.2s0.4,0.3,0.6,0.6c0.1,0.3,0.2,0.5,0.2,0.9v0.3h-2.6c0,0.3,0.1,0.5,0.3,0.7s0.4,0.3,0.7,0.3
	s0.5-0.1,0.6-0.2s0.2-0.3,0.3-0.4l0.6,0.3c-0.1,0.1-0.2,0.3-0.3,0.4s-0.3,0.3-0.5,0.4S41.4,101.6,41.1,101.6z M40.1,99.4H42
	c0-0.3-0.1-0.5-0.3-0.6s-0.4-0.2-0.6-0.2c-0.3,0-0.5,0.1-0.6,0.2C40.3,99,40.2,99.2,40.1,99.4z M44.6,101.6c-0.2,0-0.5,0-0.6-0.1
	c-0.2-0.1-0.3-0.2-0.4-0.4c-0.1-0.2-0.2-0.4-0.2-0.6s0.1-0.4,0.2-0.6c0.1-0.2,0.3-0.3,0.5-0.3c0.2-0.1,0.4-0.1,0.7-0.1h1v-0.2
	c0-0.2-0.1-0.4-0.2-0.5c-0.1-0.1-0.3-0.2-0.5-0.2s-0.4,0.1-0.5,0.2s-0.2,0.3-0.3,0.4L43.5,99c0.1-0.2,0.1-0.3,0.3-0.5
	c0.1-0.1,0.3-0.3,0.5-0.4S44.7,98,45,98c0.4,0,0.8,0.1,1,0.3c0.2,0.2,0.4,0.5,0.4,0.9v1.4c0,0.1,0.1,0.2,0.2,0.2h0.3v0.6h-0.5
	c-0.2,0-0.3,0-0.4-0.1c-0.1-0.1-0.1-0.2-0.1-0.3l0,0h-0.1c0,0.1-0.1,0.1-0.2,0.2c-0.1,0.1-0.2,0.2-0.3,0.2
	C45,101.5,44.8,101.6,44.6,101.6z M44.7,101c0.3,0,0.5-0.1,0.7-0.2c0.2-0.2,0.3-0.4,0.3-0.7V100h-1c-0.2,0-0.3,0-0.4,0.1
	c-0.1,0.1-0.2,0.2-0.2,0.3c0,0.2,0.1,0.3,0.2,0.4C44.3,100.9,44.5,101,44.7,101z M48.5,101.5c-0.2,0-0.4-0.1-0.5-0.2
	s-0.2-0.3-0.2-0.5v-2.1h-0.9v-0.6h0.9V97h0.7v1.1h1v0.6h-1v2c0,0.1,0.1,0.2,0.2,0.2h0.7v0.6C49.4,101.5,48.5,101.5,48.5,101.5z
	 M51.7,101.6c-0.3,0-0.6-0.1-0.9-0.2c-0.3-0.1-0.5-0.3-0.6-0.6c-0.1-0.3-0.2-0.6-0.2-0.9v-0.1c0-0.3,0.1-0.7,0.2-0.9
	c0.1-0.3,0.3-0.5,0.6-0.6s0.5-0.2,0.9-0.2c0.3,0,0.6,0.1,0.8,0.2s0.4,0.3,0.6,0.6c0.1,0.3,0.2,0.5,0.2,0.9v0.3h-2.6
	c0,0.3,0.1,0.5,0.3,0.7s0.4,0.3,0.7,0.3s0.5-0.1,0.6-0.2s0.2-0.3,0.3-0.4l0.6,0.3c-0.1,0.1-0.2,0.3-0.3,0.4s-0.3,0.3-0.5,0.4
	C52.3,101.5,52.1,101.6,51.7,101.6z M50.8,99.4h1.9c0-0.3-0.1-0.5-0.3-0.6s-0.4-0.2-0.6-0.2c-0.3,0-0.5,0.1-0.6,0.2
	C50.9,99,50.8,99.2,50.8,99.4z M57.3,101.6c-0.3,0-0.5-0.1-0.8-0.2c-0.2-0.1-0.4-0.3-0.6-0.6c-0.1-0.3-0.2-0.6-0.2-0.9v-0.1
	c0-0.4,0.1-0.7,0.2-0.9c0.1-0.3,0.3-0.5,0.6-0.6c0.2-0.1,0.5-0.2,0.8-0.2c0.2,0,0.4,0,0.5,0.1s0.3,0.1,0.4,0.2
	c0.1,0.1,0.2,0.2,0.2,0.3h0.1v-1.9h0.7v4.7h-0.7V101h-0.1c-0.1,0.1-0.2,0.3-0.4,0.4C57.9,101.5,57.6,101.6,57.3,101.6z M57.5,100.9
	c0.3,0,0.6-0.1,0.7-0.3c0.2-0.2,0.3-0.5,0.3-0.8v-0.1c0-0.4-0.1-0.6-0.3-0.8c-0.2-0.2-0.4-0.3-0.8-0.3c-0.3,0-0.5,0.1-0.7,0.3
	c-0.2,0.2-0.3,0.5-0.3,0.8v0.1c0,0.4,0.1,0.6,0.3,0.8S57.2,100.9,57.5,100.9z M61.8,101.6c-0.3,0-0.6-0.1-0.9-0.2
	c-0.3-0.1-0.5-0.3-0.6-0.6c-0.1-0.3-0.2-0.6-0.2-0.9v-0.1c0-0.4,0.1-0.7,0.2-0.9c0.1-0.3,0.4-0.5,0.6-0.6c0.3-0.1,0.6-0.2,0.9-0.2
	s0.6,0.1,0.9,0.2c0.3,0.1,0.5,0.3,0.6,0.6c0.1,0.3,0.2,0.6,0.2,0.9v0.1c0,0.4-0.1,0.7-0.2,0.9c-0.2,0.3-0.4,0.5-0.6,0.6
	C62.4,101.5,62.1,101.6,61.8,101.6z M61.8,100.9c0.3,0,0.6-0.1,0.7-0.3c0.2-0.2,0.3-0.5,0.3-0.8v-0.1c0-0.3-0.1-0.6-0.3-0.8
	c-0.2-0.2-0.4-0.3-0.8-0.3c-0.3,0-0.6,0.1-0.7,0.3c-0.2,0.2-0.3,0.5-0.3,0.8v0.1c0,0.3,0.1,0.6,0.3,0.8
	C61.3,100.8,61.5,100.9,61.8,100.9z M66,101.6c-0.3,0-0.6-0.1-0.9-0.2s-0.5-0.3-0.6-0.6c-0.1-0.3-0.2-0.6-0.2-0.9v-0.1
	c0-0.4,0.1-0.7,0.2-0.9c0.2-0.3,0.4-0.5,0.6-0.6c0.3-0.1,0.6-0.2,0.9-0.2s0.6,0.1,0.8,0.2c0.2,0.1,0.4,0.3,0.5,0.5s0.2,0.4,0.3,0.6
	l-0.7,0.1c0-0.1-0.1-0.3-0.1-0.4c-0.1-0.1-0.2-0.2-0.3-0.3c-0.1-0.1-0.3-0.1-0.5-0.1s-0.4,0-0.5,0.1c-0.2,0.1-0.3,0.2-0.4,0.4
	C65,99.4,65,99.6,65,99.8v0.1c0,0.2,0,0.4,0.1,0.6s0.2,0.3,0.4,0.4c0.2,0.1,0.3,0.1,0.5,0.1c0.3,0,0.5-0.1,0.7-0.2
	c0.2-0.2,0.3-0.3,0.3-0.6l0.7,0.2c-0.1,0.2-0.2,0.4-0.3,0.6c-0.1,0.2-0.3,0.4-0.5,0.5C66.6,101.5,66.3,101.6,66,101.6z M69.7,101.5
	c-0.3,0-0.5-0.1-0.7-0.2s-0.4-0.3-0.5-0.5s-0.2-0.5-0.2-0.7v-2H69v2c0,0.3,0.1,0.5,0.2,0.6s0.3,0.2,0.6,0.2c0.3,0,0.5-0.1,0.7-0.3
	c0.2-0.2,0.3-0.5,0.3-0.8v-1.7h0.7v3.3h-0.7V101h-0.1c-0.1,0.1-0.2,0.3-0.3,0.4C70.3,101.5,70,101.5,69.7,101.5z M72.6,101.5v-3.3
	h0.7v0.4h0.1c0.1-0.1,0.2-0.2,0.3-0.3c0.1-0.1,0.3-0.1,0.6-0.1c0.2,0,0.4,0.1,0.6,0.2s0.3,0.2,0.3,0.4h0.1c0.1-0.2,0.2-0.3,0.3-0.4
	c0.1-0.1,0.4-0.2,0.6-0.2s0.4,0,0.6,0.1s0.3,0.2,0.4,0.4c0.1,0.2,0.2,0.4,0.2,0.6v2.2h-0.7v-2.2c0-0.2-0.1-0.4-0.2-0.5
	s-0.3-0.2-0.5-0.2s-0.4,0.1-0.5,0.2s-0.2,0.3-0.2,0.6v2h-0.7v-2.2c0-0.2-0.1-0.4-0.2-0.5s-0.3-0.2-0.5-0.2s-0.4,0.1-0.5,0.2
	s-0.2,0.3-0.2,0.6v2h-0.6V101.5z M79.9,101.6c-0.3,0-0.6-0.1-0.9-0.2s-0.5-0.3-0.6-0.6c-0.1-0.3-0.2-0.6-0.2-0.9v-0.1
	c0-0.3,0.1-0.7,0.2-0.9c0.1-0.3,0.3-0.5,0.6-0.6c0.3-0.1,0.5-0.2,0.9-0.2c0.3,0,0.6,0.1,0.8,0.2c0.2,0.1,0.4,0.3,0.6,0.6
	c0.1,0.3,0.2,0.5,0.2,0.9v0.3H79c0,0.3,0.1,0.5,0.3,0.7c0.2,0.2,0.4,0.3,0.7,0.3c0.3,0,0.5-0.1,0.6-0.2s0.2-0.3,0.3-0.4l0.6,0.3
	c-0.1,0.1-0.2,0.3-0.3,0.4c-0.1,0.1-0.3,0.3-0.5,0.4C80.5,101.5,80.2,101.6,79.9,101.6z M79,99.4h1.9c0-0.3-0.1-0.5-0.3-0.6
	c-0.2-0.1-0.4-0.2-0.6-0.2s-0.5,0.1-0.6,0.2C79.1,99,79,99.2,79,99.4z M82.4,101.5v-3.3H83v0.5h0.1c0.1-0.1,0.2-0.3,0.3-0.4
	c0.2-0.1,0.4-0.2,0.7-0.2c0.3,0,0.5,0.1,0.7,0.2s0.4,0.3,0.5,0.5s0.2,0.4,0.2,0.7v2h-0.7v-2c0-0.3-0.1-0.5-0.2-0.6s-0.3-0.2-0.6-0.2
	c-0.3,0-0.5,0.1-0.7,0.3c-0.2,0.2-0.3,0.5-0.3,0.8v1.7H82.4z M87.7,101.5c-0.2,0-0.4-0.1-0.5-0.2S87,101,87,100.8v-2.1h-0.9v-0.6H87
	V97h0.7v1.1h1v0.6h-1v2c0,0.1,0.1,0.2,0.2,0.2h0.7v0.6C88.6,101.5,87.7,101.5,87.7,101.5z M90.6,101.6c-0.2,0-0.5,0-0.6-0.1
	c-0.2-0.1-0.3-0.2-0.4-0.4c-0.1-0.2-0.2-0.4-0.2-0.6s0.1-0.4,0.2-0.6s0.3-0.3,0.5-0.3c0.2-0.1,0.4-0.1,0.7-0.1h1v-0.2
	c0-0.2-0.1-0.4-0.2-0.5s-0.3-0.2-0.5-0.2s-0.4,0.1-0.6,0.2c-0.1,0.1-0.2,0.3-0.2,0.4L89.4,99c0.1-0.2,0.1-0.3,0.3-0.5
	c0.1-0.1,0.3-0.3,0.5-0.4s0.4-0.1,0.7-0.1c0.4,0,0.8,0.1,1,0.3c0.2,0.2,0.4,0.5,0.4,0.9v1.4c0,0.1,0.1,0.2,0.2,0.2h0.3v0.6h-0.5
	c-0.2,0-0.3,0-0.4-0.1s-0.1-0.2-0.1-0.3l0,0h-0.1c0,0.1-0.1,0.1-0.2,0.2s-0.2,0.2-0.3,0.2C91,101.5,90.8,101.6,90.6,101.6z
	 M90.7,101c0.3,0,0.5-0.1,0.7-0.2c0.2-0.2,0.3-0.4,0.3-0.7V100h-1c-0.2,0-0.3,0-0.4,0.1s-0.2,0.2-0.2,0.3c0,0.2,0.1,0.3,0.2,0.4
	C90.3,100.9,90.5,101,90.7,101z M94.5,101.5c-0.2,0-0.4-0.1-0.5-0.2s-0.2-0.3-0.2-0.5v-2.1h-0.9v-0.6h0.9V97h0.7v1.1h1v0.6h-1v2
	c0,0.1,0.1,0.2,0.2,0.2h0.7v0.6C95.4,101.5,94.5,101.5,94.5,101.5z M96.3,101.5v-3.3H97v3.3H96.3z M96.7,97.7c-0.1,0-0.3,0-0.3-0.1
	c-0.1-0.1-0.1-0.2-0.1-0.3s0-0.3,0.1-0.3c0.1-0.1,0.2-0.1,0.3-0.1c0.1,0,0.3,0,0.3,0.1c0.1,0.1,0.1,0.2,0.1,0.3s0,0.3-0.1,0.3
	S96.8,97.7,96.7,97.7z M99.6,101.6c-0.3,0-0.6-0.1-0.9-0.2s-0.5-0.3-0.6-0.6c-0.1-0.3-0.2-0.6-0.2-0.9v-0.1c0-0.4,0.1-0.7,0.2-0.9
	c0.1-0.3,0.4-0.5,0.6-0.6c0.3-0.1,0.6-0.2,0.9-0.2s0.6,0.1,0.9,0.2s0.5,0.3,0.6,0.6c0.1,0.3,0.2,0.6,0.2,0.9v0.1
	c0,0.4-0.1,0.7-0.2,0.9c-0.2,0.3-0.4,0.5-0.6,0.6S100,101.6,99.6,101.6z M99.6,100.9c0.3,0,0.6-0.1,0.7-0.3c0.2-0.2,0.3-0.5,0.3-0.8
	v-0.1c0-0.3-0.1-0.6-0.3-0.8c-0.2-0.2-0.4-0.3-0.8-0.3c-0.3,0-0.6,0.1-0.7,0.3c-0.2,0.2-0.3,0.5-0.3,0.8v0.1c0,0.3,0.1,0.6,0.3,0.8
	C99.1,100.8,99.3,100.9,99.6,100.9z M102.2,101.5v-3.3h0.7v0.5h0.1c0.1-0.1,0.2-0.3,0.3-0.4c0.2-0.1,0.4-0.2,0.7-0.2
	c0.3,0,0.5,0.1,0.7,0.2s0.4,0.3,0.5,0.5s0.2,0.4,0.2,0.7v2h-0.7v-2c0-0.3-0.1-0.5-0.2-0.6s-0.3-0.2-0.6-0.2c-0.3,0-0.5,0.1-0.7,0.3
	c-0.2,0.2-0.3,0.5-0.3,0.8v1.7H102.2z M109.7,101.6c-0.3,0-0.6-0.1-0.9-0.2s-0.5-0.3-0.6-0.6c-0.1-0.3-0.2-0.6-0.2-0.9v-0.1
	c0-0.4,0.1-0.7,0.2-0.9c0.1-0.3,0.4-0.5,0.6-0.6c0.3-0.1,0.6-0.2,0.9-0.2s0.6,0.1,0.9,0.2s0.5,0.3,0.6,0.6c0.1,0.3,0.2,0.6,0.2,0.9
	v0.1c0,0.4-0.1,0.7-0.2,0.9c-0.1,0.3-0.4,0.5-0.6,0.6C110.3,101.5,110,101.6,109.7,101.6z M109.7,100.9c0.3,0,0.6-0.1,0.7-0.3
	c0.2-0.2,0.3-0.5,0.3-0.8v-0.1c0-0.3-0.1-0.6-0.3-0.8c-0.2-0.2-0.4-0.3-0.8-0.3c-0.3,0-0.6,0.1-0.7,0.3c-0.2,0.2-0.3,0.5-0.3,0.8
	v0.1c0,0.3,0.1,0.6,0.3,0.8S109.4,100.9,109.7,100.9z M112.3,101.5v-3.3h0.7v0.5h0.1c0.1-0.1,0.2-0.3,0.3-0.4
	c0.2-0.1,0.4-0.2,0.7-0.2c0.3,0,0.5,0.1,0.7,0.2s0.4,0.3,0.5,0.5s0.2,0.4,0.2,0.7v2h-0.7v-2c0-0.3-0.1-0.5-0.2-0.6s-0.3-0.2-0.6-0.2
	c-0.3,0-0.5,0.1-0.7,0.3c-0.2,0.2-0.3,0.5-0.3,0.8v1.7H112.3z M118.2,101.5v-4.7h0.7v1.9h0.1c0-0.1,0.1-0.2,0.2-0.2
	c0.1-0.1,0.2-0.1,0.3-0.2c0.1-0.1,0.3-0.1,0.5-0.1c0.3,0,0.5,0.1,0.7,0.2s0.4,0.3,0.5,0.5s0.2,0.4,0.2,0.7v2h-0.7v-2
	c0-0.3-0.1-0.5-0.2-0.6s-0.3-0.2-0.6-0.2c-0.3,0-0.5,0.1-0.7,0.3c-0.2,0.2-0.3,0.5-0.3,0.8v1.7h-0.7V101.5z M123.9,101.6
	c-0.3,0-0.6-0.1-0.9-0.2s-0.5-0.3-0.6-0.6c-0.1-0.3-0.2-0.6-0.2-0.9v-0.1c0-0.4,0.1-0.7,0.2-0.9c0.1-0.3,0.4-0.5,0.6-0.6
	c0.3-0.1,0.6-0.2,0.9-0.2s0.6,0.1,0.9,0.2s0.5,0.3,0.6,0.6c0.1,0.3,0.2,0.6,0.2,0.9v0.1c0,0.4-0.1,0.7-0.2,0.9
	c-0.1,0.3-0.4,0.5-0.6,0.6C124.6,101.5,124.3,101.6,123.9,101.6z M123.9,100.9c0.3,0,0.6-0.1,0.7-0.3c0.2-0.2,0.3-0.5,0.3-0.8v-0.1
	c0-0.3-0.1-0.6-0.3-0.8c-0.2-0.2-0.4-0.3-0.8-0.3c-0.3,0-0.6,0.1-0.7,0.3c-0.2,0.2-0.3,0.5-0.3,0.8v0.1c0,0.3,0.1,0.6,0.3,0.8
	C123.4,100.8,123.6,100.9,123.9,100.9z M126.9,101.5l-0.6-3.3h0.7l0.4,2.9h0.1l0.6-2.9h1.1l0.6,2.9h0.1l0.4-2.9h0.7l-0.6,3.3h-1.2
	l-0.6-2.9h-0.1l-0.6,2.9H126.9z M34,110.2c-0.2,0-0.4-0.1-0.5-0.2s-0.2-0.3-0.2-0.5v-2.1h-0.9v-0.6h0.9v-1.1H34v1.1h1v0.6h-1v2
	c0,0.1,0.1,0.2,0.2,0.2h0.7v0.6H34z M37.3,110.3c-0.3,0-0.6-0.1-0.9-0.2c-0.3-0.1-0.5-0.3-0.6-0.6c-0.1-0.3-0.2-0.6-0.2-0.9v-0.1
	c0-0.4,0.1-0.7,0.2-0.9c0.1-0.3,0.4-0.5,0.6-0.6c0.3-0.1,0.6-0.2,0.9-0.2c0.3,0,0.6,0.1,0.9,0.2c0.3,0.1,0.5,0.3,0.6,0.6
	c0.1,0.3,0.2,0.6,0.2,0.9v0.1c0,0.4-0.1,0.7-0.2,0.9c-0.1,0.3-0.4,0.5-0.6,0.6C37.9,110.2,37.6,110.3,37.3,110.3z M37.3,109.6
	c0.3,0,0.6-0.1,0.7-0.3c0.2-0.2,0.3-0.5,0.3-0.8v-0.1c0-0.3-0.1-0.6-0.3-0.8c-0.2-0.2-0.4-0.3-0.8-0.3c-0.3,0-0.6,0.1-0.7,0.3
	c-0.2,0.2-0.3,0.5-0.3,0.8v0.1c0,0.3,0.1,0.6,0.3,0.8S37,109.6,37.3,109.6z M42.9,110.2c-0.3,0-0.5-0.1-0.7-0.2s-0.4-0.3-0.5-0.5
	s-0.2-0.5-0.2-0.7v-2h0.7v2c0,0.3,0.1,0.5,0.2,0.6c0.1,0.1,0.3,0.2,0.6,0.2s0.5-0.1,0.7-0.3c0.2-0.2,0.3-0.5,0.3-0.8v-1.7h0.7v3.3
	H44v-0.5l0,0c-0.1,0.1-0.2,0.3-0.3,0.4C43.5,110.2,43.2,110.2,42.9,110.2z M47.1,110.3c-0.4,0-0.8-0.1-1.1-0.3
	c-0.3-0.2-0.5-0.5-0.5-0.9l0.7-0.2c0,0.2,0.1,0.3,0.2,0.4c0.1,0.1,0.2,0.2,0.3,0.2s0.3,0.1,0.4,0.1c0.2,0,0.4,0,0.5-0.1
	s0.2-0.2,0.2-0.3c0-0.1-0.1-0.2-0.2-0.3c-0.1-0.1-0.3-0.1-0.5-0.2h-0.2c-0.2,0-0.4-0.1-0.6-0.2c-0.2-0.1-0.3-0.2-0.4-0.3
	c-0.1-0.1-0.2-0.3-0.2-0.5c0-0.3,0.1-0.6,0.4-0.7c0.2-0.2,0.5-0.3,0.9-0.3s0.7,0.1,0.9,0.3c0.2,0.2,0.4,0.4,0.5,0.7l-0.7,0.2
	c0-0.2-0.1-0.3-0.3-0.4c-0.1-0.1-0.3-0.1-0.5-0.1s-0.3,0-0.4,0.1c-0.1,0.1-0.2,0.2-0.2,0.3c0,0.1,0.1,0.2,0.2,0.3
	c0.1,0.1,0.3,0.1,0.4,0.1h0.2c0.2,0,0.5,0.1,0.7,0.2s0.4,0.2,0.5,0.3c0.1,0.1,0.2,0.3,0.2,0.5c0,0.3-0.1,0.6-0.4,0.8
	C47.9,110.2,47.6,110.3,47.1,110.3z M50.9,110.3c-0.3,0-0.6-0.1-0.9-0.2c-0.3-0.1-0.5-0.3-0.6-0.6c-0.1-0.3-0.2-0.6-0.2-0.9v-0.1
	c0-0.3,0.1-0.6,0.2-0.9c0.1-0.3,0.3-0.5,0.6-0.6s0.5-0.2,0.9-0.2c0.3,0,0.6,0.1,0.8,0.2s0.4,0.3,0.6,0.6c0.1,0.3,0.2,0.5,0.2,0.9
	v0.3h-2.6c0,0.3,0.1,0.5,0.3,0.7s0.4,0.3,0.7,0.3s0.5-0.1,0.6-0.2s0.2-0.3,0.3-0.4l0.6,0.3c-0.1,0.1-0.2,0.3-0.3,0.4
	s-0.3,0.3-0.5,0.4C51.4,110.2,51.2,110.3,50.9,110.3z M49.9,108.2h1.9c0-0.3-0.1-0.4-0.3-0.6c-0.2-0.1-0.4-0.2-0.6-0.2
	c-0.3,0-0.5,0.1-0.6,0.2C50,107.7,49.9,107.9,49.9,108.2z M56.6,110.3c-0.4,0-0.7-0.1-0.9-0.2c-0.3-0.1-0.5-0.3-0.7-0.6
	c-0.2-0.2-0.2-0.5-0.2-0.9v-0.2h0.7v0.2c0,0.3,0.1,0.6,0.3,0.8c0.2,0.2,0.5,0.3,0.8,0.3s0.6-0.1,0.8-0.2s0.3-0.3,0.3-0.6
	c0-0.1,0-0.3-0.1-0.4s-0.2-0.2-0.3-0.2c-0.1-0.1-0.3-0.1-0.5-0.2l-0.3-0.1c-0.3-0.1-0.6-0.2-0.8-0.3c-0.2-0.1-0.4-0.3-0.5-0.4
	c-0.1-0.2-0.2-0.4-0.2-0.7c0-0.3,0.1-0.5,0.2-0.7c0.1-0.2,0.3-0.4,0.6-0.5c0.2-0.1,0.5-0.2,0.9-0.2s0.6,0.1,0.9,0.2
	c0.3,0.1,0.5,0.3,0.6,0.5s0.2,0.5,0.2,0.8v0.2h-0.7v-0.2c0-0.2,0-0.4-0.1-0.5s-0.2-0.2-0.3-0.3c-0.1-0.1-0.3-0.1-0.5-0.1
	c-0.3,0-0.5,0.1-0.7,0.2s-0.2,0.3-0.2,0.5c0,0.1,0,0.3,0.1,0.4s0.2,0.2,0.3,0.2c0.1,0.1,0.3,0.1,0.5,0.2l0.3,0.1
	c0.3,0.1,0.6,0.2,0.8,0.3c0.2,0.1,0.4,0.2,0.6,0.4c0.1,0.2,0.2,0.4,0.2,0.7s-0.1,0.5-0.2,0.7c-0.1,0.2-0.3,0.4-0.6,0.5
	C57.3,110.2,57,110.3,56.6,110.3z M60.4,110.2c-0.2,0-0.4-0.1-0.5-0.2s-0.2-0.3-0.2-0.5v-2.1h-0.9v-0.6h0.9v-1.1h0.7v1.1h1v0.6h-1v2
	c0,0.1,0.1,0.2,0.2,0.2h0.7v0.6H60.4z M62.3,110.2v-3.3H63v0.4h0.1c0.1-0.1,0.1-0.2,0.3-0.3c0.1-0.1,0.3-0.1,0.4-0.1h0.4v0.6h-0.4
	c-0.2,0-0.4,0.1-0.6,0.2c-0.1,0.1-0.2,0.3-0.2,0.6v2L62.3,110.2L62.3,110.2z M65.8,110.3c-0.2,0-0.5,0-0.6-0.1
	c-0.2-0.1-0.3-0.2-0.4-0.4c-0.1-0.2-0.2-0.4-0.2-0.6s0.1-0.4,0.2-0.6s0.3-0.3,0.5-0.3c0.2-0.1,0.4-0.1,0.7-0.1h1V108
	c0-0.2-0.1-0.4-0.2-0.5s-0.3-0.2-0.5-0.2s-0.4,0.1-0.5,0.2s-0.2,0.3-0.3,0.4l-0.7-0.2c0.1-0.2,0.1-0.3,0.3-0.5
	c0.1-0.1,0.3-0.3,0.5-0.4s0.4-0.1,0.7-0.1c0.4,0,0.8,0.1,1,0.3c0.2,0.2,0.4,0.5,0.4,0.9v1.4c0,0.1,0.1,0.2,0.2,0.2H68v0.6h-0.5
	c-0.2,0-0.3,0-0.4-0.1s-0.1-0.2-0.1-0.3l0,0h-0.1c0,0.1-0.1,0.1-0.2,0.2s-0.2,0.2-0.3,0.2C66.2,110.2,66.1,110.3,65.8,110.3z
	 M65.9,109.7c0.3,0,0.5-0.1,0.7-0.2c0.2-0.2,0.3-0.4,0.3-0.7v-0.1h-1c-0.2,0-0.3,0-0.4,0.1s-0.2,0.2-0.2,0.3c0,0.2,0.1,0.3,0.2,0.4
	C65.6,109.6,65.7,109.7,65.9,109.7z M68.7,111.5v-4.7h0.7v0.5h0.1c0.1-0.1,0.2-0.3,0.4-0.4c0.2-0.1,0.4-0.2,0.8-0.2
	c0.3,0,0.5,0.1,0.8,0.2c0.2,0.1,0.4,0.3,0.6,0.6c0.1,0.3,0.2,0.6,0.2,0.9v0.1c0,0.4-0.1,0.7-0.2,0.9c-0.1,0.3-0.3,0.4-0.6,0.6
	c-0.2,0.1-0.5,0.2-0.8,0.2c-0.2,0-0.4,0-0.5-0.1s-0.3-0.1-0.4-0.2s-0.2-0.2-0.2-0.3h-0.1v1.8L68.7,111.5L68.7,111.5z M70.4,109.7
	c0.3,0,0.6-0.1,0.8-0.3c0.2-0.2,0.3-0.5,0.3-0.8v-0.1c0-0.4-0.1-0.6-0.3-0.8c-0.2-0.2-0.4-0.3-0.7-0.3c-0.3,0-0.5,0.1-0.7,0.3
	c-0.2,0.2-0.3,0.5-0.3,0.8v0.1c0,0.4,0.1,0.6,0.3,0.8C69.9,109.6,70.1,109.7,70.4,109.7z M73,110.2v-3.3h0.7v3.3H73z M73.4,106.4
	c-0.1,0-0.3,0-0.3-0.1c-0.1-0.1-0.1-0.2-0.1-0.3s0-0.3,0.1-0.3c0.1-0.1,0.2-0.1,0.3-0.1c0.1,0,0.3,0,0.3,0.1
	c0.1,0.1,0.1,0.2,0.1,0.3s0,0.3-0.1,0.3C73.7,106.3,73.5,106.4,73.4,106.4z M78.3,110.3c-0.6,0-1-0.2-1.4-0.5
	c-0.3-0.3-0.5-0.8-0.5-1.4v-1.1c0-0.6,0.2-1.1,0.5-1.4s0.8-0.5,1.4-0.5s1,0.2,1.3,0.5s0.5,0.7,0.5,1.3l0,0h-0.7v-0.1
	c0-0.3-0.1-0.6-0.3-0.8c-0.2-0.2-0.4-0.3-0.8-0.3s-0.6,0.1-0.8,0.3c-0.2,0.2-0.3,0.5-0.3,0.9v1.1c0,0.4,0.1,0.7,0.3,0.9
	c0.2,0.2,0.5,0.3,0.8,0.3c0.4,0,0.6-0.1,0.8-0.3c0.2-0.2,0.3-0.5,0.3-0.8v-0.1H80v0.1c0,0.5-0.2,1-0.5,1.3
	C79.3,110.1,78.8,110.3,78.3,110.3z M80.8,110.2v-4.7h1.4l1,4.3h0.1l1-4.3h1.4v4.7H85V106h0l-1,4.2h-1.2l-1-4.2h-0.1v4.2H80.8z
	 M88.4,110.3c-0.4,0-0.7-0.1-0.9-0.2c-0.3-0.1-0.5-0.3-0.7-0.6c-0.2-0.2-0.2-0.5-0.2-0.9v-0.2h0.7v0.2c0,0.3,0.1,0.6,0.3,0.8
	c0.2,0.2,0.5,0.3,0.8,0.3s0.6-0.1,0.8-0.2c0.2-0.1,0.3-0.3,0.3-0.6c0-0.1,0-0.3-0.1-0.4s-0.2-0.2-0.3-0.2c-0.1-0.1-0.3-0.1-0.5-0.2
	l-0.3-0.1c-0.3-0.1-0.6-0.2-0.8-0.3c-0.2-0.1-0.4-0.3-0.5-0.4c-0.1-0.2-0.2-0.4-0.2-0.7c0-0.3,0.1-0.5,0.2-0.7s0.3-0.4,0.6-0.5
	c0.2-0.1,0.5-0.2,0.9-0.2s0.6,0.1,0.9,0.2s0.5,0.3,0.6,0.5s0.2,0.5,0.2,0.8v0.2h-0.7v-0.2c0-0.2,0-0.4-0.1-0.5s-0.2-0.2-0.3-0.3
	c-0.1-0.1-0.3-0.1-0.5-0.1c-0.3,0-0.5,0.1-0.7,0.2s-0.2,0.3-0.2,0.5c0,0.1,0,0.3,0.1,0.4s0.2,0.2,0.3,0.2c0.1,0.1,0.3,0.1,0.5,0.2
	l0.3,0.1c0.3,0.1,0.6,0.2,0.8,0.3c0.2,0.1,0.4,0.2,0.6,0.4c0.1,0.2,0.2,0.4,0.2,0.7s-0.1,0.5-0.2,0.7s-0.3,0.4-0.6,0.5
	C89.1,110.2,88.7,110.3,88.4,110.3z M93.3,110.2v-2.8h-0.9v-0.6h0.9v-0.7c0-0.2,0.1-0.4,0.2-0.5s0.3-0.2,0.5-0.2h0.9v0.6h-0.6
	c-0.1,0-0.2,0.1-0.2,0.2v0.6h1v0.6h-1v2.8H93.3z M97.1,110.3c-0.3,0-0.6-0.1-0.9-0.2s-0.5-0.3-0.6-0.6c-0.1-0.3-0.2-0.6-0.2-0.9
	v-0.1c0-0.4,0.1-0.7,0.2-0.9c0.1-0.3,0.4-0.5,0.6-0.6c0.3-0.1,0.6-0.2,0.9-0.2s0.6,0.1,0.9,0.2s0.5,0.3,0.6,0.6
	c0.1,0.3,0.2,0.6,0.2,0.9v0.1c0,0.4-0.1,0.7-0.2,0.9c-0.2,0.3-0.4,0.5-0.6,0.6C97.7,110.2,97.4,110.3,97.1,110.3z M97.1,109.6
	c0.3,0,0.6-0.1,0.7-0.3c0.2-0.2,0.3-0.5,0.3-0.8v-0.1c0-0.3-0.1-0.6-0.3-0.8c-0.2-0.2-0.4-0.3-0.8-0.3c-0.3,0-0.6,0.1-0.7,0.3
	c-0.2,0.2-0.3,0.5-0.3,0.8v0.1c0,0.3,0.1,0.6,0.3,0.8S96.8,109.6,97.1,109.6z M99.7,110.2v-3.3h0.7v0.4h0.1c0.1-0.1,0.1-0.2,0.3-0.3
	c0.1-0.1,0.3-0.1,0.4-0.1h0.4v0.6h-0.4c-0.2,0-0.4,0.1-0.6,0.2c-0.1,0.1-0.2,0.3-0.2,0.6v2L99.7,110.2L99.7,110.2z M105.6,110.3
	c-0.3,0-0.6-0.1-0.9-0.2s-0.5-0.3-0.6-0.6c-0.1-0.3-0.2-0.6-0.2-0.9v-0.1c0-0.4,0.1-0.7,0.2-0.9c0.2-0.3,0.4-0.5,0.6-0.6
	c0.3-0.1,0.6-0.2,0.9-0.2s0.6,0.1,0.8,0.2c0.2,0.1,0.4,0.3,0.5,0.5s0.2,0.4,0.3,0.6l-0.7,0.1c0-0.1-0.1-0.3-0.1-0.4
	c-0.1-0.1-0.2-0.2-0.3-0.3c-0.1-0.1-0.3-0.1-0.5-0.1s-0.4,0-0.5,0.1c-0.2,0.1-0.3,0.2-0.4,0.4c-0.1,0.2-0.1,0.4-0.1,0.6v0.1
	c0,0.2,0,0.4,0.1,0.6s0.2,0.3,0.4,0.4c0.2,0.1,0.3,0.1,0.5,0.1c0.3,0,0.5-0.1,0.7-0.2c0.2-0.2,0.3-0.3,0.3-0.6l0.7,0.2
	c-0.1,0.2-0.2,0.4-0.3,0.6c-0.1,0.2-0.3,0.4-0.5,0.5C106.2,110.2,105.9,110.3,105.6,110.3z M108,110.2v-4.7h0.7v4.7H108z
	 M109.8,110.2v-3.3h0.7v3.3H109.8z M110.1,106.4c-0.1,0-0.3,0-0.3-0.1c-0.1-0.1-0.1-0.2-0.1-0.3s0-0.3,0.1-0.3
	c0.1-0.1,0.2-0.1,0.3-0.1c0.1,0,0.3,0,0.3,0.1c0.1,0.1,0.1,0.2,0.1,0.3s0,0.3-0.1,0.3C110.4,106.3,110.3,106.4,110.1,106.4z
	 M113,110.3c-0.3,0-0.6-0.1-0.9-0.2s-0.5-0.3-0.6-0.6c-0.1-0.3-0.2-0.6-0.2-0.9v-0.1c0-0.3,0.1-0.6,0.2-0.9s0.3-0.5,0.6-0.6
	c0.3-0.1,0.5-0.2,0.9-0.2c0.3,0,0.6,0.1,0.8,0.2c0.2,0.1,0.4,0.3,0.6,0.6c0.1,0.3,0.2,0.5,0.2,0.9v0.3H112c0,0.3,0.1,0.5,0.3,0.7
	c0.2,0.2,0.4,0.3,0.7,0.3c0.3,0,0.5-0.1,0.6-0.2s0.2-0.3,0.3-0.4l0.6,0.3c-0.1,0.1-0.2,0.3-0.3,0.4c-0.1,0.1-0.3,0.3-0.5,0.4
	C113.6,110.2,113.3,110.3,113,110.3z M112.1,108.2h1.9c0-0.3-0.1-0.4-0.3-0.6c-0.2-0.1-0.4-0.2-0.6-0.2s-0.5,0.1-0.6,0.2
	C112.2,107.7,112.1,107.9,112.1,108.2z M115.5,110.2v-3.3h0.7v0.5h0.1c0.1-0.1,0.2-0.3,0.3-0.4c0.2-0.1,0.4-0.2,0.7-0.2
	c0.3,0,0.5,0.1,0.7,0.2s0.4,0.3,0.5,0.5s0.2,0.5,0.2,0.7v2H118v-2c0-0.3-0.1-0.5-0.2-0.6s-0.3-0.2-0.6-0.2c-0.3,0-0.5,0.1-0.7,0.3
	c-0.2,0.2-0.3,0.5-0.3,0.8v1.7H115.5z M120.8,110.2c-0.2,0-0.4-0.1-0.5-0.2s-0.2-0.3-0.2-0.5v-2.1h-0.9v-0.6h0.9v-1.1h0.7v1.1h1v0.6
	h-1v2c0,0.1,0.1,0.2,0.2,0.2h0.7v0.6H120.8z M123.1,110.3c-0.2,0-0.3-0.1-0.4-0.2s-0.2-0.2-0.2-0.4c0-0.2,0.1-0.3,0.2-0.4
	s0.2-0.2,0.4-0.2c0.2,0,0.3,0.1,0.4,0.2s0.2,0.2,0.2,0.4c0,0.2-0.1,0.3-0.2,0.4C123.3,110.2,123.2,110.3,123.1,110.3z"/>
<path class="st5" d="M196.1,82.1h-32c-3.6,0-6.5,2.9-6.5,6.5s2.9,6.5,6.5,6.5h32c3.6,0,6.5-2.9,6.5-6.5
	C202.7,85,199.7,82.1,196.1,82.1z"/>
<path d="M163.9,89h1.9v-1.9c1.1,0,1.9,0.9,1.9,1.9c0,1.1-0.9,1.9-1.9,1.9S163.9,90.1,163.9,89z M169.1,89c0,1.8-1.4,3.2-3.2,3.2
	s-3.2-1.4-3.2-3.2s1.4-3.2,3.2-3.2S169.1,87.2,169.1,89z M168.4,89c0-1.4-1.2-2.6-2.6-2.6s-2.6,1.2-2.6,2.6s1.2,2.6,2.6,2.6
	S168.4,90.5,168.4,89z M166.5,85.2v-0.7h-1.3v0.7C165.7,85.1,166,85.1,166.5,85.2z M168.7,86.4l0.4-0.4l-0.5-0.5l-0.5,0.5
	C168.3,86.1,168.5,86.2,168.7,86.4z"/>
<path d="M172.9,90.8v-0.5c0-0.3,0-0.5,0.1-0.7s0.2-0.3,0.4-0.4s0.4-0.2,0.7-0.3l0.4-0.1c0.2-0.1,0.3-0.1,0.4-0.2
	c0.1-0.1,0.2-0.2,0.3-0.3c0.1-0.1,0.1-0.2,0.1-0.4l0,0c0-0.2-0.1-0.4-0.2-0.5c-0.2-0.1-0.4-0.2-0.6-0.2c-0.3,0-0.5,0.1-0.6,0.2
	c-0.2,0.1-0.2,0.3-0.2,0.6v0.1h-0.6V88c0-0.3,0.1-0.5,0.2-0.7c0.1-0.2,0.3-0.4,0.5-0.5s0.5-0.2,0.8-0.2s0.5,0.1,0.7,0.2
	s0.4,0.3,0.5,0.4c0.1,0.2,0.2,0.4,0.2,0.7V88c0,0.3-0.1,0.5-0.2,0.7c-0.1,0.2-0.2,0.3-0.4,0.4s-0.4,0.2-0.6,0.3l-0.3,0.1
	c-0.2,0.1-0.3,0.1-0.4,0.2c-0.1,0.1-0.2,0.1-0.2,0.2s-0.1,0.2-0.1,0.3v0.1h2.3v0.5C176.1,90.8,172.9,90.8,172.9,90.8z M177.9,90.9
	c-0.3,0-0.6-0.1-0.8-0.2s-0.4-0.3-0.5-0.5s-0.2-0.4-0.2-0.7v-1.4c0-0.3,0.1-0.6,0.2-0.8c0.1-0.2,0.3-0.4,0.5-0.5s0.5-0.2,0.8-0.2
	s0.6,0.1,0.8,0.2s0.4,0.2,0.5,0.4c0.1,0.2,0.2,0.4,0.2,0.7h-0.6c0-0.2-0.1-0.4-0.2-0.5c-0.1-0.1-0.3-0.2-0.6-0.2s-0.5,0.1-0.7,0.2
	c-0.2,0.2-0.2,0.4-0.2,0.6v0.5h0.1c0.1-0.1,0.2-0.2,0.3-0.3c0.2-0.1,0.4-0.1,0.6-0.1c0.2,0,0.5,0.1,0.7,0.2s0.4,0.3,0.5,0.4
	c0.1,0.2,0.2,0.4,0.2,0.7v0.1c0,0.3-0.1,0.5-0.2,0.7c-0.1,0.2-0.3,0.4-0.5,0.5C178.5,90.8,178.2,90.9,177.9,90.9z M177.9,90.3
	c0.3,0,0.5-0.1,0.6-0.2c0.2-0.1,0.2-0.3,0.2-0.6l0,0c0-0.2,0-0.3-0.1-0.4s-0.2-0.2-0.3-0.3c-0.1-0.1-0.3-0.1-0.5-0.1s-0.3,0-0.5,0.1
	c-0.1,0.1-0.2,0.2-0.3,0.3c-0.1,0.1-0.1,0.3-0.1,0.4l0,0c0,0.2,0.1,0.4,0.2,0.6C177.4,90.3,177.7,90.3,177.9,90.3z M181.6,90.8v-4.1
	h1.2l0.9,3.6h0.1l0.9-3.6h1.2v4.1h-0.6v-3.6h-0.1l-0.9,3.6h-1.1l-0.9-3.6h-0.1v3.6H181.6z M187.6,90.9c-0.2,0-0.4,0-0.6-0.1
	c-0.2-0.1-0.3-0.2-0.4-0.3c-0.1-0.1-0.1-0.3-0.1-0.5s0-0.4,0.1-0.5s0.2-0.2,0.4-0.3c0.2-0.1,0.4-0.1,0.6-0.1h0.9v-0.2
	c0-0.2-0.1-0.3-0.2-0.4c-0.1-0.1-0.3-0.2-0.5-0.2s-0.4,0-0.5,0.1s-0.2,0.2-0.2,0.4l-0.6-0.2c0-0.2,0.1-0.3,0.2-0.4
	c0.1-0.1,0.2-0.2,0.4-0.3c0.2-0.1,0.4-0.1,0.6-0.1c0.4,0,0.7,0.1,0.9,0.3c0.2,0.2,0.3,0.5,0.3,0.8v1.2c0,0.1,0.1,0.2,0.2,0.2h0.2
	v0.5H189c-0.1,0-0.2,0-0.3-0.1s-0.1-0.2-0.1-0.3l0,0h-0.1c0,0.1-0.1,0.1-0.1,0.2c-0.1,0.1-0.2,0.1-0.3,0.2
	C187.9,90.9,187.8,90.9,187.6,90.9z M187.7,90.4c0.2,0,0.4-0.1,0.6-0.2c0.1-0.1,0.2-0.3,0.2-0.6v-0.1h-0.8c-0.2,0-0.3,0-0.4,0.1
	c-0.1,0.1-0.1,0.2-0.1,0.3s0.1,0.2,0.2,0.3C187.4,90.4,187.5,90.4,187.7,90.4z M190,90.8v-2.9h0.6v0.3h0.1c0-0.1,0.1-0.2,0.2-0.3
	c0.1-0.1,0.2-0.1,0.4-0.1h0.3v0.5h-0.4c-0.2,0-0.4,0.1-0.5,0.2s-0.2,0.3-0.2,0.5v1.7H190V90.8z M193.5,90.9c-0.3,0-0.5-0.1-0.7-0.2
	s-0.4-0.3-0.5-0.5s-0.2-0.5-0.2-0.8v-0.1c0-0.3,0.1-0.6,0.2-0.8c0.1-0.2,0.3-0.4,0.5-0.5s0.5-0.2,0.7-0.2s0.5,0.1,0.7,0.2
	s0.3,0.2,0.5,0.4c0.1,0.2,0.2,0.3,0.2,0.6l-0.6,0.1c0-0.1-0.1-0.2-0.1-0.3c-0.1-0.1-0.1-0.2-0.3-0.2s-0.3-0.1-0.4-0.1
	c-0.2,0-0.3,0-0.5,0.1c-0.1,0.1-0.2,0.2-0.3,0.3c-0.1,0.1-0.1,0.3-0.1,0.5v0.1c0,0.2,0,0.4,0.1,0.5s0.2,0.3,0.3,0.3
	c0.1,0.1,0.3,0.1,0.5,0.1c0.3,0,0.4-0.1,0.6-0.2c0.1-0.1,0.2-0.3,0.2-0.5l0.6,0.1c0,0.2-0.1,0.4-0.2,0.5c-0.1,0.2-0.3,0.3-0.5,0.4
	S193.8,90.9,193.5,90.9z M195.6,90.8v-4.1h0.6v1.6h0.1c0-0.1,0.1-0.1,0.2-0.2c0.1-0.1,0.2-0.1,0.3-0.2c0.1,0,0.3-0.1,0.5-0.1
	s0.4,0,0.6,0.1c0.2,0.1,0.3,0.2,0.4,0.4c0.1,0.2,0.1,0.4,0.1,0.6v1.7h-0.6v-1.7c0-0.2-0.1-0.4-0.2-0.5c-0.1-0.1-0.3-0.2-0.5-0.2
	s-0.4,0.1-0.6,0.2c-0.1,0.2-0.2,0.4-0.2,0.7v1.4h-0.7V90.8z"/>
<path class="st0" d="M207.5,129.8H24c-1.2,0-2.2,1-2.2,2.2v40.7c0,1.2,1,2.2,2.2,2.2h183.5c1.2,0,2.2-1,2.2-2.2V132
	C209.7,130.8,208.7,129.8,207.5,129.8z"/>
<path class="st7" d="M32.7,144.1v-4.7h0.7v2h2v-2h0.7v4.7h-0.7v-2h-2v2H32.7z M37.2,144.1v-3.3h0.7v3.3H37.2z M37.5,140.3
	c-0.1,0-0.3,0-0.3-0.1c-0.1-0.1-0.1-0.2-0.1-0.3s0-0.3,0.1-0.3c0.1-0.1,0.2-0.1,0.3-0.1s0.3,0,0.3,0.1c0.1,0.1,0.1,0.2,0.1,0.3
	s0,0.3-0.1,0.3C37.8,140.2,37.7,140.3,37.5,140.3z M38.8,142.4v-0.1c0-0.4,0.1-0.7,0.2-0.9c0.1-0.2,0.3-0.4,0.6-0.6
	c0.2-0.1,0.5-0.2,0.8-0.2s0.6,0.1,0.7,0.2c0.2,0.1,0.3,0.3,0.4,0.4h0.1v-0.5h0.7v4c0,0.2-0.1,0.4-0.2,0.5c-0.1,0.1-0.3,0.2-0.5,0.2
	h-2.2v-0.6h2c0.1,0,0.2-0.1,0.2-0.2v-1.1h-0.1c-0.1,0.1-0.1,0.2-0.2,0.3c-0.1,0.1-0.2,0.2-0.4,0.2c-0.1,0.1-0.3,0.1-0.5,0.1
	c-0.3,0-0.5-0.1-0.8-0.2c-0.2-0.1-0.4-0.3-0.6-0.6C38.8,143.1,38.8,142.8,38.8,142.4z M40.5,143.5c0.3,0,0.6-0.1,0.7-0.3
	c0.2-0.2,0.3-0.5,0.3-0.8v-0.1c0-0.3-0.1-0.6-0.3-0.8s-0.4-0.3-0.8-0.3c-0.3,0-0.5,0.1-0.7,0.3s-0.3,0.5-0.3,0.8v0.1
	c0,0.3,0.1,0.6,0.3,0.8S40.2,143.5,40.5,143.5z M43.2,144.1v-4.7h0.7v1.9H44c0-0.1,0.1-0.2,0.2-0.3c0.1-0.1,0.2-0.1,0.3-0.2
	c0.1-0.1,0.3-0.1,0.5-0.1c0.3,0,0.5,0.1,0.7,0.2c0.2,0.1,0.4,0.3,0.5,0.5s0.2,0.4,0.2,0.7v2h-0.7v-2c0-0.3-0.1-0.5-0.2-0.6
	c-0.1-0.1-0.3-0.2-0.6-0.2s-0.5,0.1-0.7,0.3s-0.3,0.5-0.3,0.8v1.7L43.2,144.1L43.2,144.1z M49.1,144.1v-4.7H51
	c0.3,0,0.5,0.1,0.8,0.2c0.2,0.1,0.4,0.3,0.5,0.5s0.2,0.5,0.2,0.8v0.1c0,0.3-0.1,0.5-0.2,0.8c-0.1,0.2-0.3,0.4-0.5,0.5
	s-0.5,0.2-0.8,0.2h-1.2v1.8h-0.7V144.1z M49.9,141.6H51c0.3,0,0.5-0.1,0.6-0.2c0.2-0.1,0.2-0.3,0.2-0.6v-0.1c0-0.2-0.1-0.4-0.2-0.6
	c-0.2-0.1-0.4-0.2-0.6-0.2h-1.1V141.6z M53.2,144.1v-3.3h0.7v0.4H54c0.1-0.1,0.1-0.2,0.3-0.3c0.1-0.1,0.3-0.1,0.4-0.1h0.4v0.6h-0.4
	c-0.2,0-0.4,0.1-0.6,0.2c-0.1,0.1-0.2,0.3-0.2,0.6v2L53.2,144.1L53.2,144.1z M55.9,144.1v-3.3h0.7v3.3H55.9z M56.2,140.3
	c-0.1,0-0.3,0-0.3-0.1c-0.1-0.1-0.1-0.2-0.1-0.3s0-0.3,0.1-0.3c0.1-0.1,0.2-0.1,0.3-0.1s0.3,0,0.3,0.1c0.1,0.1,0.1,0.2,0.1,0.3
	s0,0.3-0.1,0.3C56.5,140.2,56.3,140.3,56.2,140.3z M59.2,144.2c-0.3,0-0.6-0.1-0.9-0.2c-0.3-0.1-0.5-0.3-0.6-0.6s-0.2-0.6-0.2-0.9
	v-0.1c0-0.4,0.1-0.7,0.2-0.9c0.1-0.3,0.4-0.5,0.6-0.6c0.3-0.1,0.6-0.2,0.9-0.2c0.3,0,0.6,0.1,0.9,0.2c0.3,0.1,0.5,0.3,0.6,0.6
	s0.2,0.6,0.2,0.9v0.1c0,0.4-0.1,0.7-0.2,0.9c-0.1,0.3-0.4,0.5-0.6,0.6C59.8,144.1,59.5,144.2,59.2,144.2z M59.2,143.5
	c0.3,0,0.6-0.1,0.7-0.3c0.2-0.2,0.3-0.5,0.3-0.8v-0.1c0-0.3-0.1-0.6-0.3-0.8s-0.4-0.3-0.8-0.3c-0.3,0-0.6,0.1-0.7,0.3
	c-0.2,0.2-0.3,0.5-0.3,0.8v0.1c0,0.3,0.1,0.6,0.3,0.8C58.6,143.4,58.9,143.5,59.2,143.5z M61.8,144.1v-3.3h0.7v0.4h0.1
	c0.1-0.1,0.1-0.2,0.3-0.3c0.1-0.1,0.3-0.1,0.4-0.1h0.4v0.6h-0.4c-0.2,0-0.4,0.1-0.6,0.2c-0.1,0.1-0.2,0.3-0.2,0.6v2L61.8,144.1
	L61.8,144.1z M64.4,144.1v-3.3h0.7v3.3H64.4z M64.7,140.3c-0.1,0-0.3,0-0.3-0.1c-0.1-0.1-0.1-0.2-0.1-0.3s0-0.3,0.1-0.3
	c0.1-0.1,0.2-0.1,0.3-0.1c0.1,0,0.3,0,0.3,0.1c0.1,0.1,0.1,0.2,0.1,0.3s0,0.3-0.1,0.3C65,140.2,64.9,140.3,64.7,140.3z M67.4,144.1
	c-0.2,0-0.4-0.1-0.5-0.2c-0.1-0.1-0.2-0.3-0.2-0.5v-2.1h-0.9v-0.6h0.9v-1.1h0.7v1.1h1v0.6h-1v2c0,0.1,0.1,0.2,0.2,0.2h0.7v0.6H67.4z
	 M69.6,145.4v-0.6h1.9c0.1,0,0.2-0.1,0.2-0.2v-1h-0.1c0,0.1-0.1,0.2-0.2,0.3s-0.2,0.1-0.3,0.2c-0.1,0.1-0.3,0.1-0.5,0.1
	c-0.3,0-0.5-0.1-0.7-0.2c-0.2-0.1-0.4-0.3-0.5-0.5s-0.2-0.5-0.2-0.7v-2h0.7v2c0,0.3,0.1,0.5,0.2,0.6s0.3,0.2,0.6,0.2
	c0.3,0,0.5-0.1,0.7-0.3s0.3-0.5,0.3-0.8v-1.7h0.7v4c0,0.2-0.1,0.4-0.2,0.5s-0.3,0.2-0.5,0.2h-2.1V145.4z"/>
<path d="M33.1,156.7l-0.7-4.7h0.7l0.6,4.2h0.1l0.7-4.2h1.3l0.7,4.2h0.1l0.6-4.2H38l-0.7,4.7H36l-0.7-4.3h-0.1l-0.7,4.3H33.1z
	 M40.2,156.8c-0.3,0-0.6-0.1-0.9-0.2c-0.3-0.1-0.5-0.3-0.6-0.6s-0.2-0.6-0.2-0.9V155c0-0.4,0.1-0.7,0.2-0.9c0.1-0.3,0.4-0.5,0.6-0.6
	c0.3-0.1,0.6-0.2,0.9-0.2c0.3,0,0.6,0.1,0.9,0.2c0.3,0.1,0.5,0.3,0.6,0.6s0.2,0.6,0.2,0.9v0.1c0,0.4-0.1,0.7-0.2,0.9
	c-0.1,0.3-0.4,0.5-0.6,0.6C40.9,156.7,40.6,156.8,40.2,156.8z M40.2,156.1c0.3,0,0.6-0.1,0.7-0.3c0.2-0.2,0.3-0.5,0.3-0.8l0,0
	c0-0.3-0.1-0.6-0.3-0.8s-0.4-0.3-0.8-0.3c-0.3,0-0.6,0.1-0.7,0.3c-0.2,0.2-0.3,0.5-0.3,0.8v0.1c0,0.3,0.1,0.6,0.3,0.8
	C39.7,156,39.9,156.1,40.2,156.1z M42.8,156.7v-3.3h0.7v0.4h0.1c0.1-0.1,0.1-0.2,0.3-0.3c0.1-0.1,0.3-0.1,0.4-0.1h0.4v0.6h-0.4
	c-0.2,0-0.4,0.1-0.6,0.2c-0.1,0.1-0.2,0.3-0.2,0.6v2L42.8,156.7L42.8,156.7z M45.5,156.7V152h0.7v2.7h0.1l1.3-1.3h0.9l-1.7,1.6
	l1.7,1.7h-0.9l-1.4-1.4h-0.1v1.4H45.5z M52.5,156.8c-0.3,0-0.6-0.1-0.9-0.2c-0.3-0.1-0.5-0.3-0.6-0.6s-0.2-0.6-0.2-0.9V155
	c0-0.4,0.1-0.7,0.2-0.9c0.1-0.3,0.4-0.5,0.6-0.6c0.3-0.1,0.6-0.2,0.9-0.2c0.3,0,0.6,0.1,0.9,0.2s0.5,0.3,0.6,0.6s0.2,0.6,0.2,0.9
	v0.1c0,0.4-0.1,0.7-0.2,0.9s-0.4,0.5-0.6,0.6C53.1,156.7,52.8,156.8,52.5,156.8z M52.5,156.1c0.3,0,0.6-0.1,0.7-0.3
	c0.2-0.2,0.3-0.5,0.3-0.8l0,0c0-0.3-0.1-0.6-0.3-0.8s-0.4-0.3-0.8-0.3c-0.3,0-0.6,0.1-0.7,0.3c-0.2,0.2-0.3,0.5-0.3,0.8v0.1
	c0,0.3,0.1,0.6,0.3,0.8C51.9,156,52.2,156.1,52.5,156.1z M55.1,156.7v-3.3h0.7v0.5h0.1c0.1-0.1,0.2-0.3,0.3-0.4
	c0.2-0.1,0.4-0.2,0.7-0.2s0.5,0.1,0.7,0.2c0.2,0.1,0.4,0.3,0.5,0.5s0.2,0.4,0.2,0.7v2h-0.7v-2c0-0.3-0.1-0.5-0.2-0.6
	c-0.1-0.1-0.3-0.2-0.6-0.2s-0.5,0.1-0.7,0.3s-0.3,0.5-0.3,0.8v1.7H55.1z M61,158v-4.7h0.7v0.5h0.1c0.1-0.1,0.2-0.3,0.4-0.4
	c0.2-0.1,0.4-0.2,0.8-0.2c0.3,0,0.5,0.1,0.8,0.2c0.2,0.1,0.4,0.3,0.6,0.6c0.1,0.3,0.2,0.6,0.2,0.9v0.1c0,0.4-0.1,0.7-0.2,0.9
	c-0.1,0.3-0.3,0.4-0.6,0.6c-0.2,0.1-0.5,0.2-0.8,0.2c-0.2,0-0.4,0-0.5-0.1c-0.2-0.1-0.3-0.1-0.4-0.2c-0.1-0.1-0.2-0.2-0.2-0.3h-0.1
	v1.8L61,158L61,158z M62.7,156.1c0.3,0,0.6-0.1,0.8-0.3s0.3-0.5,0.3-0.8l0,0c0-0.4-0.1-0.6-0.3-0.8s-0.4-0.3-0.7-0.3
	s-0.5,0.1-0.7,0.3s-0.3,0.5-0.3,0.8v0.1c0,0.4,0.1,0.6,0.3,0.8C62.2,156,62.4,156.1,62.7,156.1z M65.3,156.7v-3.3H66v0.4h0.1
	c0.1-0.1,0.1-0.2,0.3-0.3c0.1-0.1,0.3-0.1,0.4-0.1h0.4v0.6h-0.4c-0.2,0-0.4,0.1-0.6,0.2c-0.1,0.1-0.2,0.3-0.2,0.6v2L65.3,156.7
	L65.3,156.7z M69.4,156.8c-0.3,0-0.6-0.1-0.9-0.2c-0.3-0.1-0.5-0.3-0.6-0.6s-0.2-0.6-0.2-0.9V155c0-0.4,0.1-0.7,0.2-0.9
	c0.1-0.3,0.4-0.5,0.6-0.6c0.3-0.1,0.6-0.2,0.9-0.2s0.6,0.1,0.9,0.2c0.3,0.1,0.5,0.3,0.6,0.6s0.2,0.6,0.2,0.9v0.1
	c0,0.4-0.1,0.7-0.2,0.9c-0.1,0.3-0.4,0.5-0.6,0.6C70,156.7,69.7,156.8,69.4,156.8z M69.4,156.1c0.3,0,0.6-0.1,0.7-0.3
	c0.2-0.2,0.3-0.5,0.3-0.8l0,0c0-0.3-0.1-0.6-0.3-0.8c-0.2-0.2-0.4-0.3-0.8-0.3c-0.3,0-0.6,0.1-0.7,0.3c-0.2,0.2-0.3,0.5-0.3,0.8v0.1
	c0,0.3,0.1,0.6,0.3,0.8C68.9,156,69.1,156.1,69.4,156.1z M72,158v-4.7h0.7v0.5h0.1c0.1-0.1,0.2-0.3,0.4-0.4c0.2-0.1,0.4-0.2,0.8-0.2
	c0.3,0,0.5,0.1,0.8,0.2c0.2,0.1,0.4,0.3,0.6,0.6c0.1,0.3,0.2,0.6,0.2,0.9v0.1c0,0.4-0.1,0.7-0.2,0.9c-0.1,0.3-0.3,0.4-0.6,0.6
	c-0.2,0.1-0.5,0.2-0.8,0.2c-0.2,0-0.4,0-0.5-0.1s-0.3-0.1-0.4-0.2c-0.1-0.1-0.2-0.2-0.2-0.3h-0.1v1.8L72,158L72,158z M73.7,156.1
	c0.3,0,0.6-0.1,0.8-0.3c0.2-0.2,0.3-0.5,0.3-0.8l0,0c0-0.4-0.1-0.6-0.3-0.8c-0.2-0.2-0.4-0.3-0.7-0.3c-0.3,0-0.5,0.1-0.7,0.3
	s-0.3,0.5-0.3,0.8v0.1c0,0.4,0.1,0.6,0.3,0.8C73.2,156,73.4,156.1,73.7,156.1z M77.9,156.8c-0.3,0-0.6-0.1-0.9-0.2
	c-0.3-0.1-0.5-0.3-0.6-0.6s-0.2-0.6-0.2-0.9V155c0-0.4,0.1-0.7,0.2-0.9c0.1-0.3,0.4-0.5,0.6-0.6c0.3-0.1,0.6-0.2,0.9-0.2
	s0.6,0.1,0.9,0.2c0.3,0.1,0.5,0.3,0.6,0.6s0.2,0.6,0.2,0.9v0.1c0,0.4-0.1,0.7-0.2,0.9s-0.4,0.5-0.6,0.6
	C78.6,156.7,78.3,156.8,77.9,156.8z M77.9,156.1c0.3,0,0.6-0.1,0.7-0.3c0.2-0.2,0.3-0.5,0.3-0.8l0,0c0-0.3-0.1-0.6-0.3-0.8
	c-0.2-0.2-0.4-0.3-0.8-0.3c-0.3,0-0.6,0.1-0.7,0.3c-0.2,0.2-0.3,0.5-0.3,0.8v0.1c0,0.3,0.1,0.6,0.3,0.8
	C77.4,156,77.6,156.1,77.9,156.1z M81.9,156.8c-0.4,0-0.8-0.1-1.1-0.3c-0.3-0.2-0.5-0.5-0.5-0.9l0.7-0.2c0,0.2,0.1,0.3,0.2,0.4
	c0.1,0.1,0.2,0.2,0.3,0.2c0.1,0,0.3,0.1,0.4,0.1c0.2,0,0.4,0,0.5-0.1s0.2-0.2,0.2-0.3s-0.1-0.2-0.2-0.3s-0.3-0.1-0.5-0.2h-0.2
	c-0.2,0-0.4-0.1-0.6-0.2c-0.2-0.1-0.3-0.2-0.4-0.3s-0.2-0.3-0.2-0.5c0-0.3,0.1-0.6,0.4-0.7c0.2-0.2,0.5-0.3,0.9-0.3s0.7,0.1,0.9,0.3
	c0.2,0.2,0.4,0.4,0.5,0.7l-0.6,0.2c0-0.2-0.1-0.3-0.3-0.4c-0.1-0.1-0.3-0.1-0.5-0.1s-0.3,0-0.4,0.1s-0.2,0.2-0.2,0.3
	s0.1,0.2,0.2,0.3s0.3,0.1,0.4,0.1H82c0.2,0,0.5,0.1,0.7,0.2c0.2,0.1,0.4,0.2,0.5,0.3s0.2,0.3,0.2,0.5c0,0.3-0.1,0.6-0.4,0.8
	C82.7,156.7,82.3,156.8,81.9,156.8z M85.1,156.8c-0.2,0-0.5,0-0.6-0.1c-0.2-0.1-0.3-0.2-0.4-0.4s-0.2-0.4-0.2-0.6
	c0-0.2,0.1-0.4,0.2-0.6c0.1-0.2,0.3-0.3,0.5-0.3c0.2-0.1,0.4-0.1,0.7-0.1h1v-0.2c0-0.2-0.1-0.3-0.2-0.5c-0.1-0.1-0.3-0.2-0.5-0.2
	s-0.4,0.1-0.5,0.2c-0.1,0.1-0.2,0.3-0.3,0.4l-0.7-0.2c0.1-0.2,0.1-0.3,0.3-0.5c0.1-0.1,0.3-0.3,0.5-0.4c0.2-0.1,0.4-0.1,0.7-0.1
	c0.4,0,0.8,0.1,1,0.3s0.4,0.5,0.4,0.9v1.4c0,0.1,0.1,0.2,0.2,0.2h0.3v0.6H87c-0.2,0-0.3,0-0.4-0.1s-0.1-0.2-0.1-0.3l0,0h-0.1
	c0,0.1-0.1,0.1-0.2,0.2c-0.1,0.1-0.2,0.2-0.3,0.2C85.5,156.7,85.3,156.8,85.1,156.8z M85.2,156.2c0.3,0,0.5-0.1,0.7-0.2
	c0.2-0.2,0.3-0.4,0.3-0.7v-0.1h-1c-0.2,0-0.3,0-0.4,0.1s-0.2,0.2-0.2,0.3c0,0.2,0.1,0.3,0.2,0.4C84.8,156.1,85,156.2,85.2,156.2z
	 M88,156.7V152h0.7v4.7H88z M92,156.7v-2.8h-0.9v-0.6H92v-0.7c0-0.2,0.1-0.4,0.2-0.5s0.3-0.2,0.5-0.2h0.9v0.6H93
	c-0.1,0-0.2,0.1-0.2,0.2v0.6h1v0.6h-1v2.8L92,156.7L92,156.7z M95.9,156.8c-0.3,0-0.6-0.1-0.9-0.2c-0.3-0.1-0.5-0.3-0.6-0.6
	s-0.2-0.6-0.2-0.9V155c0-0.4,0.1-0.7,0.2-0.9c0.1-0.3,0.4-0.5,0.6-0.6c0.3-0.1,0.6-0.2,0.9-0.2s0.6,0.1,0.9,0.2
	c0.3,0.1,0.5,0.3,0.6,0.6s0.2,0.6,0.2,0.9v0.1c0,0.4-0.1,0.7-0.2,0.9s-0.4,0.5-0.6,0.6C96.5,156.7,96.2,156.8,95.9,156.8z
	 M95.9,156.1c0.3,0,0.6-0.1,0.7-0.3c0.2-0.2,0.3-0.5,0.3-0.8l0,0c0-0.3-0.1-0.6-0.3-0.8c-0.2-0.2-0.4-0.3-0.8-0.3
	c-0.3,0-0.6,0.1-0.7,0.3c-0.2,0.2-0.3,0.5-0.3,0.8v0.1c0,0.3,0.1,0.6,0.3,0.8C95.3,156,95.5,156.1,95.9,156.1z M98.5,156.7v-3.3h0.7
	v0.4h0.1c0.1-0.1,0.1-0.2,0.3-0.3c0.1-0.1,0.3-0.1,0.4-0.1h0.4v0.6H100c-0.2,0-0.4,0.1-0.6,0.2c-0.1,0.1-0.2,0.3-0.2,0.6v2
	L98.5,156.7L98.5,156.7z M104.4,156.8c-0.4,0-0.7-0.1-0.9-0.2c-0.3-0.1-0.5-0.3-0.6-0.6c-0.2-0.2-0.2-0.5-0.2-0.9v-0.2h0.7v0.2
	c0,0.3,0.1,0.6,0.3,0.8c0.2,0.2,0.5,0.3,0.8,0.3s0.6-0.1,0.8-0.2c0.2-0.1,0.3-0.3,0.3-0.6c0-0.1,0-0.3-0.1-0.4
	c-0.1-0.1-0.2-0.2-0.3-0.2c-0.1-0.1-0.3-0.1-0.5-0.2l-0.3-0.1c-0.3-0.1-0.6-0.2-0.8-0.3c-0.2-0.1-0.4-0.3-0.5-0.4
	c-0.1-0.2-0.2-0.4-0.2-0.7s0.1-0.5,0.2-0.7s0.3-0.4,0.6-0.5c0.2-0.1,0.5-0.2,0.9-0.2s0.6,0.1,0.9,0.2c0.3,0.1,0.5,0.3,0.6,0.5
	s0.2,0.5,0.2,0.8v0.2h-0.7v-0.2c0-0.2,0-0.4-0.1-0.5s-0.2-0.2-0.3-0.3c-0.1-0.1-0.3-0.1-0.5-0.1c-0.3,0-0.5,0.1-0.7,0.2
	c-0.2,0.1-0.2,0.3-0.2,0.5c0,0.1,0,0.3,0.1,0.4c0.1,0.1,0.2,0.2,0.3,0.2c0.1,0.1,0.3,0.1,0.5,0.2l0.3,0.1c0.3,0.1,0.6,0.2,0.8,0.3
	c0.2,0.1,0.4,0.2,0.6,0.4c0.1,0.2,0.2,0.4,0.2,0.7s-0.1,0.5-0.2,0.7s-0.3,0.4-0.6,0.5C105.1,156.7,104.8,156.8,104.4,156.8z
	 M108,156.8c-0.2,0-0.5,0-0.6-0.1c-0.2-0.1-0.3-0.2-0.4-0.4s-0.2-0.4-0.2-0.6c0-0.2,0.1-0.4,0.2-0.6c0.1-0.2,0.3-0.3,0.5-0.3
	c0.2-0.1,0.4-0.1,0.7-0.1h1v-0.2c0-0.2-0.1-0.3-0.2-0.5c-0.1-0.1-0.3-0.2-0.5-0.2s-0.4,0.1-0.5,0.2c-0.1,0.1-0.2,0.3-0.3,0.4
	l-0.7-0.2c0.1-0.2,0.1-0.3,0.3-0.5c0.1-0.1,0.3-0.3,0.5-0.4c0.2-0.1,0.4-0.1,0.7-0.1c0.4,0,0.8,0.1,1,0.3s0.4,0.5,0.4,0.9v1.4
	c0,0.1,0.1,0.2,0.2,0.2h0.3v0.6h-0.5c-0.2,0-0.3,0-0.4-0.1s-0.1-0.2-0.1-0.3l0,0H109c0,0.1-0.1,0.1-0.2,0.2
	c-0.1,0.1-0.2,0.2-0.3,0.2C108.4,156.7,108.2,156.8,108,156.8z M108.1,156.2c0.3,0,0.5-0.1,0.7-0.2c0.2-0.2,0.3-0.4,0.3-0.7v-0.1h-1
	c-0.2,0-0.3,0-0.4,0.1s-0.2,0.2-0.2,0.3c0,0.2,0.1,0.3,0.2,0.4C107.7,156.1,107.9,156.2,108.1,156.2z M110.8,156.7v-3.3h0.7v0.4h0.1
	c0.1-0.1,0.2-0.2,0.3-0.3c0.1-0.1,0.3-0.1,0.6-0.1c0.2,0,0.4,0.1,0.6,0.2c0.2,0.1,0.3,0.2,0.3,0.4h0.1c0.1-0.2,0.2-0.3,0.3-0.4
	c0.1-0.1,0.4-0.2,0.6-0.2s0.4,0,0.6,0.1s0.3,0.2,0.4,0.4s0.1,0.4,0.1,0.6v2.2H115v-2.2c0-0.2-0.1-0.4-0.2-0.5s-0.3-0.2-0.5-0.2
	s-0.4,0.1-0.5,0.2c-0.1,0.1-0.2,0.3-0.2,0.6v2h-0.7v-2.2c0-0.2-0.1-0.4-0.2-0.5s-0.3-0.2-0.5-0.2s-0.4,0.1-0.5,0.2
	c-0.1,0.1-0.2,0.3-0.2,0.6v2h-0.7V156.7z M116.5,153.7v-0.4h0.2c0.2,0,0.3-0.1,0.3-0.3v-0.2h-0.1c-0.2,0-0.3,0-0.4-0.1
	s-0.2-0.2-0.2-0.4s0.1-0.3,0.2-0.4c0.1-0.1,0.2-0.1,0.4-0.1c0.2,0,0.3,0.1,0.4,0.2c0.1,0.1,0.2,0.2,0.2,0.4v0.7
	c0,0.4-0.2,0.7-0.7,0.7L116.5,153.7L116.5,153.7z M119.7,156.8c-0.4,0-0.8-0.1-1.1-0.3s-0.5-0.5-0.5-0.9l0.6-0.2
	c0,0.2,0.1,0.3,0.2,0.4c0.1,0.1,0.2,0.2,0.3,0.2c0.1,0,0.3,0.1,0.4,0.1c0.2,0,0.4,0,0.5-0.1s0.2-0.2,0.2-0.3s-0.1-0.2-0.2-0.3
	s-0.3-0.1-0.5-0.2h-0.2c-0.2,0-0.4-0.1-0.6-0.2s-0.3-0.2-0.4-0.3s-0.2-0.3-0.2-0.5c0-0.3,0.1-0.6,0.4-0.7c0.2-0.2,0.5-0.3,0.9-0.3
	s0.7,0.1,0.9,0.3c0.2,0.2,0.4,0.4,0.5,0.7l-0.7,0.2c0-0.2-0.1-0.3-0.3-0.4c-0.1-0.1-0.3-0.1-0.5-0.1s-0.3,0-0.4,0.1
	s-0.2,0.2-0.2,0.3s0.1,0.2,0.2,0.3s0.3,0.1,0.4,0.1h0.2c0.2,0,0.5,0.1,0.7,0.2c0.2,0.1,0.4,0.2,0.5,0.3s0.2,0.3,0.2,0.5
	c0,0.3-0.1,0.6-0.4,0.8C120.4,156.7,120.1,156.8,119.7,156.8z M32.7,165.4v-4.7h3v0.7h-2.3v1.4h2.1v0.7h-2.1v1.4h2.3v0.7h-3V165.4z
	 M36.5,164v-0.6h2v0.6H36.5z M41.1,165.5c-0.3,0-0.6-0.1-0.9-0.2c-0.3-0.1-0.5-0.3-0.6-0.6s-0.2-0.6-0.2-0.9v-0.1
	c0-0.4,0.1-0.7,0.2-0.9c0.2-0.3,0.4-0.5,0.6-0.6c0.3-0.1,0.6-0.2,0.9-0.2s0.6,0.1,0.8,0.2c0.2,0.1,0.4,0.3,0.5,0.5s0.2,0.4,0.3,0.6
	l-0.7,0.1c0-0.1-0.1-0.3-0.1-0.4c-0.1-0.1-0.2-0.2-0.3-0.3s-0.3-0.1-0.5-0.1s-0.4,0-0.5,0.1c-0.2,0.1-0.3,0.2-0.4,0.4
	c-0.1,0.2-0.1,0.4-0.1,0.6v0.1c0,0.2,0,0.4,0.1,0.6c0.1,0.2,0.2,0.3,0.4,0.4c0.2,0.1,0.3,0.1,0.5,0.1c0.3,0,0.5-0.1,0.7-0.2
	c0.2-0.2,0.3-0.3,0.3-0.6l0.7,0.2c-0.1,0.2-0.2,0.4-0.3,0.6c-0.1,0.2-0.3,0.4-0.5,0.5C41.7,165.4,41.4,165.5,41.1,165.5z
	 M45.1,165.5c-0.3,0-0.6-0.1-0.9-0.2c-0.3-0.1-0.5-0.3-0.6-0.6s-0.2-0.6-0.2-0.9v-0.1c0-0.4,0.1-0.7,0.2-0.9
	c0.1-0.3,0.4-0.5,0.6-0.6c0.3-0.1,0.6-0.2,0.9-0.2c0.3,0,0.6,0.1,0.9,0.2c0.3,0.1,0.5,0.3,0.6,0.6s0.2,0.6,0.2,0.9v0.1
	c0,0.4-0.1,0.7-0.2,0.9c-0.1,0.3-0.4,0.5-0.6,0.6C45.7,165.4,45.4,165.5,45.1,165.5z M45.1,164.8c0.3,0,0.6-0.1,0.7-0.3
	c0.2-0.2,0.3-0.5,0.3-0.8v-0.1c0-0.3-0.1-0.6-0.3-0.8s-0.4-0.3-0.8-0.3c-0.3,0-0.6,0.1-0.7,0.3c-0.2,0.2-0.3,0.5-0.3,0.8v0.1
	c0,0.3,0.1,0.6,0.3,0.8S44.8,164.8,45.1,164.8z M47.7,165.4V162h0.7v0.4h0.1c0.1-0.1,0.2-0.2,0.3-0.3s0.3-0.1,0.6-0.1
	c0.2,0,0.4,0.1,0.6,0.2c0.2,0.1,0.3,0.2,0.3,0.4h0.1c0.1-0.2,0.2-0.3,0.3-0.4c0.1-0.1,0.4-0.2,0.6-0.2c0.2,0,0.4,0,0.6,0.1
	c0.2,0.1,0.3,0.2,0.4,0.4c0.1,0.2,0.1,0.4,0.1,0.6v2.2h-0.7v-2.2c0-0.2-0.1-0.4-0.2-0.5c-0.1-0.1-0.3-0.2-0.5-0.2s-0.4,0.1-0.5,0.2
	c-0.1,0.1-0.2,0.3-0.2,0.6v2h-0.7V163c0-0.2-0.1-0.4-0.2-0.5c-0.1-0.1-0.3-0.2-0.5-0.2s-0.4,0.1-0.5,0.2c-0.1,0.1-0.2,0.3-0.2,0.6v2
	h-0.5V165.4z M53.5,165.4V162h0.7v0.4h0.1c0.1-0.1,0.2-0.2,0.3-0.3s0.3-0.1,0.6-0.1c0.2,0,0.4,0.1,0.6,0.2c0.2,0.1,0.3,0.2,0.3,0.4
	h0.1c0.1-0.2,0.2-0.3,0.3-0.4c0.1-0.1,0.4-0.2,0.6-0.2c0.2,0,0.4,0,0.6,0.1c0.2,0.1,0.3,0.2,0.4,0.4c0.1,0.2,0.1,0.4,0.1,0.6v2.2
	h-0.7v-2.2c0-0.2-0.1-0.4-0.2-0.5c-0.1-0.1-0.3-0.2-0.5-0.2s-0.4,0.1-0.5,0.2c-0.1,0.1-0.2,0.3-0.2,0.6v2h-0.7V163
	c0-0.2-0.1-0.4-0.2-0.5c-0.1-0.1-0.3-0.2-0.5-0.2s-0.4,0.1-0.5,0.2c-0.1,0.1-0.2,0.3-0.2,0.6v2h-0.5V165.4z M60.8,165.5
	c-0.3,0-0.6-0.1-0.9-0.2c-0.3-0.1-0.5-0.3-0.6-0.6s-0.2-0.6-0.2-0.9v-0.1c0-0.3,0.1-0.7,0.2-0.9c0.1-0.3,0.3-0.5,0.6-0.6
	s0.5-0.2,0.9-0.2c0.3,0,0.6,0.1,0.8,0.2c0.2,0.1,0.4,0.3,0.6,0.6c0.1,0.3,0.2,0.5,0.2,0.9v0.3h-2.6c0,0.3,0.1,0.5,0.3,0.7
	s0.4,0.3,0.7,0.3s0.5-0.1,0.6-0.2c0.1-0.1,0.2-0.3,0.3-0.4l0.6,0.3c-0.1,0.1-0.2,0.3-0.3,0.4c-0.1,0.1-0.3,0.3-0.5,0.4
	S61.2,165.5,60.8,165.5z M59.9,163.4h1.9c0-0.3-0.1-0.4-0.3-0.6c-0.2-0.1-0.4-0.2-0.6-0.2c-0.3,0-0.5,0.1-0.6,0.2
	C60,162.9,59.9,163.1,59.9,163.4z M63.3,165.4V162H64v0.4h0.1c0.1-0.1,0.1-0.2,0.3-0.3c0.1-0.1,0.3-0.1,0.4-0.1h0.4v0.6h-0.4
	c-0.2,0-0.4,0.1-0.6,0.2c-0.1,0.1-0.2,0.3-0.2,0.6v2H63.3z M67.3,165.5c-0.3,0-0.6-0.1-0.9-0.2c-0.3-0.1-0.5-0.3-0.6-0.6
	s-0.2-0.6-0.2-0.9v-0.1c0-0.4,0.1-0.7,0.2-0.9c0.2-0.3,0.4-0.5,0.6-0.6c0.3-0.1,0.6-0.2,0.9-0.2s0.6,0.1,0.8,0.2
	c0.2,0.1,0.4,0.3,0.5,0.5s0.2,0.4,0.3,0.6l-0.7,0.1c0-0.1-0.1-0.3-0.1-0.4c-0.1-0.1-0.2-0.2-0.3-0.3c-0.1-0.1-0.3-0.1-0.5-0.1
	s-0.4,0-0.5,0.1c-0.2,0.1-0.3,0.2-0.4,0.4s-0.1,0.4-0.1,0.6v0.1c0,0.2,0,0.4,0.1,0.6c0.1,0.2,0.2,0.3,0.4,0.4
	c0.2,0.1,0.3,0.1,0.5,0.1c0.3,0,0.5-0.1,0.7-0.2c0.2-0.2,0.3-0.3,0.3-0.6l0.7,0.2c-0.1,0.2-0.2,0.4-0.3,0.6
	c-0.1,0.2-0.3,0.4-0.5,0.5C67.9,165.4,67.7,165.5,67.3,165.5z M71.3,165.5c-0.3,0-0.6-0.1-0.9-0.2c-0.3-0.1-0.5-0.3-0.6-0.6
	s-0.2-0.6-0.2-0.9v-0.1c0-0.3,0.1-0.7,0.2-0.9c0.1-0.3,0.3-0.5,0.6-0.6c0.3-0.1,0.5-0.2,0.9-0.2c0.3,0,0.6,0.1,0.8,0.2
	c0.2,0.1,0.4,0.3,0.6,0.6c0.1,0.3,0.2,0.5,0.2,0.9v0.3h-2.6c0,0.3,0.1,0.5,0.3,0.7c0.2,0.2,0.4,0.3,0.7,0.3c0.3,0,0.5-0.1,0.6-0.2
	c0.1-0.1,0.2-0.3,0.3-0.4l0.6,0.3c-0.1,0.1-0.2,0.3-0.3,0.4c-0.1,0.1-0.3,0.3-0.5,0.4S71.6,165.5,71.3,165.5z M70.3,163.4h1.9
	c0-0.3-0.1-0.4-0.3-0.6c-0.2-0.1-0.4-0.2-0.6-0.2c-0.3,0-0.5,0.1-0.6,0.2C70.5,162.9,70.4,163.1,70.3,163.4z M75.8,165.4l-0.6-3.3
	H76l0.4,2.9h0.1l0.6-2.9h1.1l0.6,2.9h0.1l0.4-2.9H80l-0.6,3.3h-1.2l-0.6-2.9h-0.1l-0.6,2.9H75.8z M82.3,165.5
	c-0.3,0-0.6-0.1-0.9-0.2c-0.3-0.1-0.5-0.3-0.6-0.6s-0.2-0.6-0.2-0.9v-0.1c0-0.3,0.1-0.7,0.2-0.9c0.1-0.3,0.3-0.5,0.6-0.6
	c0.3-0.1,0.5-0.2,0.9-0.2c0.3,0,0.6,0.1,0.8,0.2c0.2,0.1,0.4,0.3,0.6,0.6c0.1,0.3,0.2,0.5,0.2,0.9v0.3h-2.6c0,0.3,0.1,0.5,0.3,0.7
	c0.2,0.2,0.4,0.3,0.7,0.3c0.3,0,0.5-0.1,0.6-0.2c0.1-0.1,0.2-0.3,0.3-0.4l0.6,0.3c-0.1,0.1-0.2,0.3-0.3,0.4
	c-0.1,0.1-0.3,0.3-0.5,0.4C82.9,165.4,82.6,165.5,82.3,165.5z M81.4,163.4h1.9c0-0.3-0.1-0.4-0.3-0.6c-0.2-0.1-0.4-0.2-0.6-0.2
	s-0.5,0.1-0.6,0.2C81.5,162.9,81.4,163.1,81.4,163.4z M86.7,165.5c-0.3,0-0.6-0.1-0.8-0.2c-0.2-0.1-0.3-0.2-0.4-0.4h-0.1v0.5h-0.7
	v-4.7h0.7v1.9h0.1c0.1-0.1,0.1-0.2,0.2-0.3s0.2-0.2,0.4-0.2c0.1-0.1,0.3-0.1,0.5-0.1c0.3,0,0.5,0.1,0.8,0.2c0.2,0.1,0.4,0.3,0.6,0.6
	c0.1,0.3,0.2,0.6,0.2,0.9v0.1c0,0.4-0.1,0.7-0.2,0.9c-0.1,0.3-0.3,0.4-0.6,0.6C87.2,165.4,87,165.5,86.7,165.5z M86.5,164.9
	c0.3,0,0.6-0.1,0.7-0.3c0.2-0.2,0.3-0.5,0.3-0.8v-0.1c0-0.4-0.1-0.6-0.3-0.8s-0.4-0.3-0.8-0.3c-0.3,0-0.5,0.1-0.7,0.3
	s-0.3,0.5-0.3,0.8v0.1c0,0.4,0.1,0.6,0.3,0.8C85.9,164.8,86.2,164.9,86.5,164.9z M90.5,165.5c-0.4,0-0.8-0.1-1.1-0.3
	c-0.3-0.2-0.5-0.5-0.5-0.9l0.7-0.2c0,0.2,0.1,0.3,0.2,0.4c0.1,0.1,0.2,0.2,0.3,0.2c0.1,0,0.3,0.1,0.4,0.1c0.2,0,0.4,0,0.5-0.1
	s0.2-0.2,0.2-0.3s-0.1-0.2-0.2-0.3s-0.3-0.1-0.5-0.2h-0.2c-0.2,0-0.4-0.1-0.6-0.2c-0.2-0.1-0.3-0.2-0.4-0.3s-0.2-0.3-0.2-0.5
	c0-0.3,0.1-0.6,0.4-0.7c0.2-0.2,0.5-0.3,0.9-0.3s0.7,0.1,0.9,0.3c0.2,0.2,0.4,0.4,0.5,0.7l-0.7,0.2c0-0.2-0.1-0.3-0.3-0.4
	c-0.1-0.1-0.3-0.1-0.5-0.1s-0.3,0-0.4,0.1s-0.2,0.2-0.2,0.3s0.1,0.2,0.2,0.3s0.3,0.1,0.4,0.1h0.2c0.2,0,0.5,0.1,0.7,0.2
	c0.2,0.1,0.4,0.2,0.5,0.3s0.2,0.3,0.2,0.5c0,0.3-0.1,0.6-0.4,0.8C91.2,165.4,90.9,165.5,90.5,165.5z M92.7,165.4V162h0.7v3.3
	L92.7,165.4L92.7,165.4z M93,161.6c-0.1,0-0.2,0-0.3-0.1c-0.1-0.1-0.1-0.2-0.1-0.3s0-0.3,0.1-0.3c0.1-0.1,0.2-0.1,0.3-0.1
	c0.1,0,0.3,0,0.3,0.1c0.1,0.1,0.1,0.2,0.1,0.3s0,0.3-0.1,0.3C93.3,161.5,93.2,161.6,93,161.6z M95.7,165.4c-0.2,0-0.4-0.1-0.5-0.2
	c-0.1-0.1-0.2-0.3-0.2-0.5v-2.1h-0.9V162H95v-1.1h0.7v1.1h1v0.6h-1v2c0,0.1,0.1,0.2,0.2,0.2h0.7v0.6L95.7,165.4L95.7,165.4z
	 M98.9,165.5c-0.3,0-0.6-0.1-0.9-0.2c-0.3-0.1-0.5-0.3-0.6-0.6s-0.2-0.6-0.2-0.9v-0.1c0-0.3,0.1-0.7,0.2-0.9
	c0.1-0.3,0.3-0.5,0.6-0.6c0.3-0.1,0.5-0.2,0.9-0.2c0.3,0,0.6,0.1,0.8,0.2c0.2,0.1,0.4,0.3,0.6,0.6c0.1,0.3,0.2,0.5,0.2,0.9v0.3h-2.6
	c0,0.3,0.1,0.5,0.3,0.7c0.2,0.2,0.4,0.3,0.7,0.3c0.3,0,0.5-0.1,0.6-0.2c0.1-0.1,0.2-0.3,0.3-0.4l0.6,0.3c-0.1,0.1-0.2,0.3-0.3,0.4
	c-0.1,0.1-0.3,0.3-0.5,0.4C99.5,165.4,99.2,165.5,98.9,165.5z M97.9,163.4h1.9c0-0.3-0.1-0.4-0.3-0.6c-0.2-0.1-0.4-0.2-0.6-0.2
	c-0.3,0-0.5,0.1-0.6,0.2C98.1,162.9,98,163.1,97.9,163.4z M101.7,165.5c-0.2,0-0.3-0.1-0.4-0.2c-0.1-0.1-0.2-0.2-0.2-0.4
	s0.1-0.3,0.2-0.4c0.1-0.1,0.2-0.2,0.4-0.2s0.3,0.1,0.4,0.2c0.1,0.1,0.2,0.2,0.2,0.4s-0.1,0.3-0.2,0.4S101.9,165.5,101.7,165.5z"/>
<path class="st5" d="M196.1,137.3h-32c-3.6,0-6.5,2.9-6.5,6.5s2.9,6.5,6.5,6.5h32c3.6,0,6.5-2.9,6.5-6.5
	C202.7,140.2,199.7,137.3,196.1,137.3z"/>
<path d="M163.9,144.2h1.9v-1.9c1.1,0,1.9,0.9,1.9,1.9c0,1.1-0.9,1.9-1.9,1.9S163.9,145.3,163.9,144.2z M169.1,144.2
	c0,1.8-1.4,3.2-3.2,3.2s-3.2-1.4-3.2-3.2s1.4-3.2,3.2-3.2S169.1,142.4,169.1,144.2z M168.4,144.2c0-1.4-1.2-2.6-2.6-2.6
	s-2.6,1.2-2.6,2.6c0,1.4,1.2,2.6,2.6,2.6S168.4,145.7,168.4,144.2z M166.5,140.4v-0.7h-1.3v0.7C165.7,140.3,166,140.3,166.5,140.4z
	 M168.7,141.6l0.4-0.4l-0.5-0.5l-0.5,0.5C168.3,141.3,168.5,141.4,168.7,141.6z"/>
<path d="M172.9,146v-0.5c0-0.3,0-0.5,0.1-0.7s0.2-0.3,0.4-0.4c0.2-0.1,0.4-0.2,0.7-0.3l0.4-0.1c0.2-0.1,0.3-0.1,0.4-0.2
	c0.1-0.1,0.2-0.2,0.3-0.3s0.1-0.2,0.1-0.4l0,0c0-0.2-0.1-0.4-0.2-0.5c-0.2-0.1-0.4-0.2-0.6-0.2c-0.3,0-0.5,0.1-0.6,0.2
	c-0.2,0.1-0.2,0.3-0.2,0.6v0.1h-0.6v-0.1c0-0.3,0.1-0.5,0.2-0.7c0.1-0.2,0.3-0.4,0.5-0.5s0.5-0.2,0.8-0.2s0.5,0.1,0.7,0.2
	c0.2,0.1,0.4,0.3,0.5,0.4c0.1,0.2,0.2,0.4,0.2,0.7v0.1c0,0.3-0.1,0.5-0.2,0.7c-0.1,0.2-0.2,0.3-0.4,0.4c-0.2,0.1-0.4,0.2-0.6,0.3
	l-0.3,0.1c-0.2,0.1-0.3,0.1-0.4,0.2c-0.1,0.1-0.2,0.1-0.2,0.2c0,0.1-0.1,0.2-0.1,0.3v0.1h2.3v0.5L172.9,146L172.9,146z M177.9,146.1
	c-0.3,0-0.6-0.1-0.8-0.2c-0.2-0.1-0.4-0.3-0.5-0.5s-0.2-0.4-0.2-0.7v-1.4c0-0.3,0.1-0.6,0.2-0.8c0.1-0.2,0.3-0.4,0.5-0.5
	s0.5-0.2,0.8-0.2s0.6,0.1,0.8,0.2c0.2,0.1,0.4,0.2,0.5,0.4s0.2,0.4,0.2,0.7h-0.6c0-0.2-0.1-0.4-0.2-0.5c-0.1-0.1-0.3-0.2-0.6-0.2
	s-0.5,0.1-0.7,0.2c-0.2,0.2-0.2,0.4-0.2,0.6v0.5h0.1c0.1-0.1,0.2-0.2,0.3-0.3c0.2-0.1,0.4-0.1,0.6-0.1c0.2,0,0.5,0.1,0.7,0.2
	c0.2,0.1,0.4,0.3,0.5,0.4c0.1,0.2,0.2,0.4,0.2,0.7v0.1c0,0.3-0.1,0.5-0.2,0.7c-0.1,0.2-0.3,0.4-0.5,0.5
	C178.5,146,178.2,146.1,177.9,146.1z M177.9,145.5c0.3,0,0.5-0.1,0.6-0.2c0.2-0.1,0.2-0.3,0.2-0.6l0,0c0-0.2,0-0.3-0.1-0.4
	c-0.1-0.1-0.2-0.2-0.3-0.3s-0.3-0.1-0.5-0.1s-0.3,0-0.5,0.1c-0.1,0.1-0.2,0.2-0.3,0.3s-0.1,0.3-0.1,0.4l0,0c0,0.2,0.1,0.4,0.2,0.6
	C177.4,145.5,177.7,145.5,177.9,145.5z M181.2,146l1.2-4.1h1.1l1.2,4.1H184l-0.3-1h-1.6l-0.3,1H181.2z M182.3,144.5h1.3l-0.6-2.1
	h-0.1L182.3,144.5z M185.2,147.2v-4h0.6v0.4h0.1c0.1-0.1,0.2-0.2,0.3-0.3c0.2-0.1,0.4-0.2,0.6-0.2c0.2,0,0.5,0.1,0.7,0.2
	c0.2,0.1,0.4,0.3,0.5,0.5s0.2,0.5,0.2,0.8v0.1c0,0.3-0.1,0.6-0.2,0.8c-0.1,0.2-0.3,0.4-0.5,0.5s-0.4,0.2-0.7,0.2
	c-0.2,0-0.3,0-0.5-0.1c-0.1,0-0.2-0.1-0.3-0.2c-0.1-0.1-0.1-0.1-0.2-0.2h-0.1v1.6h-0.5V147.2z M186.7,145.6c0.3,0,0.5-0.1,0.6-0.2
	c0.2-0.2,0.2-0.4,0.2-0.7v-0.1c0-0.3-0.1-0.5-0.3-0.7s-0.4-0.2-0.6-0.2c-0.3,0-0.5,0.1-0.6,0.2c-0.2,0.2-0.2,0.4-0.2,0.7v0.1
	c0,0.3,0.1,0.5,0.2,0.7C186.2,145.5,186.4,145.6,186.7,145.6z M188.9,146v-2.9h0.6v0.3h0.1c0-0.1,0.1-0.2,0.2-0.3
	c0.1-0.1,0.2-0.1,0.4-0.1h0.3v0.5h-0.4c-0.2,0-0.4,0.1-0.5,0.2c-0.1,0.1-0.2,0.3-0.2,0.5v1.7h-0.5V146z M191.2,146v-2.9h0.6v2.9
	H191.2z M191.5,142.8c-0.1,0-0.2,0-0.3-0.1s-0.1-0.2-0.1-0.3s0-0.2,0.1-0.3s0.2-0.1,0.3-0.1s0.2,0,0.3,0.1s0.1,0.2,0.1,0.3
	s0,0.2-0.1,0.3C191.7,142.7,191.6,142.8,191.5,142.8z M192.7,146v-4.1h0.6v4.1H192.7z"/>
<path class="st0" d="M207.5,185H24c-1.2,0-2.2,1-2.2,2.2v40.7c0,1.2,1,2.2,2.2,2.2h183.5c1.2,0,2.2-1,2.2-2.2v-40.7
	C209.7,186,208.7,185,207.5,185z"/>
<path class="st7" d="M32.7,199.3v-4.7h0.7v4.1h2.3v0.7h-3V199.3z M38,199.4c-0.3,0-0.6-0.1-0.9-0.2c-0.3-0.1-0.5-0.3-0.6-0.6
	s-0.2-0.6-0.2-0.9v-0.1c0-0.4,0.1-0.7,0.2-0.9c0.1-0.3,0.4-0.5,0.6-0.6c0.3-0.1,0.6-0.2,0.9-0.2c0.3,0,0.6,0.1,0.9,0.2
	c0.3,0.1,0.5,0.3,0.6,0.6s0.2,0.6,0.2,0.9v0.1c0,0.4-0.1,0.7-0.2,0.9c-0.2,0.3-0.4,0.5-0.6,0.6C38.6,199.3,38.3,199.4,38,199.4z
	 M38,198.7c0.3,0,0.6-0.1,0.7-0.3c0.2-0.2,0.3-0.5,0.3-0.8v-0.1c0-0.3-0.1-0.6-0.3-0.8s-0.4-0.3-0.8-0.3c-0.3,0-0.6,0.1-0.7,0.3
	c-0.2,0.2-0.3,0.5-0.3,0.8v0.1c0,0.3,0.1,0.6,0.3,0.8C37.4,198.6,37.7,198.7,38,198.7z M40.9,199.3l-0.6-3.3H41l0.4,2.9h0.1l0.6-2.9
	h1.1l0.6,2.9H44l0.4-2.9h0.7l-0.6,3.3h-1.2l-0.6-2.9h-0.1l-0.6,2.9H40.9z M47.6,199.3v-4.7h1.9c0.3,0,0.5,0.1,0.8,0.2
	c0.2,0.1,0.4,0.3,0.5,0.5s0.2,0.5,0.2,0.8v0.1c0,0.3-0.1,0.5-0.2,0.8c-0.1,0.2-0.3,0.4-0.5,0.5s-0.5,0.2-0.8,0.2h-1.2v1.8h-0.7
	V199.3z M48.3,196.8h1.1c0.3,0,0.5-0.1,0.6-0.2c0.2-0.1,0.2-0.3,0.2-0.6l0,0c0-0.2-0.1-0.4-0.2-0.6c-0.2-0.1-0.4-0.2-0.6-0.2h-1.1
	V196.8z M51.7,199.3V196h0.7v0.4h0.1c0.1-0.1,0.1-0.2,0.3-0.3c0.1-0.1,0.3-0.1,0.4-0.1h0.4v0.6h-0.4c-0.2,0-0.4,0.1-0.6,0.2
	c-0.1,0.1-0.2,0.3-0.2,0.6v2L51.7,199.3L51.7,199.3z M54.3,199.3V196H55v3.3H54.3z M54.7,195.5c-0.1,0-0.3,0-0.3-0.1
	c-0.1-0.1-0.1-0.2-0.1-0.3s0-0.3,0.1-0.3c0.1-0.1,0.2-0.1,0.3-0.1s0.3,0,0.3,0.1c0.1,0.1,0.1,0.2,0.1,0.3s0,0.3-0.1,0.3
	S54.8,195.5,54.7,195.5z M57.6,199.4c-0.3,0-0.6-0.1-0.9-0.2c-0.3-0.1-0.5-0.3-0.6-0.6s-0.2-0.6-0.2-0.9v-0.1c0-0.4,0.1-0.7,0.2-0.9
	c0.1-0.3,0.4-0.5,0.6-0.6c0.3-0.1,0.6-0.2,0.9-0.2c0.3,0,0.6,0.1,0.9,0.2c0.3,0.1,0.5,0.3,0.6,0.6s0.2,0.6,0.2,0.9v0.1
	c0,0.4-0.1,0.7-0.2,0.9c-0.1,0.3-0.4,0.5-0.6,0.6C58.3,199.3,58,199.4,57.6,199.4z M57.6,198.7c0.3,0,0.6-0.1,0.7-0.3
	c0.2-0.2,0.3-0.5,0.3-0.8v-0.1c0-0.3-0.1-0.6-0.3-0.8s-0.4-0.3-0.8-0.3c-0.3,0-0.6,0.1-0.7,0.3c-0.2,0.2-0.3,0.5-0.3,0.8v0.1
	c0,0.3,0.1,0.6,0.3,0.8C57.1,198.6,57.3,198.7,57.6,198.7z M60.2,199.3V196h0.7v0.4H61c0.1-0.1,0.1-0.2,0.3-0.3
	c0.1-0.1,0.3-0.1,0.4-0.1h0.4v0.6h-0.4c-0.2,0-0.4,0.1-0.6,0.2c-0.1,0.1-0.2,0.3-0.2,0.6v2L60.2,199.3L60.2,199.3z M62.9,199.3V196
	h0.7v3.3H62.9z M63.2,195.5c-0.1,0-0.3,0-0.3-0.1c-0.1-0.1-0.1-0.2-0.1-0.3s0-0.3,0.1-0.3c0.1-0.1,0.2-0.1,0.3-0.1s0.3,0,0.3,0.1
	c0.1,0.1,0.1,0.2,0.1,0.3s0,0.3-0.1,0.3C63.5,195.4,63.4,195.5,63.2,195.5z M65.9,199.3c-0.2,0-0.4-0.1-0.5-0.2
	c-0.1-0.1-0.2-0.3-0.2-0.5v-2.1h-0.9v-0.6h0.9v-1.1h0.7v1.1h1v0.6h-1v2c0,0.1,0.1,0.2,0.2,0.2h0.7v0.6H65.9z M68.1,200.6V200H70
	c0.1,0,0.2-0.1,0.2-0.2v-1H70c0,0.1-0.1,0.2-0.2,0.3s-0.2,0.1-0.3,0.2c-0.1,0.1-0.3,0.1-0.5,0.1c-0.3,0-0.5-0.1-0.7-0.2
	c-0.2-0.1-0.4-0.3-0.5-0.5s-0.2-0.5-0.2-0.7v-2h0.7v2c0,0.3,0.1,0.5,0.2,0.6s0.3,0.2,0.6,0.2c0.3,0,0.5-0.1,0.7-0.3s0.3-0.5,0.3-0.8
	V196h0.7v4c0,0.2-0.1,0.4-0.2,0.5s-0.3,0.2-0.5,0.2h-2V200.6z"/>
<path d="M34.5,212c-0.6,0-1-0.2-1.4-0.5c-0.3-0.3-0.5-0.8-0.5-1.4V209c0-0.6,0.2-1.1,0.5-1.4c0.3-0.3,0.8-0.5,1.4-0.5
	c0.6,0,1,0.2,1.3,0.5s0.5,0.7,0.5,1.3l0,0h-0.7v-0.1c0-0.3-0.1-0.6-0.3-0.8s-0.4-0.3-0.8-0.3c-0.4,0-0.6,0.1-0.8,0.3
	s-0.3,0.5-0.3,0.9v1.1c0,0.4,0.1,0.7,0.3,0.9s0.5,0.3,0.8,0.3c0.4,0,0.6-0.1,0.8-0.3s0.3-0.5,0.3-0.8V210h0.7v0.1
	c0,0.5-0.2,1-0.5,1.3C35.5,211.8,35,212,34.5,212z M37.1,211.9v-3.3h0.7v0.4h0.1c0.1-0.1,0.1-0.2,0.3-0.3c0.1-0.1,0.3-0.1,0.4-0.1
	H39v0.6h-0.4c-0.2,0-0.4,0.1-0.6,0.2c-0.1,0.1-0.2,0.3-0.2,0.6v2L37.1,211.9L37.1,211.9z M41.1,212c-0.3,0-0.6-0.1-0.9-0.2
	c-0.3-0.1-0.5-0.3-0.6-0.6s-0.2-0.6-0.2-0.9v-0.1c0-0.3,0.1-0.6,0.2-0.9c0.1-0.3,0.3-0.5,0.6-0.6s0.5-0.2,0.9-0.2
	c0.3,0,0.6,0.1,0.8,0.2c0.2,0.1,0.4,0.3,0.6,0.6c0.1,0.3,0.2,0.6,0.2,0.9v0.3h-2.6c0,0.3,0.1,0.5,0.3,0.7s0.4,0.3,0.7,0.3
	s0.5-0.1,0.6-0.2c0.1-0.1,0.2-0.3,0.3-0.4l0.6,0.3c-0.1,0.1-0.2,0.3-0.3,0.4c-0.1,0.1-0.3,0.3-0.5,0.4S41.4,212,41.1,212z
	 M40.1,209.8H42c0-0.3-0.1-0.4-0.3-0.6c-0.2-0.1-0.4-0.2-0.6-0.2c-0.3,0-0.5,0.1-0.6,0.2C40.3,209.4,40.2,209.6,40.1,209.8z
	 M44.6,212c-0.2,0-0.5,0-0.6-0.1c-0.2-0.1-0.3-0.2-0.4-0.4c-0.1-0.2-0.2-0.4-0.2-0.6c0-0.2,0.1-0.4,0.2-0.6c0.1-0.2,0.3-0.3,0.5-0.3
	c0.2-0.1,0.4-0.1,0.7-0.1h1v-0.2c0-0.2-0.1-0.4-0.2-0.5c-0.1-0.1-0.3-0.2-0.5-0.2s-0.4,0.1-0.5,0.2c-0.1,0.1-0.2,0.3-0.3,0.4
	l-0.7-0.2c0.1-0.2,0.1-0.3,0.3-0.5c0.1-0.1,0.3-0.3,0.5-0.4c0.2-0.1,0.4-0.1,0.7-0.1c0.4,0,0.8,0.1,1,0.3s0.4,0.5,0.4,0.9v1.4
	c0,0.1,0.1,0.2,0.2,0.2H47v0.6h-0.5c-0.2,0-0.3,0-0.4-0.1c-0.1-0.1-0.1-0.2-0.1-0.3l0,0h-0.1c0,0.1-0.1,0.1-0.2,0.2
	c-0.1,0.1-0.2,0.2-0.3,0.2C45,211.9,44.8,212,44.6,212z M44.7,211.4c0.3,0,0.5-0.1,0.7-0.2c0.2-0.2,0.3-0.4,0.3-0.7v-0.1h-1
	c-0.2,0-0.3,0-0.4,0.1c-0.1,0.1-0.2,0.2-0.2,0.3c0,0.2,0.1,0.3,0.2,0.4C44.3,211.3,44.5,211.4,44.7,211.4z M48.5,211.9
	c-0.2,0-0.4-0.1-0.5-0.2c-0.1-0.1-0.2-0.3-0.2-0.5v-2.1h-0.9v-0.6h0.9v-1.1h0.7v1.1h1v0.6h-1v2c0,0.1,0.1,0.2,0.2,0.2h0.7v0.6H48.5z
	 M51.7,212c-0.3,0-0.6-0.1-0.9-0.2c-0.3-0.1-0.5-0.3-0.6-0.6s-0.2-0.6-0.2-0.9v-0.1c0-0.3,0.1-0.6,0.2-0.9c0.1-0.3,0.3-0.5,0.6-0.6
	s0.5-0.2,0.9-0.2c0.3,0,0.6,0.1,0.8,0.2c0.2,0.1,0.4,0.3,0.6,0.6c0.1,0.3,0.2,0.6,0.2,0.9v0.3h-2.6c0,0.3,0.1,0.5,0.3,0.7
	s0.4,0.3,0.7,0.3s0.5-0.1,0.6-0.2c0.1-0.1,0.2-0.3,0.3-0.4l0.6,0.3c-0.1,0.1-0.2,0.3-0.3,0.4c-0.1,0.1-0.3,0.3-0.5,0.4
	C52.3,211.9,52.1,212,51.7,212z M50.8,209.8h1.9c0-0.3-0.1-0.4-0.3-0.6c-0.2-0.1-0.4-0.2-0.6-0.2c-0.3,0-0.5,0.1-0.6,0.2
	C50.9,209.4,50.8,209.6,50.8,209.8z M55.9,211.9v-4.7h2.9v0.7h-2.2v1.4h2v0.7h-2v2L55.9,211.9L55.9,211.9z M60.5,212
	c-0.2,0-0.5,0-0.6-0.1c-0.2-0.1-0.3-0.2-0.4-0.4c-0.1-0.2-0.2-0.4-0.2-0.6c0-0.2,0.1-0.4,0.2-0.6c0.1-0.2,0.3-0.3,0.5-0.3
	c0.2-0.1,0.4-0.1,0.7-0.1h1v-0.2c0-0.2-0.1-0.4-0.2-0.5c-0.1-0.1-0.3-0.2-0.5-0.2s-0.4,0.1-0.5,0.2s-0.2,0.3-0.3,0.4l-0.6-0.2
	c0.1-0.2,0.1-0.3,0.3-0.5c0.1-0.1,0.3-0.3,0.5-0.4c0.2-0.1,0.4-0.1,0.7-0.1c0.4,0,0.8,0.1,1,0.3s0.4,0.5,0.4,0.9v1.4
	c0,0.1,0.1,0.2,0.2,0.2H63v0.6h-0.5c-0.2,0-0.3,0-0.4-0.1c-0.1-0.1-0.1-0.2-0.1-0.3l0,0h-0.1c0,0.1-0.1,0.1-0.2,0.2
	c-0.1,0.1-0.2,0.2-0.3,0.2C60.9,211.9,60.8,212,60.5,212z M60.6,211.4c0.3,0,0.5-0.1,0.7-0.2c0.2-0.2,0.3-0.4,0.3-0.7v-0.1h-1
	c-0.2,0-0.3,0-0.4,0.1c-0.1,0.1-0.2,0.2-0.2,0.3c0,0.2,0.1,0.3,0.2,0.4C60.3,211.3,60.4,211.4,60.6,211.4z M64.9,212
	c-0.3,0-0.6-0.1-0.9-0.2c-0.3-0.1-0.5-0.3-0.6-0.6c-0.2-0.3-0.2-0.6-0.2-0.9v-0.1c0-0.4,0.1-0.7,0.2-0.9c0.2-0.3,0.4-0.5,0.6-0.6
	c0.3-0.1,0.6-0.2,0.9-0.2s0.6,0.1,0.8,0.2c0.2,0.1,0.4,0.3,0.5,0.5s0.2,0.4,0.3,0.6l-0.7,0.1c0-0.1-0.1-0.3-0.1-0.4
	c-0.1-0.1-0.2-0.2-0.3-0.3c-0.1-0.1-0.3-0.1-0.5-0.1s-0.4,0-0.5,0.1c-0.2,0.1-0.3,0.2-0.4,0.4s-0.1,0.4-0.1,0.6v0.1
	c0,0.2,0,0.4,0.1,0.6c0.1,0.2,0.2,0.3,0.4,0.4c0.2,0.1,0.3,0.1,0.5,0.1c0.3,0,0.5-0.1,0.7-0.2c0.2-0.2,0.2-0.3,0.3-0.6l0.7,0.2
	c-0.1,0.2-0.2,0.4-0.3,0.6c-0.1,0.2-0.3,0.4-0.5,0.5C65.5,211.9,65.2,212,64.9,212z M68.9,212c-0.3,0-0.6-0.1-0.9-0.2
	c-0.3-0.1-0.5-0.3-0.6-0.6s-0.2-0.6-0.2-0.9v-0.1c0-0.3,0.1-0.6,0.2-0.9c0.1-0.3,0.3-0.5,0.6-0.6c0.3-0.1,0.5-0.2,0.9-0.2
	c0.3,0,0.6,0.1,0.8,0.2c0.2,0.1,0.4,0.3,0.6,0.6c0.1,0.3,0.2,0.6,0.2,0.9v0.3h-2.6c0,0.3,0.1,0.5,0.3,0.7c0.2,0.2,0.4,0.3,0.7,0.3
	c0.3,0,0.5-0.1,0.6-0.2c0.1-0.1,0.2-0.3,0.3-0.4l0.6,0.3c-0.1,0.1-0.2,0.3-0.3,0.4c-0.1,0.1-0.3,0.3-0.5,0.4S69.2,212,68.9,212z
	 M67.9,209.8h1.9c0-0.3-0.1-0.4-0.3-0.6c-0.2-0.1-0.4-0.2-0.6-0.2s-0.5,0.1-0.6,0.2C68,209.4,67.9,209.6,67.9,209.8z M73.2,212
	c-0.3,0-0.6-0.1-0.8-0.2c-0.2-0.1-0.3-0.2-0.4-0.4h0v0.5h-0.7v-4.7H72v1.9h0.1c0.1-0.1,0.1-0.2,0.2-0.3s0.2-0.2,0.4-0.2
	c0.1-0.1,0.3-0.1,0.5-0.1c0.3,0,0.5,0.1,0.8,0.2c0.2,0.1,0.4,0.3,0.6,0.6c0.1,0.3,0.2,0.6,0.2,0.9v0.1c0,0.4-0.1,0.7-0.2,0.9
	c-0.1,0.3-0.3,0.4-0.6,0.6C73.8,211.9,73.5,212,73.2,212z M73,211.3c0.3,0,0.6-0.1,0.7-0.3c0.2-0.2,0.3-0.5,0.3-0.8v-0.1
	c0-0.4-0.1-0.6-0.3-0.8S73.3,209,73,209s-0.5,0.1-0.7,0.3s-0.3,0.5-0.3,0.8v0.1c0,0.4,0.1,0.6,0.3,0.8
	C72.5,211.2,72.7,211.3,73,211.3z M77.2,212c-0.3,0-0.6-0.1-0.9-0.2c-0.3-0.1-0.5-0.3-0.6-0.6c-0.2-0.3-0.2-0.6-0.2-0.9v-0.1
	c0-0.4,0.1-0.7,0.2-0.9c0.1-0.3,0.4-0.5,0.6-0.6c0.3-0.1,0.6-0.2,0.9-0.2s0.6,0.1,0.9,0.2c0.3,0.1,0.5,0.3,0.6,0.6s0.2,0.6,0.2,0.9
	v0.1c0,0.4-0.1,0.7-0.2,0.9c-0.1,0.3-0.4,0.5-0.6,0.6C77.8,211.9,77.5,212,77.2,212z M77.2,211.3c0.3,0,0.6-0.1,0.7-0.3
	c0.2-0.2,0.3-0.5,0.3-0.8v-0.1c0-0.3-0.1-0.6-0.3-0.8c-0.2-0.2-0.4-0.3-0.8-0.3c-0.3,0-0.6,0.1-0.7,0.3c-0.2,0.2-0.3,0.5-0.3,0.8
	v0.1c0,0.3,0.1,0.6,0.3,0.8S76.9,211.3,77.2,211.3z M81.4,212c-0.3,0-0.6-0.1-0.9-0.2c-0.3-0.1-0.5-0.3-0.6-0.6s-0.2-0.6-0.2-0.9
	v-0.1c0-0.4,0.1-0.7,0.2-0.9c0.1-0.3,0.4-0.5,0.6-0.6c0.3-0.1,0.6-0.2,0.9-0.2s0.6,0.1,0.9,0.2c0.3,0.1,0.5,0.3,0.6,0.6
	s0.2,0.6,0.2,0.9v0.1c0,0.4-0.1,0.7-0.2,0.9c-0.1,0.3-0.4,0.5-0.6,0.6C82,211.9,81.7,212,81.4,212z M81.4,211.3
	c0.3,0,0.6-0.1,0.7-0.3c0.2-0.2,0.3-0.5,0.3-0.8v-0.1c0-0.3-0.1-0.6-0.3-0.8c-0.2-0.2-0.4-0.3-0.8-0.3c-0.3,0-0.6,0.1-0.7,0.3
	c-0.2,0.2-0.3,0.5-0.3,0.8v0.1c0,0.3,0.1,0.6,0.3,0.8S81.1,211.3,81.4,211.3z M84,211.9v-4.7h0.7v2.7h0.1l1.3-1.3H87l-1.7,1.6
	l1.7,1.7h-0.9l-1.4-1.4h-0.1v1.4H84z M89.4,211.9v-3.3h0.7v0.4h0.1c0.1-0.1,0.2-0.2,0.3-0.3c0.1-0.1,0.3-0.1,0.6-0.1
	c0.2,0,0.4,0.1,0.6,0.2c0.2,0.1,0.3,0.2,0.3,0.4h0.1c0.1-0.2,0.2-0.3,0.3-0.4c0.1-0.1,0.4-0.2,0.6-0.2s0.4,0,0.6,0.1
	s0.3,0.2,0.4,0.4s0.1,0.4,0.1,0.6v2.2h-0.7v-2.2c0-0.2-0.1-0.4-0.2-0.5s-0.3-0.2-0.5-0.2s-0.4,0.1-0.5,0.2c-0.1,0.1-0.2,0.3-0.2,0.6
	v2h-0.7v-2.2c0-0.2-0.1-0.4-0.2-0.5s-0.3-0.2-0.5-0.2s-0.4,0.1-0.5,0.2c-0.1,0.1-0.2,0.3-0.2,0.6v2h-0.5V211.9z M96.3,212
	c-0.2,0-0.5,0-0.6-0.1c-0.2-0.1-0.3-0.2-0.4-0.4s-0.2-0.4-0.2-0.6c0-0.2,0.1-0.4,0.2-0.6c0.1-0.2,0.3-0.3,0.5-0.3
	c0.2-0.1,0.4-0.1,0.7-0.1h1v-0.2c0-0.2-0.1-0.4-0.2-0.5S97,209,96.8,209s-0.4,0.1-0.5,0.2c-0.1,0.1-0.2,0.3-0.3,0.4l-0.7-0.2
	c0.1-0.2,0.1-0.3,0.3-0.5c0.1-0.1,0.3-0.3,0.5-0.4c0.2-0.1,0.4-0.1,0.7-0.1c0.4,0,0.8,0.1,1,0.3s0.4,0.5,0.4,0.9v1.4
	c0,0.1,0.1,0.2,0.2,0.2h0.3v0.6H98c-0.2,0-0.3,0-0.4-0.1s-0.1-0.2-0.1-0.3l0,0h-0.1c0,0.1-0.1,0.1-0.2,0.2c-0.1,0.1-0.2,0.2-0.3,0.2
	C96.7,211.9,96.5,212,96.3,212z M96.4,211.4c0.3,0,0.5-0.1,0.7-0.2c0.2-0.2,0.3-0.4,0.3-0.7v-0.1h-1c-0.2,0-0.3,0-0.4,0.1
	s-0.2,0.2-0.2,0.3c0,0.2,0.1,0.3,0.2,0.4C96,211.3,96.2,211.4,96.4,211.4z M99.2,211.9v-3.3h0.7v0.4h0.1c0.1-0.1,0.1-0.2,0.3-0.3
	c0.1-0.1,0.3-0.1,0.4-0.1h0.4v0.6h-0.4c-0.2,0-0.4,0.1-0.6,0.2c-0.1,0.1-0.2,0.3-0.2,0.6v2L99.2,211.9L99.2,211.9z M101.8,211.9
	v-4.7h0.7v2.7h0.1l1.3-1.3h0.9l-1.7,1.6l1.7,1.7H104l-1.4-1.4h-0.1v1.4H101.8z M106.9,212c-0.3,0-0.6-0.1-0.9-0.2
	c-0.3-0.1-0.5-0.3-0.6-0.6s-0.2-0.6-0.2-0.9v-0.1c0-0.3,0.1-0.6,0.2-0.9c0.1-0.3,0.3-0.5,0.6-0.6c0.3-0.1,0.5-0.2,0.9-0.2
	c0.3,0,0.6,0.1,0.8,0.2c0.2,0.1,0.4,0.3,0.6,0.6c0.1,0.3,0.2,0.6,0.2,0.9v0.3h-2.6c0,0.3,0.1,0.5,0.3,0.7c0.2,0.2,0.4,0.3,0.7,0.3
	c0.3,0,0.5-0.1,0.6-0.2c0.1-0.1,0.2-0.3,0.3-0.4l0.6,0.3c-0.1,0.1-0.2,0.3-0.3,0.4c-0.1,0.1-0.3,0.3-0.5,0.4
	C107.4,211.9,107.2,212,106.9,212z M105.9,209.8h1.9c0-0.3-0.1-0.4-0.3-0.6c-0.2-0.1-0.4-0.2-0.6-0.2c-0.3,0-0.5,0.1-0.6,0.2
	C106,209.4,105.9,209.6,105.9,209.8z M110.4,211.9c-0.2,0-0.4-0.1-0.5-0.2c-0.1-0.1-0.2-0.3-0.2-0.5v-2.1h-0.9v-0.6h0.9v-1.1h0.7
	v1.1h1v0.6h-1v2c0,0.1,0.1,0.2,0.2,0.2h0.7v0.6H110.4z M112.3,211.9v-3.3h0.7v3.3H112.3z M112.6,208.1c-0.1,0-0.3,0-0.3-0.1
	c-0.1-0.1-0.1-0.2-0.1-0.3s0-0.3,0.1-0.3c0.1-0.1,0.2-0.1,0.3-0.1c0.1,0,0.3,0,0.3,0.1c0.1,0.1,0.1,0.2,0.1,0.3s0,0.3-0.1,0.3
	C112.9,208,112.8,208.1,112.6,208.1z M114,211.9v-3.3h0.7v0.5h0.1c0.1-0.1,0.2-0.3,0.3-0.4c0.2-0.1,0.4-0.2,0.7-0.2
	c0.3,0,0.5,0.1,0.7,0.2c0.2,0.1,0.4,0.3,0.5,0.5s0.2,0.5,0.2,0.7v2h-0.7v-2c0-0.3-0.1-0.5-0.2-0.6s-0.3-0.2-0.6-0.2
	c-0.3,0-0.5,0.1-0.7,0.3s-0.3,0.5-0.3,0.8v1.7H114z M118,210.2v-0.1c0-0.4,0.1-0.7,0.2-0.9s0.3-0.4,0.6-0.6c0.2-0.1,0.5-0.2,0.8-0.2
	s0.6,0.1,0.7,0.2c0.2,0.1,0.3,0.3,0.4,0.4h0.1v-0.5h0.7v4c0,0.2-0.1,0.4-0.2,0.5s-0.3,0.2-0.5,0.2h-2.2v-0.6h2
	c0.1,0,0.2-0.1,0.2-0.2v-1.1h-0.1c0,0.1-0.1,0.2-0.2,0.3s-0.2,0.2-0.4,0.2c-0.1,0.1-0.3,0.1-0.5,0.1c-0.3,0-0.5-0.1-0.8-0.2
	c-0.2-0.1-0.4-0.3-0.6-0.6C118.1,210.9,118,210.6,118,210.2z M119.8,211.3c0.3,0,0.6-0.1,0.7-0.3c0.2-0.2,0.3-0.5,0.3-0.8v-0.1
	c0-0.3-0.1-0.6-0.3-0.8c-0.2-0.2-0.4-0.3-0.8-0.3c-0.3,0-0.5,0.1-0.7,0.3s-0.3,0.5-0.3,0.8v0.1c0,0.3,0.1,0.6,0.3,0.8
	C119.2,211.2,119.5,211.3,119.8,211.3z M34.3,220.7c-0.3,0-0.6-0.1-0.9-0.2c-0.3-0.1-0.5-0.3-0.6-0.6s-0.2-0.6-0.2-0.9v-0.1
	c0-0.4,0.1-0.7,0.2-0.9c0.2-0.3,0.4-0.5,0.6-0.6c0.3-0.1,0.6-0.2,0.9-0.2s0.6,0.1,0.8,0.2c0.2,0.1,0.4,0.3,0.5,0.5s0.2,0.4,0.3,0.6
	l-0.7,0.1c0-0.1-0.1-0.3-0.1-0.4s-0.2-0.2-0.3-0.3s-0.3-0.1-0.5-0.1s-0.4,0-0.5,0.1c-0.2,0.1-0.3,0.2-0.4,0.4
	c-0.1,0.2-0.1,0.4-0.1,0.6v0.1c0,0.2,0,0.4,0.1,0.6c0.1,0.2,0.2,0.3,0.4,0.4c0.2,0.1,0.3,0.1,0.5,0.1c0.3,0,0.5-0.1,0.7-0.2
	c0.2-0.2,0.3-0.3,0.3-0.6l0.7,0.2c-0.1,0.2-0.2,0.4-0.3,0.6c-0.1,0.2-0.3,0.4-0.5,0.5C34.9,220.6,34.6,220.7,34.3,220.7z
	 M37.8,220.7c-0.2,0-0.5,0-0.6-0.1c-0.2-0.1-0.3-0.2-0.4-0.4c-0.1-0.2-0.2-0.4-0.2-0.6c0-0.2,0.1-0.4,0.2-0.6
	c0.1-0.2,0.3-0.3,0.5-0.3c0.2-0.1,0.4-0.1,0.7-0.1h1v-0.2c0-0.2-0.1-0.4-0.2-0.5c-0.1-0.1-0.3-0.2-0.5-0.2s-0.4,0.1-0.6,0.2
	c-0.1,0.1-0.2,0.3-0.2,0.4l-0.7-0.2c0.1-0.2,0.1-0.3,0.3-0.5c0.1-0.1,0.3-0.3,0.5-0.4c0.2-0.1,0.4-0.1,0.7-0.1c0.4,0,0.8,0.1,1,0.3
	s0.4,0.5,0.4,0.9v1.4c0,0.1,0.1,0.2,0.2,0.2H40v0.6h-0.5c-0.2,0-0.3,0-0.4-0.1c-0.1-0.1-0.1-0.2-0.1-0.3l0,0h-0.1
	c0,0.1-0.1,0.1-0.2,0.2c-0.1,0.1-0.2,0.2-0.3,0.2C38.2,220.6,38,220.7,37.8,220.7z M37.9,220.1c0.3,0,0.5-0.1,0.7-0.2
	c0.2-0.2,0.3-0.4,0.3-0.7v-0.1h-1c-0.2,0-0.3,0-0.4,0.1c-0.1,0.1-0.2,0.2-0.2,0.3c0,0.2,0.1,0.3,0.2,0.4
	C37.5,220,37.7,220.1,37.9,220.1z M40.7,220.6v-3.3h0.7v0.4h0.1c0.1-0.1,0.2-0.2,0.3-0.3s0.3-0.1,0.6-0.1c0.2,0,0.4,0.1,0.6,0.2
	c0.2,0.1,0.3,0.2,0.3,0.4h0.1c0.1-0.2,0.2-0.3,0.3-0.4c0.1-0.1,0.4-0.2,0.6-0.2c0.2,0,0.4,0,0.6,0.1c0.2,0.1,0.3,0.2,0.4,0.4
	c0.1,0.2,0.1,0.4,0.1,0.6v2.2h-0.7v-2.2c0-0.2-0.1-0.4-0.2-0.5c-0.1-0.1-0.3-0.2-0.5-0.2s-0.4,0.1-0.5,0.2c-0.1,0.1-0.2,0.3-0.2,0.6
	v2h-0.7v-2.2c0-0.2-0.1-0.4-0.2-0.5c-0.1-0.1-0.3-0.2-0.5-0.2s-0.4,0.1-0.5,0.2c-0.1,0.1-0.2,0.3-0.2,0.6v2h-0.5V220.6z M46.5,221.9
	v-4.7h0.7v0.5h0.1c0.1-0.1,0.2-0.3,0.4-0.4c0.2-0.1,0.4-0.2,0.8-0.2c0.3,0,0.5,0.1,0.8,0.2c0.2,0.1,0.4,0.3,0.6,0.6
	c0.1,0.3,0.2,0.6,0.2,0.9v0.1c0,0.4-0.1,0.7-0.2,0.9c-0.1,0.3-0.3,0.4-0.6,0.6c-0.2,0.1-0.5,0.2-0.8,0.2c-0.2,0-0.4,0-0.5-0.1
	s-0.3-0.1-0.4-0.2c-0.1-0.1-0.2-0.2-0.2-0.3h-0.1v1.8L46.5,221.9L46.5,221.9z M48.2,220.1c0.3,0,0.6-0.1,0.8-0.3s0.3-0.5,0.3-0.8
	v-0.1c0-0.4-0.1-0.6-0.3-0.8s-0.4-0.3-0.7-0.3s-0.5,0.1-0.7,0.3s-0.3,0.5-0.3,0.8v0.1c0,0.4,0.1,0.6,0.3,0.8
	C47.6,220,47.9,220.1,48.2,220.1z M51.8,220.7c-0.2,0-0.5,0-0.6-0.1c-0.2-0.1-0.3-0.2-0.4-0.4c-0.1-0.2-0.2-0.4-0.2-0.6
	c0-0.2,0.1-0.4,0.2-0.6c0.1-0.2,0.3-0.3,0.5-0.3c0.2-0.1,0.4-0.1,0.7-0.1h1v-0.2c0-0.2-0.1-0.4-0.2-0.5c-0.1-0.1-0.3-0.2-0.5-0.2
	s-0.4,0.1-0.5,0.2c-0.1,0.1-0.2,0.3-0.3,0.4l-0.6-0.2c0.1-0.2,0.1-0.3,0.3-0.5c0.1-0.1,0.3-0.3,0.5-0.4c0.2-0.1,0.4-0.1,0.7-0.1
	c0.4,0,0.8,0.1,1,0.3s0.4,0.5,0.4,0.9v1.4c0,0.1,0.1,0.2,0.2,0.2h0v0.6h-0.5c-0.2,0-0.3,0-0.4-0.1c-0.1-0.1-0.1-0.2-0.1-0.3l0,0
	h-0.1c0,0.1-0.1,0.1-0.2,0.2c-0.1,0.1-0.2,0.2-0.3,0.2C52.3,220.6,52.1,220.7,51.8,220.7z M51.9,220.1c0.3,0,0.5-0.1,0.7-0.2
	c0.2-0.2,0.3-0.4,0.3-0.7v-0.1h-1c-0.2,0-0.3,0-0.4,0.1c-0.1,0.1-0.2,0.2-0.2,0.3c0,0.2,0.1,0.3,0.2,0.4
	C51.6,220,51.7,220.1,51.9,220.1z M54.7,220.6v-3.3h0.7v3.3H54.7z M55.1,216.8c-0.1,0-0.2,0-0.3-0.1s-0.1-0.2-0.1-0.3s0-0.3,0.1-0.3
	c0.1-0.1,0.2-0.1,0.3-0.1s0.3,0,0.3,0.1c0.1,0.1,0.1,0.2,0.1,0.3s0,0.3-0.1,0.3S55.2,216.8,55.1,216.8z M56.3,218.9v-0.1
	c0-0.4,0.1-0.7,0.2-0.9c0.1-0.2,0.3-0.4,0.6-0.6c0.2-0.1,0.5-0.2,0.8-0.2s0.6,0.1,0.7,0.2c0.2,0.1,0.3,0.3,0.4,0.4h0.1v-0.5h0.7v4
	c0,0.2-0.1,0.4-0.2,0.5c-0.1,0.1-0.3,0.2-0.5,0.2h-2.2v-0.6h2c0.1,0,0.2-0.1,0.2-0.2V220H59c-0.1,0.1-0.1,0.2-0.2,0.2
	c-0.1,0.1-0.2,0.2-0.4,0.2c-0.1,0.1-0.3,0.1-0.5,0.1c-0.3,0-0.5-0.1-0.8-0.2c-0.2-0.1-0.4-0.3-0.6-0.6
	C56.4,219.6,56.3,219.3,56.3,218.9z M58,220c0.3,0,0.6-0.1,0.7-0.3c0.2-0.2,0.3-0.5,0.3-0.8v-0.1c0-0.3-0.1-0.6-0.3-0.8
	s-0.4-0.3-0.8-0.3c-0.3,0-0.5,0.1-0.7,0.3s-0.3,0.5-0.3,0.8v0.1c0,0.3,0.1,0.6,0.3,0.8C57.5,219.9,57.7,220,58,220z M60.8,220.6
	v-3.3h0.7v0.5h0.1c0.1-0.1,0.2-0.3,0.3-0.4c0.2-0.1,0.4-0.2,0.7-0.2s0.5,0.1,0.7,0.2c0.2,0.1,0.4,0.3,0.5,0.5s0.2,0.5,0.2,0.7v2
	h-0.7v-2c0-0.3-0.1-0.5-0.2-0.6c-0.1-0.1-0.3-0.2-0.6-0.2s-0.5,0.1-0.7,0.3s-0.3,0.5-0.3,0.8v1.7H60.8z M67.3,220.6v-2.8h-0.9v-0.6
	h0.9v-0.7c0-0.2,0.1-0.4,0.2-0.5s0.3-0.2,0.5-0.2h0.9v0.6h-0.6c-0.1,0-0.2,0.1-0.2,0.2v0.6h1v0.6h-1v2.8L67.3,220.6L67.3,220.6z
	 M71.1,220.7c-0.3,0-0.6-0.1-0.9-0.2c-0.3-0.1-0.5-0.3-0.6-0.6s-0.2-0.6-0.2-0.9v-0.1c0-0.4,0.1-0.7,0.2-0.9
	c0.1-0.3,0.4-0.5,0.6-0.6c0.3-0.1,0.6-0.2,0.9-0.2s0.6,0.1,0.9,0.2c0.3,0.1,0.5,0.3,0.6,0.6c0.2,0.3,0.2,0.6,0.2,0.9v0.1
	c0,0.4-0.1,0.7-0.2,0.9c-0.1,0.3-0.4,0.5-0.6,0.6C71.7,220.6,71.4,220.7,71.1,220.7z M71.1,220c0.3,0,0.6-0.1,0.7-0.3
	c0.2-0.2,0.3-0.5,0.3-0.8v-0.1c0-0.3-0.1-0.6-0.3-0.8c-0.2-0.2-0.4-0.3-0.8-0.3c-0.3,0-0.6,0.1-0.7,0.3c-0.2,0.2-0.3,0.5-0.3,0.8
	v0.1c0,0.3,0.1,0.6,0.3,0.8C70.6,219.9,70.8,220,71.1,220z M73.7,220.6v-3.3h0.7v0.4h0.1c0.1-0.1,0.1-0.2,0.3-0.3
	c0.1-0.1,0.3-0.1,0.4-0.1h0.4v0.6h-0.4c-0.2,0-0.4,0.1-0.6,0.2c-0.1,0.1-0.2,0.3-0.2,0.6v2L73.7,220.6L73.7,220.6z M78.1,221.9v-4.7
	h0.7v0.5h0.1c0.1-0.1,0.2-0.3,0.4-0.4c0.2-0.1,0.4-0.2,0.8-0.2c0.3,0,0.5,0.1,0.8,0.2c0.2,0.1,0.4,0.3,0.6,0.6
	c0.1,0.3,0.2,0.6,0.2,0.9v0.1c0,0.4-0.1,0.7-0.2,0.9c-0.1,0.3-0.3,0.4-0.6,0.6c-0.2,0.1-0.5,0.2-0.8,0.2c-0.2,0-0.4,0-0.5-0.1
	s-0.3-0.1-0.4-0.2c-0.1-0.1-0.2-0.2-0.2-0.3h-0.1v1.8L78.1,221.9L78.1,221.9z M79.8,220.1c0.3,0,0.6-0.1,0.8-0.3
	c0.2-0.2,0.3-0.5,0.3-0.8v-0.1c0-0.4-0.1-0.6-0.3-0.8c-0.2-0.2-0.4-0.3-0.7-0.3c-0.3,0-0.5,0.1-0.7,0.3s-0.3,0.5-0.3,0.8v0.1
	c0,0.4,0.1,0.6,0.3,0.8C79.2,220,79.5,220.1,79.8,220.1z M83.9,220.7c-0.3,0-0.6-0.1-0.9-0.2c-0.3-0.1-0.5-0.3-0.6-0.6
	s-0.2-0.6-0.2-0.9v-0.1c0-0.3,0.1-0.7,0.2-0.9c0.1-0.3,0.3-0.5,0.6-0.6c0.3-0.1,0.5-0.2,0.9-0.2c0.3,0,0.6,0.1,0.8,0.2
	c0.2,0.1,0.4,0.3,0.6,0.6c0.1,0.3,0.2,0.5,0.2,0.9v0.3h-2.6c0,0.3,0.1,0.5,0.3,0.7c0.2,0.2,0.4,0.3,0.7,0.3c0.3,0,0.5-0.1,0.6-0.2
	c0.1-0.1,0.2-0.3,0.3-0.4l0.6,0.3c-0.1,0.1-0.2,0.3-0.3,0.4c-0.1,0.1-0.3,0.3-0.5,0.4S84.2,220.7,83.9,220.7z M83,218.6h1.9
	c0-0.3-0.1-0.5-0.3-0.6c-0.2-0.1-0.4-0.2-0.6-0.2c-0.3,0-0.5,0.1-0.6,0.2C83.1,218.1,83,218.3,83,218.6z M86.4,220.6v-3.3H87v0.4
	h0.1c0.1-0.1,0.1-0.2,0.3-0.3c0.1-0.1,0.3-0.1,0.4-0.1h0.4v0.6h-0.4c-0.2,0-0.4,0.1-0.6,0.2c-0.1,0.1-0.2,0.3-0.2,0.6v2L86.4,220.6
	L86.4,220.6z M90.3,220.7c-0.4,0-0.8-0.1-1.1-0.3c-0.3-0.2-0.5-0.5-0.5-0.9l0.7-0.2c0,0.2,0.1,0.3,0.2,0.4c0.1,0.1,0.2,0.2,0.3,0.2
	c0.1,0,0.3,0.1,0.4,0.1c0.2,0,0.4,0,0.5-0.1s0.2-0.2,0.2-0.3s-0.1-0.2-0.2-0.3s-0.3-0.1-0.5-0.2h-0.2c-0.2,0-0.4-0.1-0.6-0.2
	s-0.3-0.2-0.4-0.3s-0.2-0.3-0.2-0.5c0-0.3,0.1-0.6,0.4-0.7c0.2-0.2,0.5-0.3,0.9-0.3s0.7,0.1,0.9,0.3c0.2,0.2,0.4,0.4,0.5,0.7
	l-0.7,0.2c0-0.2-0.1-0.3-0.3-0.4c-0.1-0.1-0.3-0.1-0.5-0.1s-0.3,0-0.4,0.1s-0.2,0.2-0.2,0.3s0.1,0.2,0.2,0.3s0.3,0.1,0.4,0.1h0.2
	c0.2,0,0.5,0.1,0.7,0.2c0.2,0.1,0.4,0.2,0.5,0.3s0.2,0.3,0.2,0.5c0,0.3-0.1,0.6-0.4,0.8S90.7,220.7,90.3,220.7z M94,220.7
	c-0.3,0-0.6-0.1-0.9-0.2c-0.3-0.1-0.5-0.3-0.6-0.6s-0.2-0.6-0.2-0.9v-0.1c0-0.4,0.1-0.7,0.2-0.9c0.1-0.3,0.4-0.5,0.6-0.6
	c0.3-0.1,0.6-0.2,0.9-0.2s0.6,0.1,0.9,0.2c0.3,0.1,0.5,0.3,0.6,0.6s0.2,0.6,0.2,0.9v0.1c0,0.4-0.1,0.7-0.2,0.9
	c-0.1,0.3-0.4,0.5-0.6,0.6C94.7,220.6,94.4,220.7,94,220.7z M94,220c0.3,0,0.6-0.1,0.7-0.3c0.2-0.2,0.3-0.5,0.3-0.8v-0.1
	c0-0.3-0.1-0.6-0.3-0.8c-0.2-0.2-0.4-0.3-0.8-0.3c-0.3,0-0.6,0.1-0.7,0.3c-0.2,0.2-0.3,0.5-0.3,0.8v0.1c0,0.3,0.1,0.6,0.3,0.8
	C93.5,219.9,93.7,220,94,220z M96.6,220.6v-3.3h0.7v0.5h0.1c0.1-0.1,0.2-0.3,0.3-0.4c0.2-0.1,0.4-0.2,0.7-0.2c0.3,0,0.5,0.1,0.7,0.2
	c0.2,0.1,0.4,0.3,0.5,0.5s0.2,0.5,0.2,0.7v2h-0.7v-2c0-0.3-0.1-0.5-0.2-0.6s-0.3-0.2-0.6-0.2c-0.3,0-0.5,0.1-0.7,0.3
	s-0.3,0.5-0.3,0.8v1.7H96.6z M101.8,220.7c-0.2,0-0.5,0-0.6-0.1c-0.2-0.1-0.3-0.2-0.4-0.4s-0.2-0.4-0.2-0.6c0-0.2,0.1-0.4,0.2-0.6
	c0.1-0.2,0.3-0.3,0.5-0.3c0.2-0.1,0.4-0.1,0.7-0.1h1v-0.2c0-0.2-0.1-0.4-0.2-0.5s-0.3-0.2-0.5-0.2s-0.4,0.1-0.5,0.2
	c-0.1,0.1-0.2,0.3-0.3,0.4l-0.7-0.2c0.1-0.2,0.1-0.3,0.3-0.5c0.1-0.1,0.3-0.3,0.5-0.4c0.2-0.1,0.4-0.1,0.7-0.1c0.4,0,0.8,0.1,1,0.3
	s0.4,0.5,0.4,0.9v1.4c0,0.1,0.1,0.2,0.2,0.2h0.3v0.6h-0.5c-0.2,0-0.3,0-0.4-0.1s-0.1-0.2-0.1-0.3l0,0h-0.1c0,0.1-0.1,0.1-0.2,0.2
	c-0.1,0.1-0.2,0.2-0.3,0.2C102.3,220.6,102.1,220.7,101.8,220.7z M102,220.1c0.3,0,0.5-0.1,0.7-0.2c0.2-0.2,0.3-0.4,0.3-0.7v-0.1h-1
	c-0.2,0-0.3,0-0.4,0.1s-0.2,0.2-0.2,0.3c0,0.2,0.1,0.3,0.2,0.4C101.6,220,101.7,220.1,102,220.1z M104.7,220.6v-4.7h0.7v4.7H104.7z
	 M110.1,220.7c-0.3,0-0.6-0.1-0.8-0.2c-0.2-0.1-0.3-0.2-0.4-0.4h-0.1v0.5h-0.7v-4.7h0.7v1.9h0.1c0.1-0.1,0.1-0.2,0.2-0.3
	s0.2-0.2,0.4-0.2c0.1-0.1,0.3-0.1,0.5-0.1c0.3,0,0.5,0.1,0.8,0.2c0.2,0.1,0.4,0.3,0.6,0.6c0.1,0.3,0.2,0.6,0.2,0.9v0.1
	c0,0.4-0.1,0.7-0.2,0.9c-0.1,0.3-0.3,0.4-0.6,0.6C110.7,220.6,110.4,220.7,110.1,220.7z M109.9,220.1c0.3,0,0.6-0.1,0.7-0.3
	c0.2-0.2,0.3-0.5,0.3-0.8v-0.1c0-0.4-0.1-0.6-0.3-0.8c-0.2-0.2-0.4-0.3-0.8-0.3c-0.3,0-0.5,0.1-0.7,0.3s-0.3,0.5-0.3,0.8v0.1
	c0,0.4,0.1,0.6,0.3,0.8C109.4,220,109.6,220.1,109.9,220.1z M112.5,220.6v-3.3h0.7v0.4h0.1c0.1-0.1,0.1-0.2,0.3-0.3
	c0.1-0.1,0.3-0.1,0.4-0.1h0.4v0.6H114c-0.2,0-0.4,0.1-0.6,0.2c-0.1,0.1-0.2,0.3-0.2,0.6v2L112.5,220.6L112.5,220.6z M116.1,220.7
	c-0.2,0-0.5,0-0.6-0.1c-0.2-0.1-0.3-0.2-0.4-0.4s-0.2-0.4-0.2-0.6c0-0.2,0.1-0.4,0.2-0.6c0.1-0.2,0.3-0.3,0.5-0.3
	c0.2-0.1,0.4-0.1,0.7-0.1h1v-0.2c0-0.2-0.1-0.4-0.2-0.5s-0.3-0.2-0.5-0.2s-0.4,0.1-0.5,0.2c-0.1,0.1-0.2,0.3-0.3,0.4l-0.7-0.2
	c0.1-0.2,0.1-0.3,0.3-0.5c0.1-0.1,0.3-0.3,0.5-0.4c0.2-0.1,0.4-0.1,0.7-0.1c0.4,0,0.8,0.1,1,0.3s0.4,0.5,0.4,0.9v1.4
	c0,0.1,0.1,0.2,0.2,0.2h0.3v0.6H118c-0.2,0-0.3,0-0.4-0.1s-0.1-0.2-0.1-0.3l0,0h-0.1c0,0.1-0.1,0.1-0.2,0.2
	c-0.1,0.1-0.2,0.2-0.3,0.2C116.5,220.6,116.3,220.7,116.1,220.7z M116.2,220.1c0.3,0,0.5-0.1,0.7-0.2c0.2-0.2,0.3-0.4,0.3-0.7v-0.1
	h-1c-0.2,0-0.3,0-0.4,0.1s-0.2,0.2-0.2,0.3c0,0.2,0.1,0.3,0.2,0.4C115.8,220,116,220.1,116.2,220.1z M119,220.6v-3.3h0.7v0.5h0.1
	c0.1-0.1,0.2-0.3,0.3-0.4c0.2-0.1,0.4-0.2,0.7-0.2c0.3,0,0.5,0.1,0.7,0.2c0.2,0.1,0.4,0.3,0.5,0.5s0.2,0.5,0.2,0.7v2h-0.7v-2
	c0-0.3-0.1-0.5-0.2-0.6s-0.3-0.2-0.6-0.2c-0.3,0-0.5,0.1-0.7,0.3s-0.3,0.5-0.3,0.8v1.7H119z M124.5,220.7c-0.3,0-0.5-0.1-0.8-0.2
	c-0.2-0.1-0.4-0.3-0.6-0.6c-0.1-0.3-0.2-0.6-0.2-0.9v-0.1c0-0.4,0.1-0.7,0.2-0.9c0.1-0.3,0.3-0.5,0.6-0.6c0.2-0.1,0.5-0.2,0.8-0.2
	c0.2,0,0.4,0,0.5,0.1s0.3,0.1,0.4,0.2c0.1,0.1,0.2,0.2,0.2,0.3h0.1v-1.9h0.7v4.7h-0.7v-0.5h-0.1c-0.1,0.1-0.2,0.3-0.4,0.4
	C125.1,220.6,124.9,220.7,124.5,220.7z M124.7,220.1c0.3,0,0.6-0.1,0.7-0.3c0.2-0.2,0.3-0.5,0.3-0.8v-0.1c0-0.4-0.1-0.6-0.3-0.8
	c-0.2-0.2-0.4-0.3-0.8-0.3c-0.3,0-0.5,0.1-0.7,0.3s-0.3,0.5-0.3,0.8v0.1c0,0.4,0.1,0.6,0.3,0.8C124.2,220,124.4,220.1,124.7,220.1z
	 M127.9,220.7c-0.2,0-0.3-0.1-0.4-0.2c-0.1-0.1-0.2-0.2-0.2-0.4s0.1-0.3,0.2-0.4c0.1-0.1,0.2-0.2,0.4-0.2s0.3,0.1,0.4,0.2
	c0.1,0.1,0.2,0.2,0.2,0.4s-0.1,0.3-0.2,0.4C128.2,220.6,128.1,220.7,127.9,220.7z"/>
<path class="st5" d="M196.1,192.5h-32c-3.6,0-6.5,2.9-6.5,6.5s2.9,6.5,6.5,6.5h32c3.6,0,6.5-2.9,6.5-6.5S199.7,192.5,196.1,192.5z"
	/>
<path d="M163.9,199.4h1.9v-1.9c1.1,0,1.9,0.9,1.9,1.9c0,1.1-0.9,1.9-1.9,1.9S163.9,200.5,163.9,199.4z M169.1,199.4
	c0,1.8-1.4,3.2-3.2,3.2s-3.2-1.4-3.2-3.2s1.4-3.2,3.2-3.2S169.1,197.6,169.1,199.4z M168.4,199.4c0-1.4-1.2-2.6-2.6-2.6
	s-2.6,1.2-2.6,2.6c0,1.4,1.2,2.6,2.6,2.6S168.4,200.9,168.4,199.4z M166.5,195.6v-0.7h-1.3v0.7C165.7,195.5,166,195.5,166.5,195.6z
	 M168.7,196.8l0.4-0.4l-0.5-0.5l-0.5,0.5C168.3,196.5,168.5,196.6,168.7,196.8z"/>
<path d="M173.1,201.2v-4.1h1.2l1.1,3.6h0.1v-3.6h0.6v4.1h-1.2l-1.1-3.7h-0.1v3.7H173.1z M178.3,201.3c-0.3,0-0.5-0.1-0.8-0.2
	c-0.2-0.1-0.4-0.3-0.5-0.5s-0.2-0.5-0.2-0.8v-0.1c0-0.3,0.1-0.6,0.2-0.8c0.1-0.2,0.3-0.4,0.5-0.5s0.5-0.2,0.8-0.2s0.5,0.1,0.8,0.2
	c0.2,0.1,0.4,0.3,0.5,0.5s0.2,0.5,0.2,0.8v0.1c0,0.3-0.1,0.6-0.2,0.8c-0.1,0.2-0.3,0.4-0.5,0.5C178.8,201.2,178.6,201.3,178.3,201.3
	z M178.3,200.8c0.3,0,0.5-0.1,0.6-0.2c0.2-0.2,0.2-0.4,0.2-0.7v-0.1c0-0.3-0.1-0.5-0.2-0.7c-0.2-0.2-0.4-0.3-0.6-0.3
	c-0.3,0-0.5,0.1-0.6,0.3c-0.2,0.2-0.2,0.4-0.2,0.7v0.1c0,0.3,0.1,0.5,0.2,0.7C177.8,200.7,178,200.8,178.3,200.8z M183.4,201.3
	c-0.3,0-0.6-0.1-0.8-0.2c-0.2-0.1-0.4-0.3-0.6-0.5c-0.1-0.2-0.2-0.5-0.2-0.8v-0.1h0.6v0.1c0,0.3,0.1,0.5,0.3,0.6s0.4,0.2,0.7,0.2
	s0.5-0.1,0.7-0.2c0.1-0.1,0.2-0.3,0.2-0.5c0-0.1,0-0.2-0.1-0.3s-0.2-0.1-0.3-0.2c-0.1-0.1-0.3-0.1-0.5-0.1l-0.2-0.1
	c-0.3-0.1-0.5-0.1-0.7-0.2c-0.2-0.1-0.3-0.2-0.4-0.4c-0.1-0.2-0.2-0.3-0.2-0.6c0-0.2,0.1-0.4,0.2-0.6c0.1-0.2,0.3-0.3,0.5-0.4
	c0.2-0.1,0.5-0.1,0.7-0.1c0.3,0,0.5,0,0.8,0.1c0.2,0.1,0.4,0.2,0.5,0.4s0.2,0.4,0.2,0.7v0.2h-0.6v-0.2c0-0.2,0-0.3-0.1-0.4
	c-0.1-0.1-0.2-0.2-0.3-0.2c-0.1-0.1-0.3-0.1-0.4-0.1c-0.2,0-0.4,0.1-0.6,0.2c-0.1,0.1-0.2,0.2-0.2,0.4c0,0.1,0,0.2,0.1,0.3
	s0.2,0.1,0.3,0.2c0.1,0.1,0.3,0.1,0.4,0.1l0.2,0.1c0.3,0.1,0.5,0.1,0.7,0.2c0.2,0.1,0.4,0.2,0.5,0.4s0.2,0.4,0.2,0.6
	c0,0.2-0.1,0.5-0.2,0.6c-0.1,0.2-0.3,0.3-0.5,0.4C183.9,201.2,183.7,201.3,183.4,201.3z M185.5,201.2v-4.1h0.6v3.5h2v0.6H185.5z
	 M188.4,201.2l1.2-4.1h1.1l1.2,4.1h-0.6l-0.3-1h-1.6l-0.3,1H188.4z M189.5,199.7h1.3l-0.6-2.1h-0.1L189.5,199.7z"/>
<path class="st5" d="M207.5,239h-68.8c-1.3,0-2.4,1.1-2.4,2.4v14c0,1.3,1.1,2.4,2.4,2.4h68.8c1.3,0,2.4-1.1,2.4-2.4v-14
	C209.9,240.1,208.8,239,207.5,239z"/>
<path d="M148.4,250.6v-4.1h1.7c0.3,0,0.5,0,0.7,0.1s0.3,0.2,0.4,0.4c0.1,0.2,0.2,0.4,0.2,0.6v0.1c0,0.3-0.1,0.5-0.2,0.6
	c-0.1,0.2-0.3,0.3-0.4,0.3v0.1c0.1,0,0.3,0.1,0.4,0.2c0.1,0.1,0.1,0.2,0.1,0.4v1.3h-0.6v-1.3c0-0.1,0-0.2-0.1-0.2
	c-0.1-0.1-0.1-0.1-0.3-0.1H149v1.6L148.4,250.6L148.4,250.6z M149,248.4h1c0.2,0,0.4-0.1,0.5-0.2c0.1-0.1,0.2-0.3,0.2-0.5l0,0
	c0-0.2-0.1-0.4-0.2-0.5c-0.1-0.1-0.3-0.2-0.5-0.2h-1V248.4z M153.4,250.7c-0.3,0-0.5-0.1-0.8-0.2c-0.2-0.1-0.4-0.3-0.5-0.5
	s-0.2-0.5-0.2-0.8v-0.1c0-0.3,0.1-0.6,0.2-0.8c0.1-0.2,0.3-0.4,0.5-0.5s0.5-0.2,0.8-0.2s0.5,0.1,0.7,0.2c0.2,0.1,0.4,0.3,0.5,0.5
	s0.2,0.5,0.2,0.8v0.2h-2.2c0,0.3,0.1,0.5,0.2,0.6c0.2,0.1,0.4,0.2,0.6,0.2c0.2,0,0.4-0.1,0.5-0.2c0.1-0.1,0.2-0.2,0.3-0.3l0.5,0.3
	c-0.1,0.1-0.1,0.2-0.2,0.3c-0.1,0.1-0.2,0.2-0.4,0.3C153.8,250.6,153.6,250.7,153.4,250.7z M152.5,248.9h1.6c0-0.2-0.1-0.4-0.2-0.5
	c-0.1-0.1-0.3-0.2-0.5-0.2s-0.4,0.1-0.6,0.2C152.6,248.5,152.6,248.7,152.5,248.9z M156.3,250.7c-0.2,0-0.4,0-0.6-0.1
	c-0.2-0.1-0.3-0.2-0.4-0.3c-0.1-0.1-0.1-0.3-0.1-0.5s0-0.4,0.1-0.5s0.2-0.2,0.4-0.3s0.4-0.1,0.6-0.1h0.9v-0.2c0-0.2-0.1-0.3-0.2-0.4
	c-0.1-0.1-0.3-0.2-0.5-0.2s-0.4,0-0.5,0.1s-0.2,0.2-0.2,0.4l-0.6-0.2c0-0.2,0.1-0.3,0.2-0.4c0.1-0.1,0.2-0.2,0.4-0.3
	s0.4-0.1,0.6-0.1c0.4,0,0.7,0.1,0.9,0.3s0.3,0.5,0.3,0.8v1.2c0,0.1,0.1,0.2,0.2,0.2h0.2v0.5h-0.4c-0.1,0-0.2,0-0.3-0.1
	s-0.1-0.2-0.1-0.3l0,0h-0.1c0,0.1-0.1,0.1-0.1,0.2c-0.1,0.1-0.2,0.1-0.3,0.2C156.7,250.6,156.5,250.7,156.3,250.7z M156.4,250.2
	c0.2,0,0.4-0.1,0.6-0.2c0.1-0.1,0.2-0.3,0.2-0.6v-0.1h-0.8c-0.2,0-0.3,0-0.4,0.1c-0.1,0.1-0.1,0.2-0.1,0.3s0.1,0.2,0.2,0.3
	C156.1,250.1,156.2,250.2,156.4,250.2z M160,250.7c-0.4,0-0.7-0.1-0.9-0.2c-0.2-0.2-0.4-0.4-0.4-0.7l0.6-0.1c0,0.2,0.1,0.3,0.2,0.4
	c0.1,0.1,0.2,0.2,0.3,0.2s0.2,0.1,0.4,0.1s0.3,0,0.4-0.1c0.1-0.1,0.2-0.2,0.2-0.3s0-0.2-0.1-0.3s-0.2-0.1-0.4-0.1h-0.2
	c-0.2,0-0.4-0.1-0.5-0.2c-0.2-0.1-0.3-0.2-0.4-0.3c-0.1-0.1-0.1-0.3-0.1-0.4c0-0.3,0.1-0.5,0.3-0.6c0.2-0.2,0.5-0.2,0.8-0.2
	s0.6,0.1,0.8,0.2c0.2,0.1,0.3,0.3,0.4,0.6l-0.6,0.2c0-0.2-0.1-0.3-0.2-0.4c-0.1-0.1-0.3-0.1-0.4-0.1c-0.2,0-0.3,0-0.4,0.1
	c-0.1,0.1-0.1,0.1-0.1,0.2c0,0.1,0,0.2,0.1,0.3s0.2,0.1,0.4,0.1h0.2c0.2,0,0.4,0.1,0.6,0.1c0.2,0.1,0.3,0.2,0.4,0.3
	c0.1,0.1,0.2,0.3,0.2,0.5c0,0.3-0.1,0.5-0.3,0.7C160.6,250.6,160.3,250.7,160,250.7z M163,250.7c-0.4,0-0.7-0.1-0.9-0.2
	s-0.4-0.4-0.4-0.7l0.6-0.1c0,0.2,0.1,0.3,0.2,0.4c0.1,0.1,0.2,0.2,0.3,0.2s0.2,0.1,0.4,0.1s0.3,0,0.4-0.1c0.1-0.1,0.2-0.2,0.2-0.3
	s0-0.2-0.1-0.3s-0.2-0.1-0.4-0.1h-0.2c-0.2,0-0.4-0.1-0.5-0.2c-0.2-0.1-0.3-0.2-0.4-0.3c-0.1-0.1-0.1-0.3-0.1-0.4
	c0-0.3,0.1-0.5,0.3-0.6c0.2-0.2,0.5-0.2,0.8-0.2s0.6,0.1,0.8,0.2c0.2,0.1,0.3,0.3,0.4,0.6l-0.6,0.2c0-0.2-0.1-0.3-0.2-0.4
	c-0.1-0.1-0.3-0.1-0.4-0.1c-0.2,0-0.3,0-0.4,0.1c-0.1,0.1-0.1,0.1-0.1,0.2c0,0.1,0,0.2,0.1,0.3s0.2,0.1,0.4,0.1h0.2
	c0.2,0,0.4,0.1,0.6,0.1c0.2,0.1,0.3,0.2,0.4,0.3c0.1,0.1,0.2,0.3,0.2,0.5c0,0.3-0.1,0.5-0.3,0.7C163.7,250.6,163.4,250.7,163,250.7z
	 M164.9,250.6v-2.9h0.6v2.9H164.9z M165.2,247.3c-0.1,0-0.2,0-0.3-0.1s-0.1-0.2-0.1-0.3s0-0.2,0.1-0.3s0.2-0.1,0.3-0.1
	s0.2,0,0.3,0.1s0.1,0.2,0.1,0.3s0,0.2-0.1,0.3S165.3,247.3,165.2,247.3z M166.2,249.2L166.2,249.2c0-0.4,0.1-0.6,0.2-0.9
	c0.1-0.2,0.3-0.4,0.5-0.5s0.4-0.2,0.7-0.2s0.5,0.1,0.6,0.2c0.2,0.1,0.3,0.2,0.3,0.3h0.1v-0.4h0.6v3.5c0,0.2-0.1,0.3-0.2,0.4
	c-0.1,0.1-0.2,0.2-0.4,0.2h-1.9v-0.5h1.7c0.1,0,0.2-0.1,0.2-0.2v-0.9h-0.1c0,0.1-0.1,0.1-0.2,0.2c-0.1,0.1-0.2,0.1-0.3,0.2
	c-0.1,0-0.3,0.1-0.5,0.1s-0.5-0.1-0.7-0.2c-0.2-0.1-0.4-0.3-0.5-0.5C166.3,249.7,166.2,249.5,166.2,249.2z M167.7,250.1
	c0.3,0,0.5-0.1,0.6-0.2c0.2-0.2,0.3-0.4,0.3-0.7v-0.1c0-0.3-0.1-0.5-0.2-0.7c-0.2-0.2-0.4-0.2-0.6-0.2c-0.3,0-0.5,0.1-0.6,0.2
	c-0.2,0.2-0.2,0.4-0.2,0.7v0.1c0,0.3,0.1,0.5,0.2,0.7C167.3,250,167.5,250.1,167.7,250.1z M170.1,250.6v-2.9h0.6v0.4h0.1
	c0.1-0.1,0.2-0.2,0.3-0.3s0.3-0.2,0.6-0.2c0.2,0,0.4,0,0.6,0.1c0.2,0.1,0.3,0.2,0.4,0.4c0.1,0.2,0.1,0.4,0.1,0.6v1.7h-0.6v-1.7
	c0-0.2-0.1-0.4-0.2-0.5c-0.1-0.1-0.3-0.2-0.5-0.2s-0.4,0.1-0.6,0.2c-0.1,0.2-0.2,0.4-0.2,0.7v1.4h-0.6V250.6z M175.1,250.6v-4.1h1.6
	c0.2,0,0.5,0.1,0.7,0.2c0.2,0.1,0.4,0.2,0.5,0.4s0.2,0.4,0.2,0.6v0.1c0,0.3-0.1,0.5-0.2,0.7c-0.1,0.2-0.3,0.3-0.5,0.4
	c-0.2,0.1-0.4,0.1-0.7,0.1h-1v1.6H175.1z M175.8,248.5h0.9c0.2,0,0.4-0.1,0.5-0.2c0.1-0.1,0.2-0.3,0.2-0.5v-0.1
	c0-0.2-0.1-0.4-0.2-0.5c-0.1-0.1-0.3-0.2-0.5-0.2h-0.9V248.5z M178.6,250.6v-2.9h0.6v0.3h0.1c0-0.1,0.1-0.2,0.2-0.3
	c0.1-0.1,0.2-0.1,0.4-0.1h0.3v0.5h-0.4c-0.2,0-0.4,0.1-0.5,0.2c-0.1,0.1-0.2,0.3-0.2,0.5v1.7h-0.5V250.6z M182.1,250.7
	c-0.3,0-0.5-0.1-0.8-0.2c-0.2-0.1-0.4-0.3-0.5-0.5s-0.2-0.5-0.2-0.8v-0.1c0-0.3,0.1-0.6,0.2-0.8c0.1-0.2,0.3-0.4,0.5-0.5
	s0.5-0.2,0.8-0.2s0.5,0.1,0.8,0.2c0.2,0.1,0.4,0.3,0.5,0.5s0.2,0.5,0.2,0.8v0.1c0,0.3-0.1,0.6-0.2,0.8c-0.1,0.2-0.3,0.4-0.5,0.5
	C182.7,250.6,182.4,250.7,182.1,250.7z M182.1,250.1c0.3,0,0.5-0.1,0.6-0.2c0.2-0.2,0.2-0.4,0.2-0.7v-0.1c0-0.3-0.1-0.5-0.2-0.7
	c-0.2-0.2-0.4-0.3-0.6-0.3c-0.3,0-0.5,0.1-0.6,0.3c-0.2,0.2-0.2,0.4-0.2,0.7v0.1c0,0.3,0.1,0.5,0.2,0.7
	C181.7,250.1,181.9,250.1,182.1,250.1z M183.8,251.8v-0.5h0.4c0.1,0,0.2-0.1,0.2-0.2v-3.3h0.6v3.5c0,0.2-0.1,0.3-0.2,0.4
	c-0.1,0.1-0.2,0.2-0.4,0.2L183.8,251.8L183.8,251.8z M184.7,247.3c-0.1,0-0.2,0-0.3-0.1s-0.1-0.2-0.1-0.3s0-0.2,0.1-0.3
	s0.2-0.1,0.3-0.1s0.2,0,0.3,0.1s0.1,0.2,0.1,0.3s0,0.2-0.1,0.3S184.8,247.3,184.7,247.3z M187.2,250.7c-0.3,0-0.5-0.1-0.8-0.2
	c-0.2-0.1-0.4-0.3-0.5-0.5s-0.2-0.5-0.2-0.8v-0.1c0-0.3,0.1-0.6,0.2-0.8c0.1-0.2,0.3-0.4,0.5-0.5s0.5-0.2,0.7-0.2
	c0.3,0,0.5,0.1,0.7,0.2c0.2,0.1,0.4,0.3,0.5,0.5s0.2,0.5,0.2,0.8v0.2h-2.2c0,0.3,0.1,0.5,0.2,0.6c0.2,0.1,0.4,0.2,0.6,0.2
	c0.2,0,0.4-0.1,0.5-0.2c0.1-0.1,0.2-0.2,0.3-0.3l0.5,0.3c-0.1,0.1-0.1,0.2-0.2,0.3c-0.1,0.1-0.2,0.2-0.4,0.3
	S187.4,250.7,187.2,250.7z M186.3,248.9h1.6c0-0.2-0.1-0.4-0.2-0.5c-0.1-0.1-0.3-0.2-0.5-0.2s-0.4,0.1-0.6,0.2
	C186.5,248.5,186.4,248.7,186.3,248.9z M190.6,250.7c-0.3,0-0.5-0.1-0.7-0.2c-0.2-0.1-0.4-0.3-0.5-0.5s-0.2-0.5-0.2-0.8v-0.1
	c0-0.3,0.1-0.6,0.2-0.8c0.1-0.2,0.3-0.4,0.5-0.5s0.5-0.2,0.7-0.2c0.3,0,0.5,0.1,0.7,0.2c0.2,0.1,0.3,0.2,0.5,0.4
	c0.1,0.2,0.2,0.4,0.2,0.6l-0.6,0.1c0-0.1-0.1-0.2-0.1-0.3c-0.1-0.1-0.1-0.2-0.3-0.2c-0.1-0.1-0.3-0.1-0.4-0.1c-0.2,0-0.3,0-0.5,0.1
	c-0.1,0.1-0.2,0.2-0.3,0.3s-0.1,0.3-0.1,0.5v0.1c0,0.2,0,0.4,0.1,0.5s0.2,0.3,0.3,0.3c0.1,0.1,0.3,0.1,0.5,0.1
	c0.3,0,0.4-0.1,0.6-0.2c0.1-0.1,0.2-0.3,0.2-0.5l0.6,0.1c0,0.2-0.1,0.4-0.2,0.5c-0.1,0.2-0.3,0.3-0.5,0.4S190.9,250.7,190.6,250.7z
	 M193.7,250.6c-0.2,0-0.3-0.1-0.4-0.2c-0.1-0.1-0.2-0.2-0.2-0.4v-1.8h-0.8v-0.5h0.8v-0.9h0.6v0.9h0.9v0.5h-0.9v1.7
	c0,0.1,0.1,0.2,0.2,0.2h0.6v0.5H193.7z M196.4,250.7c-0.4,0-0.7-0.1-0.9-0.2s-0.4-0.4-0.4-0.7l0.6-0.1c0,0.2,0.1,0.3,0.2,0.4
	c0.1,0.1,0.2,0.2,0.3,0.2s0.2,0.1,0.4,0.1s0.3,0,0.4-0.1c0.1-0.1,0.2-0.2,0.2-0.3s0-0.2-0.1-0.3s-0.2-0.1-0.4-0.1h-0.2
	c-0.2,0-0.4-0.1-0.5-0.2c-0.2-0.1-0.3-0.2-0.4-0.3c-0.1-0.1-0.1-0.3-0.1-0.4c0-0.3,0.1-0.5,0.3-0.6c0.2-0.2,0.5-0.2,0.8-0.2
	s0.6,0.1,0.8,0.2c0.2,0.1,0.3,0.3,0.4,0.6l-0.6,0.2c0-0.2-0.1-0.3-0.2-0.4c-0.1-0.1-0.3-0.1-0.4-0.1c-0.2,0-0.3,0-0.4,0.1
	c-0.1,0.1-0.1,0.1-0.1,0.2c0,0.1,0,0.2,0.1,0.3s0.2,0.1,0.4,0.1h0.2c0.2,0,0.4,0.1,0.6,0.1c0.2,0.1,0.3,0.2,0.4,0.3
	c0.1,0.1,0.2,0.3,0.2,0.5c0,0.3-0.1,0.5-0.3,0.7C197.1,250.6,196.8,250.7,196.4,250.7z"/>
<path d="M33.6,250.6v-4.1h1.2l0.9,3.6h0.1l0.9-3.6h1.2v4.1h-0.6V247h-0.1l-0.9,3.6h-1.1l-0.9-3.6h-0.1v3.6H33.6z M39.6,250.7
	c-0.2,0-0.4,0-0.6-0.1c-0.2-0.1-0.3-0.2-0.4-0.3c-0.1-0.1-0.1-0.3-0.1-0.5s0-0.4,0.1-0.5s0.2-0.2,0.4-0.3s0.4-0.1,0.6-0.1h0.9v-0.2
	c0-0.2,0-0.3-0.2-0.4c-0.1-0.1-0.3-0.2-0.5-0.2s-0.4,0-0.5,0.1s-0.2,0.2-0.2,0.4l-0.6-0.2c0-0.2,0.1-0.3,0.2-0.4
	c0.1-0.1,0.2-0.2,0.4-0.3s0.4-0.1,0.6-0.1c0.4,0,0.7,0.1,0.9,0.3s0.3,0.5,0.3,0.8v1.2c0,0.1,0.1,0.2,0.2,0.2h0.2v0.5H41
	c-0.1,0-0.2,0-0.3-0.1s-0.1-0.2-0.1-0.3l0,0h-0.1c0,0.1-0.1,0.1-0.1,0.2c-0.1,0.1-0.2,0.1-0.3,0.2C39.9,250.6,39.8,250.7,39.6,250.7
	z M39.7,250.2c0.2,0,0.4-0.1,0.6-0.2c0.1-0.1,0.2-0.3,0.2-0.6v-0.1h-0.8c-0.2,0-0.3,0-0.4,0.1c-0.1,0.1-0.1,0.2-0.1,0.3
	s0.1,0.2,0.2,0.3C39.4,250.1,39.5,250.2,39.7,250.2z M42.1,250.6v-2.9h0.6v0.3h0.1c0-0.1,0.1-0.2,0.2-0.3c0.1-0.1,0.2-0.1,0.4-0.1
	h0.3v0.5h-0.4c-0.2,0-0.4,0.1-0.5,0.2c-0.1,0.1-0.2,0.3-0.2,0.5v1.7h-0.5V250.6z M44.3,250.6v-4.1h0.6v2.3H45l1.1-1.1h0.8l-1.4,1.4
	l1.5,1.5h-0.8l-1.2-1.2h-0.1v1.2L44.3,250.6L44.3,250.6z M49.9,250.7c-0.2,0-0.4,0-0.6-0.1c-0.2-0.1-0.3-0.2-0.4-0.3
	c-0.1-0.1-0.1-0.3-0.1-0.5s0-0.4,0.1-0.5s0.2-0.2,0.4-0.3s0.4-0.1,0.6-0.1h0.9v-0.2c0-0.2-0.1-0.3-0.2-0.4c-0.1-0.1-0.3-0.2-0.5-0.2
	s-0.4,0-0.5,0.1s-0.2,0.2-0.2,0.4l-0.6-0.2c0-0.2,0.1-0.3,0.2-0.4c0.1-0.1,0.2-0.2,0.4-0.3s0.4-0.1,0.6-0.1c0.4,0,0.7,0.1,0.9,0.3
	s0.3,0.5,0.3,0.8v1.2c0,0.1,0.1,0.2,0.2,0.2h0.2v0.5h-0.4c-0.1,0-0.2,0-0.3-0.1s-0.1-0.2-0.1-0.3l0,0h-0.1c0,0.1-0.1,0.1-0.1,0.2
	c-0.1,0.1-0.2,0.1-0.3,0.2C50.2,250.6,50.1,250.7,49.9,250.7z M50,250.2c0.2,0,0.4-0.1,0.6-0.2c0.1-0.1,0.2-0.3,0.2-0.6v-0.1H50
	c-0.2,0-0.3,0-0.4,0.1c-0.1,0.1-0.1,0.2-0.1,0.3s0.1,0.2,0.2,0.3C49.7,250.1,49.8,250.2,50,250.2z M52.3,250.6v-4.1h0.6v4.1H52.3z
	 M53.8,250.6v-4.1h0.6v4.1H53.8z M57.7,250.7c-0.2,0-0.4,0-0.6-0.1c-0.2-0.1-0.3-0.2-0.4-0.3c-0.1-0.1-0.1-0.3-0.1-0.5
	s0-0.4,0.1-0.5s0.2-0.2,0.4-0.3s0.4-0.1,0.6-0.1h0.9v-0.2c0-0.2-0.1-0.3-0.2-0.4c-0.1-0.1-0.3-0.2-0.5-0.2s-0.4,0-0.5,0.1
	s-0.2,0.2-0.2,0.4l-0.6-0.2c0-0.2,0.1-0.3,0.2-0.4c0.1-0.1,0.2-0.2,0.4-0.3s0.4-0.1,0.6-0.1c0.4,0,0.7,0.1,0.9,0.3s0.3,0.5,0.3,0.8
	v1.2c0,0.1,0.1,0.2,0.2,0.2h0.2v0.5H59c-0.1,0-0.2,0-0.3-0.1s-0.1-0.2-0.1-0.3l0,0h-0.1c0,0.1-0.1,0.1-0.1,0.2
	c-0.1,0.1-0.2,0.1-0.3,0.2C58,250.6,57.9,250.7,57.7,250.7z M57.8,250.2c0.2,0,0.4-0.1,0.6-0.2c0.1-0.1,0.2-0.3,0.2-0.6v-0.1h-0.8
	c-0.2,0-0.3,0-0.4,0.1c-0.1,0.1-0.1,0.2-0.1,0.3s0.1,0.2,0.2,0.3C57.5,250.1,57.6,250.2,57.8,250.2z M61.3,250.7
	c-0.4,0-0.7-0.1-0.9-0.2c-0.2-0.2-0.4-0.4-0.4-0.7l0.6-0.1c0,0.2,0.1,0.3,0.2,0.4c0.1,0.1,0.2,0.2,0.3,0.2s0.2,0.1,0.4,0.1
	s0.3,0,0.4-0.1c0.1-0.1,0.2-0.2,0.2-0.3s0-0.2-0.1-0.3s-0.2-0.1-0.4-0.1h-0.2c-0.2,0-0.4-0.1-0.5-0.2s-0.3-0.2-0.4-0.3
	c-0.1-0.1-0.1-0.3-0.1-0.4c0-0.3,0.1-0.5,0.3-0.6c0.2-0.2,0.5-0.2,0.8-0.2s0.6,0.1,0.8,0.2c0.2,0.1,0.3,0.3,0.4,0.6l-0.6,0.2
	c0-0.2-0.1-0.3-0.2-0.4c-0.1-0.1-0.3-0.1-0.4-0.1c-0.2,0-0.3,0-0.4,0.1c-0.1,0.1-0.1,0.1-0.1,0.2c0,0.1,0,0.2,0.1,0.3
	s0.2,0.1,0.4,0.1h0.2c0.2,0,0.4,0.1,0.6,0.1c0.2,0.1,0.3,0.2,0.4,0.3c0.1,0.1,0.2,0.3,0.2,0.5c0,0.3-0.1,0.5-0.3,0.7
	S61.7,250.7,61.3,250.7z M66.2,250.7c-0.5,0-0.9-0.1-1.2-0.4c-0.3-0.3-0.4-0.7-0.4-1.2v-1c0-0.5,0.1-0.9,0.4-1.2s0.7-0.4,1.2-0.4
	s0.9,0.1,1.1,0.4c0.3,0.3,0.4,0.6,0.4,1.1l0,0h-0.6v-0.1c0-0.3-0.1-0.5-0.2-0.7s-0.4-0.3-0.7-0.3c-0.3,0-0.6,0.1-0.7,0.3
	c-0.2,0.2-0.3,0.4-0.3,0.8v1c0,0.3,0.1,0.6,0.3,0.8c0.2,0.2,0.4,0.3,0.7,0.3c0.3,0,0.5-0.1,0.7-0.3s0.2-0.4,0.2-0.7V249h0.6v0.1
	c0,0.5-0.1,0.8-0.4,1.1C67,250.5,66.6,250.7,66.2,250.7z M69.7,250.7c-0.3,0-0.5-0.1-0.8-0.2c-0.2-0.1-0.4-0.3-0.5-0.5
	s-0.2-0.5-0.2-0.8v-0.1c0-0.3,0.1-0.6,0.2-0.8s0.3-0.4,0.5-0.5s0.5-0.2,0.8-0.2s0.5,0.1,0.8,0.2s0.4,0.3,0.5,0.5s0.2,0.5,0.2,0.8
	v0.1c0,0.3-0.1,0.6-0.2,0.8s-0.3,0.4-0.5,0.5S70,250.7,69.7,250.7z M69.7,250.1c0.3,0,0.5-0.1,0.6-0.2c0.2-0.2,0.2-0.4,0.2-0.7v-0.1
	c0-0.3-0.1-0.5-0.2-0.7c-0.2-0.2-0.4-0.3-0.6-0.3c-0.3,0-0.5,0.1-0.6,0.3c-0.2,0.2-0.2,0.4-0.2,0.7v0.1c0,0.3,0.1,0.5,0.2,0.7
	C69.3,250.1,69.5,250.1,69.7,250.1z M72,250.6v-2.9h0.6v0.3h0.1c0.1-0.1,0.1-0.2,0.3-0.3c0.1-0.1,0.3-0.1,0.5-0.1s0.4,0,0.5,0.1
	s0.2,0.2,0.3,0.3h0.1c0.1-0.1,0.2-0.2,0.3-0.3c0.1-0.1,0.3-0.1,0.5-0.1s0.4,0,0.5,0.1s0.3,0.2,0.3,0.3c0.1,0.1,0.1,0.3,0.1,0.6v1.9
	h-0.6v-1.9c0-0.2,0-0.3-0.1-0.4c-0.1-0.1-0.2-0.1-0.4-0.1c-0.2,0-0.3,0.1-0.4,0.2c-0.1,0.1-0.2,0.3-0.2,0.5v1.7h-0.6v-1.9
	c0-0.2,0-0.3-0.1-0.4c-0.1-0.1-0.2-0.1-0.4-0.1c-0.2,0-0.3,0.1-0.4,0.2c-0.1,0.1-0.2,0.3-0.2,0.5v1.7L72,250.6L72,250.6z
	 M76.9,251.8v-4h0.6v0.4h0.1c0.1-0.1,0.2-0.2,0.3-0.3c0.2-0.1,0.4-0.2,0.6-0.2s0.5,0.1,0.7,0.2c0.2,0.1,0.4,0.3,0.5,0.5
	s0.2,0.5,0.2,0.8v0.1c0,0.3-0.1,0.6-0.2,0.8s-0.3,0.4-0.5,0.5s-0.4,0.2-0.7,0.2c-0.2,0-0.3,0-0.5-0.1c-0.1,0-0.2-0.1-0.3-0.2
	c-0.1-0.1-0.1-0.1-0.2-0.2h-0.1v1.6h-0.5V251.8z M78.4,250.2c0.3,0,0.5-0.1,0.6-0.2c0.2-0.2,0.2-0.4,0.2-0.7v-0.1
	c0-0.3-0.1-0.5-0.3-0.7c-0.2-0.2-0.4-0.2-0.6-0.2c-0.3,0-0.5,0.1-0.6,0.2c-0.2,0.2-0.2,0.4-0.2,0.7v0.1c0,0.3,0.1,0.5,0.2,0.7
	C78,250.1,78.2,250.2,78.4,250.2z M80.7,250.6v-4.1h0.6v4.1H80.7z M83.5,250.7c-0.3,0-0.5-0.1-0.8-0.2c-0.2-0.1-0.4-0.3-0.5-0.5
	s-0.2-0.5-0.2-0.8v-0.1c0-0.3,0.1-0.6,0.2-0.8s0.3-0.4,0.5-0.5s0.5-0.2,0.7-0.2c0.3,0,0.5,0.1,0.7,0.2c0.2,0.1,0.4,0.3,0.5,0.5
	s0.2,0.5,0.2,0.8v0.2h-2.2c0,0.3,0.1,0.5,0.2,0.6c0.2,0.1,0.4,0.2,0.6,0.2s0.4-0.1,0.5-0.2c0.1-0.1,0.2-0.2,0.3-0.3l0.5,0.3
	c-0.1,0.1-0.1,0.2-0.2,0.3s-0.2,0.2-0.4,0.3C83.9,250.6,83.7,250.7,83.5,250.7z M82.6,248.9h1.6c0-0.2-0.1-0.4-0.2-0.5
	s-0.3-0.2-0.5-0.2s-0.4,0.1-0.6,0.2C82.8,248.5,82.7,248.7,82.6,248.9z M86.5,250.6c-0.2,0-0.3-0.1-0.4-0.2
	c-0.1-0.1-0.2-0.2-0.2-0.4v-1.8h-0.8v-0.5H86v-0.9h0.6v0.9h0.9v0.5h-0.9v1.7c0,0.1,0.1,0.2,0.2,0.2h0.6v0.5H86.5z M89.3,250.7
	c-0.3,0-0.5-0.1-0.8-0.2c-0.2-0.1-0.4-0.3-0.5-0.5s-0.2-0.5-0.2-0.8v-0.1c0-0.3,0.1-0.6,0.2-0.8s0.3-0.4,0.5-0.5s0.5-0.2,0.8-0.2
	s0.5,0.1,0.7,0.2c0.2,0.1,0.4,0.3,0.5,0.5s0.2,0.5,0.2,0.8v0.2h-2.2c0,0.3,0.1,0.5,0.2,0.6c0.2,0.1,0.4,0.2,0.6,0.2s0.4-0.1,0.5-0.2
	c0.1-0.1,0.2-0.2,0.3-0.3l0.5,0.3c-0.1,0.1-0.1,0.2-0.2,0.3s-0.2,0.2-0.4,0.3C89.8,250.6,89.6,250.7,89.3,250.7z M88.5,248.9h1.6
	c0-0.2-0.1-0.4-0.2-0.5s-0.3-0.2-0.5-0.2s-0.4,0.1-0.6,0.2C88.6,248.5,88.5,248.7,88.5,248.9z"/>
</svg>
